<?xml version="1.0" encoding="utf-8"?>
<!-- Generator: Adobe Illustrator 24.3.0, SVG Export Plug-In . SVG Version: 6.00 Build 0)  -->
<svg version="1.1" id="Capa_1" xmlns="http://www.w3.org/2000/svg" xmlns:xlink="http://www.w3.org/1999/xlink" x="0px" y="0px"
	 viewBox="0 0 1080 1114.3" style="enable-background:new 0 0 1080 1114.3;" xml:space="preserve">
<style type="text/css">
	.st0{opacity:0.21;}
	.st1{fill:#7D9AB7;}
	.st2{fill:none;stroke:#FFFFFF;stroke-width:2.8886;stroke-miterlimit:10;}
	.st3{opacity:0.18;fill:#C64832;}
	.st4{fill:none;stroke:#515151;stroke-width:2.5275;stroke-miterlimit:10;}
	.st5{fill:none;stroke:#515151;stroke-width:2.5275;stroke-miterlimit:10;stroke-dasharray:6.7269,6.7269;}
	.st6{fill:none;stroke:#515151;stroke-width:2.5275;stroke-miterlimit:10;stroke-dasharray:7.2408,7.2408;}
	.st7{fill:none;stroke:#C64832;stroke-width:2.1664;stroke-miterlimit:10;stroke-dasharray:7.2001;}
	.st8{fill:none;stroke:#C64832;stroke-width:2.5275;stroke-miterlimit:10;}
	.st9{fill:#C64832;}
	.st10{fill:#1C1C1F;}
	.st11{fill:#FFFFFF;}
	.st12{font-family:'FiraSansCondensed-Medium';}
	.st13{font-size:21.0868px;}
	.st14{fill:#262626;}
	.st15{fill:none;stroke:#C64832;stroke-width:2.1664;stroke-miterlimit:10;stroke-dasharray:1.0832,3.6107;}
	.st16{fill:none;stroke:#C64832;stroke-width:2.1664;stroke-miterlimit:10;stroke-dasharray:7.0933,7.0933;}
	.st17{fill:none;stroke:#515151;stroke-width:2.5275;stroke-miterlimit:10;stroke-dasharray:7.2214;}
	.st18{fill:#FDFDFD;}
	.st19{font-size:17.5118px;}
	.st20{font-size:21.8592px;}
	.st21{fill:none;stroke:#211915;stroke-width:2.1664;stroke-miterlimit:10;stroke-dasharray:1.0832,3.6107;}
	.st22{font-size:16.8136px;}
	.st23{fill:#BDC9D6;}
	.st24{font-size:30.1819px;}
	.st25{fill:#C2B9B2;}
	.st26{font-size:25.895px;}
	.st27{font-size:11.9844px;}
	.st28{fill:#494949;}
	.st29{opacity:0.4;fill:#262626;}
	.st30{opacity:0.43;fill:#262626;}
	.st31{opacity:0.43;fill:#C64832;}
	.st32{fill:#211915;}
	.st33{fill:#B0BFB2;}
	.st34{fill:#C4C9D1;}
	.st35{fill:none;stroke:#211915;stroke-width:4.1268;stroke-miterlimit:10;stroke-dasharray:1.7686,5.8954;}
	.st36{fill:#A38051;}
	.st37{opacity:0.45;}
	.st38{fill:none;stroke:#211915;stroke-width:3.5373;stroke-miterlimit:10;stroke-dasharray:1.7686,5.8954;}
	.st39{fill:none;stroke:#000000;stroke-width:1.8359;stroke-miterlimit:10;}
</style>
<g class="st0">
	<path class="st1" d="M1907,2037.6c1.3,0,2.5-1,2.6-2.4c0.1-2.2,0.2-4.3,0.2-6.1c0-9.6-1.6-15-3.7-18.2c-1.1-1.6-2.3-2.6-3.4-3.2
		c-1.1-0.5-2-0.7-2.6-0.7c0,0-0.1,0-0.1,0h-12.4c0,0-0.1,0-0.1,0c-0.6,0-1.5,0.1-2.6,0.7c-1.7,0.9-3.6,2.7-4.9,6
		c-1.3,3.3-2.2,8.1-2.2,15.4c0,1.9,0.1,3.9,0.2,6.1c0.1,1.4,1.2,2.4,2.6,2.4c0.1,0,0.1,0,0.2,0c1.4-0.1,2.5-1.3,2.4-2.7
		c-0.1-2.1-0.2-4.1-0.2-5.8c0-7.7,1.1-12.1,2.2-14.4v40.4c0,2.2,1.8,4,4,4c2.2,0,4-1.8,4-4v-21.3h1.5v21.3c0,2.2,1.8,4,4,4
		c2.2,0,4-1.8,4-4l0-40.4c0.2,0.4,0.4,0.8,0.6,1.4c0.9,2.5,1.7,6.6,1.7,13c0,1.8-0.1,3.7-0.2,5.8c-0.1,1.4,1,2.6,2.4,2.7
		C1906.9,2037.6,1906.9,2037.6,1907,2037.6L1907,2037.6z"/>
	<path class="st1" d="M1900.9,1998c0,4-3.2,7.2-7.2,7.2c-4,0-7.2-3.2-7.2-7.2c0-4,3.2-7.2,7.2-7.2
		C1897.7,1990.8,1900.9,1994.1,1900.9,1998"/>
</g>
<g class="st0">
	<path class="st1" d="M1951.4,2037.6c1.3,0,2.5-1,2.6-2.4c0.1-2.2,0.2-4.3,0.2-6.1c0-9.6-1.6-15-3.7-18.2c-1.1-1.6-2.3-2.6-3.4-3.2
		c-1.1-0.5-2-0.7-2.6-0.7c0,0-0.1,0-0.1,0H1932c0,0-0.1,0-0.1,0c-0.6,0-1.5,0.1-2.6,0.7c-1.7,0.9-3.6,2.7-4.9,6
		c-1.3,3.3-2.2,8.1-2.2,15.4c0,1.9,0.1,3.9,0.2,6.1c0.1,1.4,1.2,2.4,2.6,2.4c0.1,0,0.1,0,0.2,0c1.4-0.1,2.5-1.3,2.4-2.7
		c-0.1-2.1-0.2-4.1-0.2-5.8c0-7.7,1.1-12.1,2.2-14.4v40.4c0,2.2,1.8,4,4,4c2.2,0,4-1.8,4-4v-21.3h1.5v21.3c0,2.2,1.8,4,4,4
		c2.2,0,4-1.8,4-4l0-40.4c0.2,0.4,0.4,0.8,0.6,1.4c0.9,2.5,1.7,6.6,1.7,13c0,1.8-0.1,3.7-0.2,5.8c-0.1,1.4,1,2.6,2.4,2.7
		C1951.3,2037.6,1951.3,2037.6,1951.4,2037.6L1951.4,2037.6z"/>
	<path class="st1" d="M1945.3,1998c0,4-3.2,7.2-7.2,7.2c-4,0-7.2-3.2-7.2-7.2c0-4,3.2-7.2,7.2-7.2
		C1942.1,1990.8,1945.3,1994.1,1945.3,1998"/>
</g>
<image style="overflow:visible;opacity:0.89;" width="1214" height="1024" xlink:href="4628B4EE4273A5AD.png"  transform="matrix(0.8425 0 0 0.8425 29.4865 38.3594)">
</image>
<path class="st2" d="M505.9,716c-1.1-0.8-2-1.2-1.8-2.3c0.4-1.5,1.1-2.8,2.6-2.8c1.4,0,2.4-1.6,2.8-1.9c-0.1-2.5,4.7-3.6,0.3-3.1
	c-2.5-1-3.1-0.1-4.1-1.4c-0.9-1.3-2-0.7-2.8-2.3c-0.3-0.6-0.3-2.4,0-3.6c0.4-1.5,1.1-1.4,1.1-2.8c0-1.3,2.7-1.4,4.2-1.4
	c0.4,0,1.7-2.5,2-2.8c0.8-0.8,2.8-0.5,4.5-0.5c0.6,0,2.2-1.9,2.5-2.2l1.1-1.6c-0.3-4.7-2.2-1.8-4.2-4.2c-0.1,0.2-2.9-0.9-3.8-1.4
	c-1.7-0.7-1.1-3.7,0.8-4.1c1.7-1.2,1-2.9,0.9-4c-0.3-2,0.1-4.2-2.1-3.7c1.6-2.3-1.4-2.8-0.1-4.6c1.5,1.1-6.2-3.9-2.9-5.7
	c-0.5-0.6-1.2-1.2-1.2-1.9c0-2.2-0.9-2.8-1.9-3.8c1.8-0.3,3.7-2.3,3.9-3.9c0.1-1,1.5-0.5,0.9-2.3c-1.1-0.6-0.8-0.9-2-4.2
	c0.7-2.7-1.7-3.8-2.1-4.9c-0.3-0.7,1.2-3.9-0.5-5.7c5.6-1.6,1.2-1.6,4.4-0.9c4.8,0.1,1.9-2-0.9-3.4c0.3-4.2-6.1-1.8-4.1-4.2
	c-4.1-1.3-2.9-2.3-4.6-3.8c0.3-0.4-0.4-1.9,0.4-2.3c0.8-0.5,1.6-0.9,1.6-1.6c-2-1-2.5-2-0.4-4.4c-1.3-1.2-1.6-3.8-0.3-5.6
	c2.4-0.7,0.9-2.8,2.3-3.4c0.5-2.8-1.4-2.9-0.8-4.2c-1.3-0.9-0.2-4.6-1.5-4c-5.9,0.9-1.8-1.5-6.8-0.3c-1.4,1.7-2.1-0.4-3.2-0.9
	c-2.5-1.3-2.8-0.2-5.3-1.3c-2.6-1-2.9-1.9-4.9-3.5c0.1-5.2,1-4,1.4-6.7c0.7-1.3-0.3-5.2,2.7-6.4c-0.2-0.7,1.6-1.4,3.8-1.2
	c2.4-1.2,5.1,0.4,5.4-0.7c2.3,1.6,4.2-3.4,6.4-1.4c2.1-3.2,2-1.3,2.9-2c1.7,1.2,3.3,0.5,4-0.5c2.5-0.3,3.9-2.3,3.9-5
	c1.8-1.6,0.3-6,0.6-7.4c2.5-0.9,0.8-1.9-0.8-3c0.8-1.2-0.3-5-0.5-7.7c3.7-3.1,2.5-4.1,2.8-5.2c-1.2-0.5-1.3-2,0.1-3.5
	c1.6,0.3,2.9-1.8,3-2.3c0.9-1.3,0.2-3.4,0.2-7.5c-0.2-1.9,1.3-1.4,2-2.2c1.1-2.2-0.2-3.3,3.6-7.1c0.4-1,0.1-3.4,0.8-3.9
	c1.2-0.8,0.7-2.9,0.7-3.8c0-0.7,0.8-1.3,1.6-2.9c1.9-3.8,2.4-6.1,1.6-7c-1.4-0.4-5.2-2-5.9-3c-0.6-0.3-1.8-0.2-2.1-0.7
	c-0.6-0.9,0-2.5,0-3.8c0-1.3,3.1-3.2,5.2-3.8c1.4-0.4-0.2,0.3,0.7-2c2.8-3.9,0.9-2.8,1.8-4.4l4.6-2.9l0.1-3.2
	c-1.5-5.3-0.3-4.2-0.6-5.7c-0.2-0.9,1.6-8.1,2-5.9c0,0.2,1.6-4.3,2.3-4.6c0.5-0.2,1.9,0.6,2.1-0.4c0.3-2.4,2.3-5.3,3-6
	c0.8-1.2,1.1-2.5,1.1-2.8c0-0.3,1.2-2.6,1.9-4.1s1.2-3.8,1.4-4.6c0.2-1,1,1.5,3.3-0.3c1.4-0.2,1.7-2.2,4.4-4.8
	c1.4,0.9,2-0.9,2.2-1.6c1.2-0.7-0.6-1.8,0.4-2.7c0.7-0.5,1.6-0.4,2.3-0.8c2.7-1.4,3.8-1.9,3.2-5.1c-0.3-1.6-2.9-2.7-1.6-7
	c1-3.4-0.2-7.4,0-8.2c0.3-1.4-3.5-2.4,0.3-3.4l0.2-1.7l3.7-4l2.4-0.6c2.7-3,4.5-0.6,3.8-0.3c1,0.7,2.2,1.8,3.6,3.3
	c0.2,0.4,1.5,1,2.1,2.3c0.7,1.4,1.4,1.8,2.4,1l1.1-1.2c0.1-1,0.1-1.5,0.3-1.9c0-0.1,0.1-0.1,0.1-0.2c0.3-0.6,0.9,0.2,2.5,0
	c0.2,0,0.3,0,0.5-0.1c1.5-0.8,2.9-1.5,4-1.7c0.7-0.1,1.2,0.1,2,0.3c0.1,0,0.3,0,0.4,0c0.2,0,0.3,0,0.5,0c0.2,0,0.4,0,0.6-0.1
	c0.5-0.7,1.1-2,2.6-1.8c1.3-2.5,1.8-0.5,2.2-4.8c0.3-1.4,0.4-2.3,0.3-2.9c0-0.1,0-0.3,0-0.4c-0.2-1.2-1-1.5-1.1-2.8
	c-1.4-2.1-8-7.6-8.3-9.5c0-0.1,0-0.1,0-0.2c0-0.1,0.1-0.2,0.1-0.3c-0.2-0.3-0.3-0.4-0.3-0.6c0,0,0-0.1,0-0.1
	c0.1-0.5,0.9-1.4,2.3-4.9c0.3,0.1,0.6,0.1,0.9,0.1c0.1,0,0.2,0,0.3,0c0.4-0.1,0.7-0.3,1-0.5c0.6-2.7,3-3.4,1.1-5.1
	c-2.6-0.5-2.7-1.7-2.2-3c0.1-0.1,0.1-0.3,0.2-0.5c0.5-0.9,1.1-1.9,1.4-2.7c1.6-1.2,2.4-2.2,2.5-2.9c0-0.1,0-0.2,0-0.3
	c0-0.8-0.8-1.3-2.2-1.7c0.6-1.1,0.2-4.4-3.4-5.6c-0.2-1.1-0.7-1.7-2.3-0.8c-0.1,0.1-0.2,0.1-0.4,0.2c-0.3,0.2-0.6,0.4-0.9,0.6
	c-1.2-0.2-2.4-0.1-2.7-2.3l2-4.8l-0.1-2.4l1.7-1.3l3.3-4.1l-0.1-1.5l-1.8-1.4l-0.9-2.5l-3-2.2l-0.1-2.3l0.6-0.7l0.6-5.9
	c-2.2-3.2-2.7-6.1,1.2-8.2l-0.1-1.3c1.3-1.7,2-3.1,2.2-4.2c0-0.1,0.1-0.3,0.1-0.4c0.2-1.5-0.3-2.6-0.9-3.7c-0.2-0.4-0.4-0.8-0.6-1.2
	c-0.4-0.8-0.7-1.6-0.6-2.6c1.8-5.3,1.3-5.9,0.8-10.4c-0.8-2.6,0.6-4,1-5.9l0-5c-0.4-1.2-0.6-2-0.6-2.6c0-0.1,0-0.2,0-0.3
	c0.1-0.9,0.8-1,1-1.8c0.5-1.2,0.1-2.8,2.4-3.1c2-1.5,1.9-2.2,2.2-3c0-0.1,0.1-0.3,0.1-0.4c0-0.2,0.1-0.3,0.1-0.5
	c0.3-2.1-0.2-4.9,1.4-5.4c0.1,0,0.1,0,0.2-0.1c0.1,0,0.3,0,0.5,0l0-2c0.3-2.8-0.4-6.6,2.7-6.6l-0.6-3.9l-1.3-1.5
	c1.2-0.3,1.5,1.3,4.6-1.5l1.3-4l-0.1-4l-2.9-3.9c-1.3-1.8,0.7-5.3-3.8-5.5c-2.2-0.3-2.4-4.6-6.5-0.8l-5.3-0.1l-2.1-1.2l-1.6-3.3
	c-1.5,5.6-3.9,2.8-3.9,5.6c-1.1-0.3-2.4-1-2.3,1.3l-1,0.9l-1.6,2.2l-2,0.9l-2.4,0.2l-1.2-2.2l0.7-1l-0.2-2.3l-2.6-0.9l-1.2-1
	l-0.2-2.8l0.8-1.4l0.1-2.7l-4.7-2.5l-0.9-2.4l0.7-5.9c-3.3-4.8,1.8-2.9,0.6-6.6c0-0.1-0.1-0.3-0.1-0.4c-4-1.3-3.3-3.1-1.7-5.1
	c-0.8-2.7,0-6.3-3.3-7.7c0.2-0.8-0.4-1.2-0.9-1.7l0.2-2.9c1-1.6,1.8-4.6,4-5.1c3.8-0.9,5.7-3.2,5.1-6.2c-0.6-3.2-0.4-4.4,0.9-5.8
	c1.3-1.4,3-5.6,3.6-8.9c0.5-2.6-1.4-5-5.2-6.4c-2.7-1-3.1-1.6-3.9-5.7c-0.2-0.9-1.9-3-4.3-5c-2.2-1.9-4.2-4.2-4.4-5
	c-0.2-0.9-0.8-2.3-1.4-3.1c-1.4-2.2-2.4-4.3-3-6.4c-0.5-1.6-0.7-3.2-0.7-4.8c0.1-5.6-1-10.7-2.7-12.5c-2.1-2.3-1.1-5.4,2.4-7.6
	c1.2-0.8,1.7-1.6,1.7-2.9c0-1,0.3-2.5,0.6-3.4c0.5-1.2,0.3-2.3-0.6-4.7c-0.7-1.7-1.2-3.9-1.2-4.8c0-2.4-2.6-6.6-5-7.8
	c-1.1-0.6-3-1.5-4.2-2.1c-3.6-1.8-6-3.8-7.2-5.9c-1-1.9-1-2.2-0.1-4c0.7-1.5,1-3.5,0.9-7.7c-0.1-3.2-0.1-6-0.2-6.3
	c0-0.3-1.5-1.6-3.3-3c-1.8-1.3-3.5-2.8-3.8-3.3c-0.7-1.2-4.1-1.7-5.5-1.3c-0.8,0.2-3.1-2.3-4-3.3c-0.9-1,1.2-2.4,2.2-5
	c0.9-2.6-2.6-5.2-1.3-9.9"/>
<circle class="st3" cx="524.5" cy="490.4" r="38.4"/>
<g>
	<g>
		<line class="st4" x1="477.6" y1="574" x2="474.3" y2="572.8"/>
		<line class="st5" x1="468" y1="570.4" x2="383.1" y2="538.1"/>
		<polyline class="st4" points="379.9,536.9 376.6,535.6 377.7,532.2 		"/>
		<line class="st6" x1="379.9" y1="525.3" x2="463.9" y2="267.1"/>
		<line class="st4" x1="465" y1="263.6" x2="466.1" y2="260.2"/>
	</g>
</g>
<line class="st7" x1="488.2" y1="578.1" x2="519.7" y2="501.4"/>
<polyline class="st8" points="734,165.4 626,630.5 488.2,578.1 "/>
<circle cx="376.6" cy="535.6" r="5.5"/>
<circle cx="466.1" cy="260.2" r="5.5"/>
<circle cx="734.7" cy="163.2" r="5.5"/>
<circle cx="626" cy="630.5" r="5.5"/>
<path class="st9" d="M922,381h-122c-1.2,0-2.2-1-2.2-2.2V350h124.8c4.2,0,7.6,3.4,7.6,7.6v15.2C930.2,377.3,926.5,381,922,381z"/>
<path class="st10" d="M874.8,350h-77v-3.3c0-2,1.6-3.7,3.7-3.7h62.4c3,0,5.9,1.3,7.9,3.6L874.8,350z"/>
<text transform="matrix(1 0 0 1 812.1367 371.6457)" class="st11 st12 st13">5.500 mts</text>
<path class="st9" d="M315.5,619.6h-126c-0.1,0-0.2-0.1-0.2-0.2v-30.9h126.8c3.1,0,5.6,2.5,5.6,5.6v19.2
	C321.7,616.8,318.9,619.6,315.5,619.6z"/>
<path class="st10" d="M266.3,588.6h-77v-3.3c0-2,1.6-3.7,3.7-3.7h62.4c3,0,5.9,1.3,7.9,3.6L266.3,588.6z"/>
<text transform="matrix(1 0 0 1 203.6514 610.2462)" class="st11 st12 st13">3.500 mts</text>
<text transform="matrix(1 0 0 1 855.6016 596.9728)" class="st14 st12 st13">Ruta alternativa</text>
<text transform="matrix(1 0 0 1 855.6016 624.7638)" class="st14 st12 st13">Ruta esperada</text>
<text transform="matrix(1 0 0 1 855.6016 652.338)" class="st14 st12 st13">Desvío</text>
<text transform="matrix(1 0 0 1 855.6016 679.9777)" class="st14 st12 st13">Zona del accidente</text>
<line class="st15" x1="688.4" y1="362" x2="797.8" y2="365.5"/>
<g>
	<circle class="st16" cx="524.5" cy="490.4" r="38.4"/>
</g>
<line class="st8" x1="807.6" y1="590.4" x2="842.6" y2="590.4"/>
<line class="st17" x1="807.6" y1="617.5" x2="842.6" y2="617.5"/>
<line class="st7" x1="807.6" y1="645.7" x2="842.6" y2="645.7"/>
<rect x="592.1" y="603.4" class="st14" width="69.5" height="18.6"/>
<text transform="matrix(1 0 0 1 594.1816 618.3566)" class="st18 st12 st19">Malargüe</text>
<rect x="351.9" y="507.8" class="st14" width="48.6" height="18.6"/>
<text transform="matrix(1 0 0 1 353.3145 522.7775)" class="st18 st12 st19">Curicó</text>
<rect x="425.4" y="229.1" class="st14" width="86.5" height="24.8"/>
<text transform="matrix(1 0 0 1 429.9756 247.7521)" class="st18 st12 st20">Santiago</text>
<rect x="690.8" y="131.3" class="st14" width="86.5" height="24.8"/>
<text transform="matrix(1 0 0 1 694.2471 150.0197)" class="st18 st12 st20">Mendoza</text>
<image style="overflow:visible;" width="1049" height="348" xlink:href="4628B4EE4273A5AF.png"  transform="matrix(1.0037 0 0 1.0037 27.132 725.3839)">
</image>
<line class="st15" x1="430" y1="942.9" x2="430" y2="824.7"/>
<line class="st15" x1="269.8" y1="909.6" x2="269.8" y2="797.3"/>
<line class="st21" x1="777.7" y1="909.6" x2="777.7" y2="823.2"/>
<path class="st9" d="M413.6,808.7H264.5c-2,0-3.6-1.6-3.6-3.6v-27.4h153.3c5,0,9.1,4.1,9.1,9.1V799
	C423.2,804.4,418.9,808.7,413.6,808.7z"/>
<path class="st10" d="M337.9,777.6h-77v-10.3c0-2,1.6-3.7,3.7-3.7H327c3,0,5.9,1.3,7.9,3.6L337.9,777.6z"/>
<text transform="matrix(1 0 0 1 272.3486 797.4962)" class="st11 st12 st22">Choque Ala Derecha</text>
<text transform="matrix(1 0 0 1 167.9561 883.7882)" class="st23 st12 st24">Chile</text>
<text transform="matrix(1 0 0 1 842.585 1044.257)" class="st25 st12 st26">Argentina</text>
<text transform="matrix(1 0 0 1 269.8213 775.0978)" class="st11 st12 st27">4.400 mts.</text>
<path class="st9" d="M520.6,861.3h-97.2c-2,0-3.6-1.6-3.6-3.6v-27.4h101.4c5,0,9.1,4.1,9.1,9.1v12.3
	C530.2,857,525.9,861.3,520.6,861.3z"/>
<path class="st10" d="M496.7,830.2h-77v-10.3c0-2,1.6-3.7,3.7-3.7h62.4c3,0,5.9,1.3,7.9,3.6L496.7,830.2z"/>
<text transform="matrix(1 0 0 1 426.8491 850.1193)" class="st11 st12 st22">Caída fuselaje</text>
<text transform="matrix(1 0 0 1 428.6572 827.7208)" class="st11 st12 st27">3.570 mts.</text>
<path class="st10" d="M836.6,824.7h-60.6V809h63.4c1.7,0,3.1,1.4,3.1,3.1v6.6C842.6,822,839.9,824.7,836.6,824.7z"/>
<text transform="matrix(1 0 0 1 785.6182 821.1954)" class="st11 st12 st27">4.330 mts.</text>
<line class="st21" x1="541" y1="888.8" x2="541" y2="802.5"/>
<path class="st10" d="M598,803.9h-58.7v-15.7h64.2c1.3,0,2.3,1,2.3,2.3v5.5C605.8,800.4,602.3,803.9,598,803.9z"/>
<text transform="matrix(1 0 0 1 548.8311 800.4572)" class="st11 st12 st27">4.650 mts.</text>
<text transform="matrix(1 0 0 1 540.2393 786.1417)" class="st10 st12 st27">Cerro Seler</text>
<line class="st15" x1="321.7" y1="603.4" x2="485.2" y2="573.4"/>
<path class="st28" d="M520.2,579.8l-5.4,8.6l-1.7,10l-1.3-2.2l-0.9-8.1l-4.4-0.2l-14.3-5.5l-3.1,20.2l-0.1,2.2l-2-2.5l-0.2-1.9
	l-0.2-2.6l-0.3-3.2l-0.4-4.1l-0.2-2.7c-0.3,0-0.5,0-0.8-0.1l-1.8-0.7c-0.8-0.3-1.3-1.2-0.9-2.1c0.3-0.8,1.3-1.2,2.1-0.9l1.1,0.4
	l-0.4-4.8l-12.1-4.7c-4.8-2.6-4.6-4.5-4.6-4.5s1.2-1.5,6.4-0.2l12.1,4.7l3.5-3.3l-1.1-0.4c-0.8-0.3-1.3-1.2-0.9-2.1
	c0.3-0.8,1.3-1.3,2.1-0.9l1.8,0.7c0.3,0.1,0.5,0.3,0.7,0.5l5-4.7l2.3-2.2l1.3-1.2l2-1.9l3.1-0.6l-1.4,1.8l-11.2,17.2l14.3,5.5
	l3.4,2.8l6-5.4L520.2,579.8z"/>
<polygon class="st28" points="486.7,600.4 486.7,600.4 486.5,597.9 "/>
<path class="st14" d="M231.5,903.1c0-0.4,0-0.7,0-1.1c0,0,0,0,0,0C231.4,902.4,231.4,902.8,231.5,903.1z"/>
<path class="st14" d="M261.3,889.9l-1.5-4.3l-2.5-2l0.4,2.2l1.8,20.4l-15.2-1.9l-4.3,0.8l-2.8-7.6l-1.8-1.8l0.7,10.1l-3.1,9.6
	l2.2-1.3l4.6-6.7l4,1.9l15.2,1.9l0,0.1c0.5-0.1,0.9,0,1.4,0.4c0-0.4,0.1-0.7,0.1-1.1c1.4,0.5,3.5,0.8,4.1,2.3c0.4-0.3-0.2-1.1,0.5-1
	c0.2-0.5,0.5-1,0.5-1.4c-0.1,0.7,0.5,1.2,0.9,1.7l0.1-0.1l12.9,1.6c5.4,0,6.2-1.8,6.2-1.8s-0.3-1.9-5.6-3.2l-12.9-1.6l-1.6-4.6
	l1.2,0.1c0.9,0.1,1.7-0.5,1.8-1.4c0.1-0.9-0.5-1.7-1.4-1.8l-1.9-0.2c-0.3,0-0.6,0-0.8,0.1l-2.2-6.5"/>
<path class="st14" d="M248.2,931.4l1.6-6.7c0.3,0.1,0.5,0.1,0.8,0l1.8-0.4c0.9-0.2,1.4-1.1,1.2-1.9c-0.2-0.9-1.1-1.4-1.9-1.2
	l-1.2,0.3l1.1-4.6c-0.6-0.4-1.3-0.6-1.5-1.3c0.1,0.4,0,1,0,1.5c0,0,0,0,0,0c0.1,0.4,0.2,0.7,0.2,1.1c-0.2-0.3-0.3-0.7-0.2-1.1
	c-0.7,0.2,0.2,0.7-0.1,1.1c-1-1.3-3.1-0.8-4.6-0.8c0.1,0.4,0.2,0.7,0.2,1.1c-0.6-0.2-1.1-0.1-1.5,0.1l0.1,20.4l-0.2,2.2l2.3-2.2
	l1.1-4.4"/>
<path class="st29" d="M435.2,955c0,0-1.2,1.5-6.4,0.1l-12-5l-3.6,3.2l1.1,0.5c0.8,0.3,1.2,1.3,0.9,2.1c-0.3,0.8-1.3,1.2-2.1,0.9
	l-1.8-0.7c-0.3-0.1-0.5-0.3-0.7-0.5l-5.1,4.6l-2.4,2.1l-3.4,3l-3.2,0.5l1.5-1.7l11.6-16.9l-14.2-5.8l-3.4-2.9l-6.2,5.3l-2.5,0.7
	l5.6-8.4l2-9.9l1.3,2.2l0.7,8.1l4.4,0.3l14.2,5.9l3.7-20.1l0.2-2.2l1.9,2.6l0.3,4.5l0.2,3.2l0,0.2l0.4,6.7c0.3,0,0.6,0,0.8,0.1
	l1.7,0.7c0.8,0.3,1.2,1.3,0.9,2.1c-0.3,0.8-1.3,1.2-2.1,0.9l-1.1-0.5l0.3,4.8l12,5C435.4,953.1,435.2,955,435.2,955z"/>
<path class="st30" d="M262.3,893l2.2,6.5c0.2-0.1,0.5-0.1,0.8-0.1l1.9,0.2c0.9,0.1,1.5,0.9,1.4,1.8c-0.1,0.9-0.9,1.5-1.8,1.4
	l-1.2-0.2l1.5,4.6l12.9,1.7c5.2,1.4,5.5,3.2,5.5,3.2s-0.8,1.8-6.2,1.8l-12.9-1.7l-2.7,4.1l1.2,0.2c0.9,0.1,1.5,0.9,1.4,1.8
	c-0.1,0.9-0.9,1.5-1.8,1.4l-1.9-0.2c-0.3,0-0.6-0.1-0.8-0.3l-5.5,8.4l-2.5,3.8l-2.9,1.3l1-2.1l6.8-19.3l-15.2-1.9l-4-1.9l-4.6,6.7
	l-2.2,1.3l3.2-9.6l-0.7-10.1l1.8,1.8l2.8,7.6l4.3-0.8l15.2,2l-1.7-20.4l-0.4-2.2l2.5,2l1.4,4.3"/>
<path class="st14" d="M430.9,949.9l-12-5l0-1.2c-0.1,0-0.1,0-0.2,0.1c-0.3,0.5-0.7,0.7-1.1,0.9c-1,0.6-1,1.5-0.9,2.4
	c0.8,0.9,1.1,2.2,0.5,3.5l11.4,4.7c5.3,1.3,6.6-0.4,6.6-0.4S435.5,952.7,430.9,949.9z"/>
<circle class="st10" cx="1009.5" cy="1035.5" r="15.4"/>
<polygon class="st11" points="1000.5,1038.1 1008.6,1032.1 1010.4,1039 "/>
<polygon class="st9" points="1019.1,1032.6 1010.4,1039 1008.6,1032.1 "/>
<circle class="st10" cx="1009.5" cy="1035.5" r="0.9"/>
<polyline class="st8" points="45.9,932.6 81.1,922.6 203.7,908.2 239.6,907.4 "/>
<path class="st28" d="M130.8,917.7c0,0-0.4,1.9-5.6,3.1l-13,1.3l-1.7,4.5l1.2-0.1c0.9-0.1,1.7,0.6,1.8,1.5c0.1,0.9-0.6,1.7-1.4,1.8
	l-1.9,0.2c-0.3,0-0.6,0-0.8-0.1l-2.4,6.4l-1.1,3l-1.6,4.2l-2.6,1.9l0.5-2.2l2.3-20.3l-15.2,1.5l-4.3-1l-3,7.6l-1.9,1.8l1-10.1
	l-2.9-9.7l2.2,1.3l4.4,6.8l4-1.8l15.2-1.5l-6.2-19.5l-0.9-2.1l2.9,1.4l2,3.3l0.3,0.5l1.7,2.7l1,1.7h0l2.6,4.2
	c0.2-0.2,0.5-0.3,0.8-0.3l1.9-0.2c0.9-0.1,1.7,0.6,1.8,1.5c0.1,0.9-0.6,1.7-1.5,1.8l-1.2,0.1l2.5,4.1l12.9-1.3
	C130,915.9,130.8,917.7,130.8,917.7z"/>
<rect x="807.6" y="665.7" class="st31" width="35" height="16.4"/>
<rect x="807.6" y="665.7" class="st7" width="35" height="16.4"/>
<path class="st32" d="M519.2,528.4l-8.6-5.4l-10-1.7l2.2-1.3l8.1-0.9l0.2-4.4l5.5-14.3l-20.2-3.1l-2.2-0.1l2.5-2l1.9-0.2l2.6-0.2
	l3.2-0.3l4.1-0.4l2.7-0.2c0-0.3,0-0.5,0.1-0.8l0.7-1.8c0.3-0.8,1.2-1.3,2.1-0.9c0.8,0.3,1.2,1.3,0.9,2.1l-0.4,1.1l4.8-0.4L524,481
	c2.6-4.8,4.5-4.6,4.5-4.6s1.5,1.2,0.2,6.4l-4.7,12.1l3.3,3.5l0.4-1.1c0.3-0.8,1.2-1.3,2.1-0.9c0.8,0.3,1.3,1.3,0.9,2.1l-0.7,1.8
	c-0.1,0.3-0.3,0.5-0.5,0.7l4.7,5l2.2,2.3l1.2,1.3l1.9,2l0.6,3.1l-1.8-1.4l-17.2-11.2l-5.5,14.3l-2.8,3.4l5.4,6L519.2,528.4z"/>
<path class="st28" d="M693.4,294.1l9.3,3.9l10.1,0.1l-1.9,1.7l-7.8,2.2l0.5,4.4l-3.1,15l20.5-0.1l2.2-0.2l-2.2,2.3l-1.9,0.5
	l-2.5,0.6l-3.1,0.8l-4,1l-2.6,0.7c0.1,0.3,0.1,0.5,0,0.8l-0.4,1.8c-0.2,0.9-1,1.4-1.9,1.3c-0.9-0.2-1.4-1-1.3-1.9l0.3-1.2l-4.7,1.2
	l-2.7,12.7c-1.8,5.1-3.7,5.3-3.7,5.3s-1.7-0.9-1.3-6.3l2.7-12.7l-3.8-3l-0.2,1.2c-0.2,0.9-1,1.4-1.9,1.3c-0.9-0.2-1.4-1-1.3-1.9
	l0.4-1.8c0.1-0.3,0.2-0.5,0.4-0.7l-5.4-4.2l-2.5-1.9l-1.4-1.1l-2.2-1.7l-1.1-3l2,1.1l18.7,8.3l3.1-15l2.2-3.8l-6.3-5.1L693.4,294.1z
	"/>
<path class="st33" d="M1336.7,103h-23.9c-4.5,0-8.2-3.7-8.2-8.2V70.9c0-4.5,3.7-8.2,8.2-8.2h23.9c4.5,0,8.2,3.7,8.2,8.2v23.9
	C1344.9,99.3,1341.2,103,1336.7,103z"/>
<path class="st1" d="M1812.9,103H1789c-4.5,0-8.2-3.7-8.2-8.2V70.9c0-4.5,3.7-8.2,8.2-8.2h23.9c4.5,0,8.2,3.7,8.2,8.2v23.9
	C1821.1,99.3,1817.5,103,1812.9,103z"/>
<path class="st9" d="M2045.5,253.2h-296.8c-9.7,0-17.5-7.8-17.5-17.5v-33.2h315.2c8.2,0,14.9,6.7,14.9,14.9v20.1
	C2061.2,246.1,2054.2,253.2,2045.5,253.2z"/>
<path class="st9" d="M2045.5,432.4h-296.8c-9.7,0-17.5-7.8-17.5-17.5v-33.2h315.2c8.2,0,14.9,6.7,14.9,14.9v20.1
	C2061.2,425.3,2054.2,432.4,2045.5,432.4z"/>
<path class="st9" d="M2045.5,592.2h-296.8c-9.7,0-17.5-7.8-17.5-17.5v-33.2h315.2c8.2,0,14.9,6.7,14.9,14.9v20.1
	C2061.2,585.2,2054.2,592.2,2045.5,592.2z"/>
<path class="st9" d="M2045.5,752h-296.8c-9.7,0-17.5-7.8-17.5-17.5v-33.2h315.2c8.2,0,14.9,6.7,14.9,14.9v20.1
	C2061.2,745,2054.2,752,2045.5,752z"/>
<path class="st9" d="M2045.5,910.9h-296.8c-9.7,0-17.5-7.8-17.5-17.5v-33.2h315.2c8.2,0,14.9,6.7,14.9,14.9v20.1
	C2061.2,903.8,2054.2,910.9,2045.5,910.9z"/>
<path class="st9" d="M2045.5,1070.7h-296.8c-9.7,0-17.5-7.8-17.5-17.5V1020h315.2c8.2,0,14.9,6.7,14.9,14.9v20.1
	C2061.2,1063.7,2054.2,1070.7,2045.5,1070.7z"/>
<path class="st9" d="M2045.5,1227h-296.8c-9.7,0-17.5-7.8-17.5-17.5v-33.2h315.2c8.2,0,14.9,6.7,14.9,14.9v20.1
	C2061.2,1219.9,2054.2,1227,2045.5,1227z"/>
<path class="st9" d="M2045.5,1389.4h-296.8c-9.7,0-17.5-7.8-17.5-17.5v-33.2h315.2c8.2,0,14.9,6.7,14.9,14.9v20.1
	C2061.2,1382.4,2054.2,1389.4,2045.5,1389.4z"/>
<path class="st9" d="M2045.5,1548.3h-296.8c-9.7,0-17.5-7.8-17.5-17.5v-33.2h315.2c8.2,0,14.9,6.7,14.9,14.9v20.1
	C2061.2,1541.3,2054.2,1548.3,2045.5,1548.3z"/>
<path class="st9" d="M2045.5,1716.8h-296.8c-9.7,0-17.5-7.8-17.5-17.5v-33.2h315.2c8.2,0,14.9,6.7,14.9,14.9v20.1
	C2061.2,1709.8,2054.2,1716.8,2045.5,1716.8z"/>
<path class="st10" d="M1891.2,201.7h-160.1v-21.4c0-4.2,3.4-7.7,7.7-7.7h129.7c6.3,0,12.2,2.7,16.4,7.4L1891.2,201.7z"/>
<text transform="matrix(1 0 0 1 1754.6436 234.9096)" class="st11 st12" style="font-size:27.4526px;">Salida desde Uruguay</text>
<text transform="matrix(1 0 0 1 1361.2682 92.6867)" class="st12" style="font-size:27.4526px;">Muerte</text>
<path class="st34" d="M1529.4,103h-23.9c-4.5,0-8.2-3.7-8.2-8.2V70.9c0-4.5,3.7-8.2,8.2-8.2h23.9c4.5,0,8.2,3.7,8.2,8.2v23.9
	C1537.6,99.3,1533.9,103,1529.4,103z"/>
<text transform="matrix(1 0 0 1 1553.9238 92.6867)" class="st12" style="font-size:27.4526px;">Cuerpo hallado</text>
<text transform="matrix(1 0 0 1 1841.5875 92.6867)" class="st12" style="font-size:27.4526px;">Sobrevivientes</text>
<text transform="matrix(1 0 0 1 1749.7803 196.4555)"><tspan x="0" y="0" class="st11 st12" style="font-size:24.9005px;">Día 0  </tspan><tspan x="63.2" y="0" class="st11" style="font-family:'FiraSansCondensed-Light'; font-size:24.9005px;">12/10</tspan></text>
<path class="st10" d="M1891.2,381.7h-160.1v-21.4c0-4.2,3.4-7.7,7.7-7.7h129.7c6.3,0,12.2,2.7,16.4,7.4L1891.2,381.7z"/>
<text transform="matrix(1 0 0 1 1754.6436 414.956)" class="st11 st12" style="font-size:27.4526px;">Se estrella el avión</text>
<text transform="matrix(1 0 0 1 1749.7803 376.5019)"><tspan x="0" y="0" class="st11 st12" style="font-size:24.9005px;">Día 1  </tspan><tspan x="60.1" y="0" class="st11" style="font-family:'FiraSansCondensed-Light'; font-size:24.9005px;">13/10</tspan></text>
<path class="st10" d="M1891.2,541.5h-160.1V520c0-4.2,3.4-7.7,7.7-7.7h129.7c6.3,0,12.2,2.7,16.4,7.4L1891.2,541.5z"/>
<text transform="matrix(1 0 0 1 1754.6436 574.706)" class="st11 st12" style="font-size:27.4526px;">Muertes</text>
<text transform="matrix(1 0 0 1 1749.7803 536.2519)"><tspan x="0" y="0" class="st11 st12" style="font-size:24.9005px;">Día 2  </tspan><tspan x="61.2" y="0" class="st11" style="font-family:'FiraSansCondensed-Light'; font-size:24.9005px;">14/10</tspan></text>
<path class="st10" d="M1891.2,700.6h-160.1v-21.4c0-4.2,3.4-7.7,7.7-7.7h129.7c6.3,0,12.2,2.7,16.4,7.4L1891.2,700.6z"/>
<text transform="matrix(1 0 0 1 1754.6436 733.8603)" class="st11 st12" style="font-size:27.4526px;">Hallan cadáveres</text>
<text transform="matrix(1 0 0 1 1749.7803 695.4052)"><tspan x="0" y="0" class="st11 st12" style="font-size:24.9005px;">Día 12  </tspan><tspan x="71.4" y="0" class="st11" style="font-family:'FiraSansCondensed-Light'; font-size:24.9005px;">24/10</tspan></text>
<path class="st10" d="M1891.2,859.5h-160.1v-21.4c0-4.2,3.4-7.7,7.7-7.7h129.7c6.3,0,12.2,2.7,16.4,7.4L1891.2,859.5z"/>
<text transform="matrix(1 0 0 1 1754.6436 892.7372)" class="st11 st12" style="font-size:27.4526px;">Avalancha de nieve</text>
<text transform="matrix(1 0 0 1 1749.7803 854.2822)"><tspan x="0" y="0" class="st11 st12" style="font-size:24.9005px;">Día 17  </tspan><tspan x="70.4" y="0" class="st11" style="font-family:'FiraSansCondensed-Light'; font-size:24.9005px;">29/10</tspan></text>
<path class="st10" d="M1891.2,1019.9h-160.1v-21.4c0-4.2,3.4-7.7,7.7-7.7h129.7c6.3,0,12.2,2.7,16.4,7.4L1891.2,1019.9z"/>
<text transform="matrix(1 0 0 1 1754.6436 1053.0702)" class="st11 st12" style="font-size:27.4526px;">Muerte</text>
<text transform="matrix(1 0 0 1 1749.7803 1014.6161)"><tspan x="0" y="0" class="st11 st12" style="font-size:24.9005px;">Día 34  </tspan><tspan x="73.9" y="0" class="st11" style="font-family:'FiraSansCondensed-Light'; font-size:24.9005px;">15/11</tspan></text>
<path class="st10" d="M1891.2,1175.3h-160.1v-21.4c0-4.2,3.4-7.7,7.7-7.7h129.7c6.3,0,12.2,2.7,16.4,7.4L1891.2,1175.3z"/>
<text transform="matrix(1 0 0 1 1754.6436 1208.4823)" class="st11 st12" style="font-size:27.4526px;">Muerte</text>
<text transform="matrix(1 0 0 1 1749.7803 1170.0272)"><tspan x="0" y="0" class="st11 st12" style="font-size:24.9005px;">Día 37  </tspan><tspan x="71.8" y="0" class="st11" style="font-family:'FiraSansCondensed-Light'; font-size:24.9005px;">18/11</tspan></text>
<path class="st10" d="M1891.2,1338.7h-160.1v-21.4c0-4.2,3.4-7.7,7.7-7.7h129.7c6.3,0,12.2,2.7,16.4,7.4L1891.2,1338.7z"/>
<text transform="matrix(1 0 0 1 1754.6436 1371.9608)" class="st11 st12" style="font-size:27.4526px;">Muerte</text>
<text transform="matrix(1 0 0 1 1749.7803 1333.5067)"><tspan x="0" y="0" class="st11 st12" style="font-size:24.9005px;">Día 60  </tspan><tspan x="75.9" y="0" class="st11" style="font-family:'FiraSansCondensed-Light'; font-size:24.9005px;">11/12</tspan></text>
<line class="st35" x1="1195.9" y1="242.8" x2="1731.2" y2="242.8"/>
<g>
	<path class="st33" d="M1295,372.1c2.7,0,4.9-2.1,5.1-4.8c0.3-4.4,0.4-8.5,0.4-12.2c0-19.3-3.1-30-7.3-36.4
		c-2.1-3.2-4.6-5.2-6.8-6.4c-2.1-1.1-4-1.3-5.2-1.4c-0.1,0-0.2,0-0.3,0h-24.7c-0.1,0-0.2,0-0.3,0c-1.2,0-3,0.3-5.2,1.4
		c-3.4,1.7-7.1,5.4-9.7,12c-2.6,6.6-4.4,16.2-4.4,30.7c0,3.7,0.1,7.8,0.4,12.3c0.2,2.7,2.4,4.8,5.1,4.8c0.1,0,0.2,0,0.3,0
		c2.8-0.2,5-2.6,4.8-5.4c-0.3-4.3-0.4-8.1-0.4-11.6c0-15.5,2.2-24.2,4.5-28.7v80.8c0,4.4,3.5,7.9,7.9,7.9c4.4,0,7.9-3.5,7.9-7.9
		v-42.6h3v42.6c0,4.4,3.5,7.9,7.9,7.9c4.4,0,7.9-3.5,7.9-7.9l0-80.8c0.4,0.8,0.8,1.7,1.1,2.7c1.8,5,3.3,13.2,3.3,26
		c0,3.5-0.1,7.4-0.4,11.7c-0.2,2.8,2,5.2,4.8,5.4C1294.8,372.1,1294.9,372.1,1295,372.1L1295,372.1z"/>
	<path class="st33" d="M1282.9,292.9c0,7.9-6.4,14.4-14.4,14.4c-7.9,0-14.4-6.4-14.4-14.4c0-7.9,6.4-14.4,14.4-14.4
		C1276.5,278.5,1282.9,285,1282.9,292.9"/>
</g>
<g>
	<path class="st33" d="M1383.9,372.1c2.7,0,4.9-2.1,5.1-4.8c0.3-4.4,0.4-8.5,0.4-12.2c0-19.3-3.1-30-7.3-36.4
		c-2.1-3.2-4.6-5.2-6.8-6.4c-2.1-1.1-4-1.3-5.2-1.4c-0.1,0-0.2,0-0.3,0H1345c-0.1,0-0.2,0-0.3,0c-1.2,0-3,0.3-5.2,1.4
		c-3.4,1.7-7.1,5.4-9.7,12c-2.6,6.6-4.4,16.2-4.4,30.7c0,3.7,0.1,7.8,0.4,12.3c0.2,2.7,2.4,4.8,5.1,4.8c0.1,0,0.2,0,0.3,0
		c2.8-0.2,5-2.6,4.8-5.4c-0.3-4.3-0.4-8.1-0.4-11.6c0-15.5,2.2-24.2,4.5-28.7v80.8c0,4.4,3.5,7.9,7.9,7.9c4.4,0,7.9-3.5,7.9-7.9
		v-42.6h3v42.6c0,4.4,3.5,7.9,7.9,7.9c4.4,0,7.9-3.5,7.9-7.9l0-80.8c0.4,0.8,0.8,1.7,1.1,2.7c1.8,5,3.3,13.2,3.3,26
		c0,3.5-0.1,7.4-0.4,11.7c-0.2,2.8,2,5.2,4.8,5.4C1383.7,372.1,1383.8,372.1,1383.9,372.1L1383.9,372.1z"/>
	<path class="st33" d="M1371.8,292.9c0,7.9-6.4,14.4-14.4,14.4c-7.9,0-14.4-6.4-14.4-14.4c0-7.9,6.4-14.4,14.4-14.4
		C1365.3,278.5,1371.8,285,1371.8,292.9"/>
</g>
<g>
	<path class="st33" d="M1472.8,372.1c2.7,0,4.9-2.1,5.1-4.8c0.3-4.4,0.4-8.5,0.4-12.2c0-19.3-3.1-30-7.3-36.4
		c-2.1-3.2-4.6-5.2-6.8-6.4c-2.1-1.1-4-1.3-5.2-1.4c-0.1,0-0.2,0-0.3,0h-24.7c-0.1,0-0.2,0-0.3,0c-1.2,0-3,0.3-5.2,1.4
		c-3.4,1.7-7.1,5.4-9.7,12c-2.6,6.6-4.4,16.2-4.4,30.7c0,3.7,0.1,7.8,0.4,12.3c0.2,2.7,2.4,4.8,5.1,4.8c0.1,0,0.2,0,0.3,0
		c2.8-0.2,5-2.6,4.8-5.4c-0.3-4.3-0.4-8.1-0.4-11.6c0-15.5,2.2-24.2,4.5-28.7v80.8c0,4.4,3.5,7.9,7.9,7.9c4.4,0,7.9-3.5,7.9-7.9
		v-42.6h3v42.6c0,4.4,3.5,7.9,7.9,7.9c4.4,0,7.9-3.5,7.9-7.9l0-80.8c0.4,0.8,0.8,1.7,1.1,2.7c1.8,5,3.3,13.2,3.3,26
		c0,3.5-0.1,7.4-0.4,11.7c-0.2,2.8,2,5.2,4.8,5.4C1472.6,372.1,1472.7,372.1,1472.8,372.1L1472.8,372.1z"/>
	<path class="st33" d="M1460.7,292.9c0,7.9-6.4,14.4-14.4,14.4c-7.9,0-14.4-6.4-14.4-14.4c0-7.9,6.4-14.4,14.4-14.4
		C1454.2,278.5,1460.7,285,1460.7,292.9"/>
</g>
<g>
	<path class="st33" d="M1561.6,372.1c2.7,0,4.9-2.1,5.1-4.8c0.3-4.4,0.4-8.5,0.4-12.2c0-19.3-3.1-30-7.3-36.4
		c-2.1-3.2-4.6-5.2-6.8-6.4c-2.1-1.1-4-1.3-5.2-1.4c-0.1,0-0.2,0-0.3,0h-24.7c-0.1,0-0.2,0-0.3,0c-1.2,0-3,0.3-5.2,1.4
		c-3.4,1.7-7.1,5.4-9.7,12c-2.6,6.6-4.4,16.2-4.4,30.7c0,3.7,0.1,7.8,0.4,12.3c0.2,2.7,2.4,4.8,5.1,4.8c0.1,0,0.2,0,0.3,0
		c2.8-0.2,5-2.6,4.8-5.4c-0.3-4.3-0.4-8.1-0.4-11.6c0-15.5,2.2-24.2,4.5-28.7v80.8c0,4.4,3.5,7.9,7.9,7.9c4.4,0,7.9-3.5,7.9-7.9
		v-42.6h3v42.6c0,4.4,3.5,7.9,7.9,7.9c4.4,0,7.9-3.5,7.9-7.9l0-80.8c0.4,0.8,0.8,1.7,1.1,2.7c1.8,5,3.3,13.2,3.3,26
		c0,3.5-0.1,7.4-0.4,11.7c-0.2,2.8,2,5.2,4.8,5.4C1561.4,372.1,1561.5,372.1,1561.6,372.1L1561.6,372.1z"/>
	<path class="st33" d="M1549.5,292.9c0,7.9-6.4,14.4-14.4,14.4c-7.9,0-14.4-6.4-14.4-14.4c0-7.9,6.4-14.4,14.4-14.4
		C1543.1,278.5,1549.5,285,1549.5,292.9"/>
</g>
<g>
	<path class="st33" d="M1650.5,372.1c2.7,0,4.9-2.1,5.1-4.8c0.3-4.4,0.4-8.5,0.4-12.2c0-19.3-3.1-30-7.3-36.4
		c-2.1-3.2-4.6-5.2-6.8-6.4c-2.1-1.1-4-1.3-5.2-1.4c-0.1,0-0.2,0-0.3,0h-24.7c-0.1,0-0.2,0-0.3,0c-1.2,0-3,0.3-5.2,1.4
		c-3.4,1.7-7.1,5.4-9.7,12c-2.6,6.6-4.4,16.2-4.4,30.7c0,3.7,0.1,7.8,0.4,12.3c0.2,2.7,2.4,4.8,5.1,4.8c0.1,0,0.2,0,0.3,0
		c2.8-0.2,5-2.6,4.8-5.4c-0.3-4.3-0.4-8.1-0.4-11.6c0-15.5,2.2-24.2,4.5-28.7v80.8c0,4.4,3.5,7.9,7.9,7.9c4.4,0,7.9-3.5,7.9-7.9
		v-42.6h3v42.6c0,4.4,3.5,7.9,7.9,7.9c4.4,0,7.9-3.5,7.9-7.9l0-80.8c0.4,0.8,0.8,1.7,1.1,2.7c1.8,5,3.3,13.2,3.3,26
		c0,3.5-0.1,7.4-0.4,11.7c-0.2,2.8,2,5.2,4.8,5.4C1650.3,372.1,1650.4,372.1,1650.5,372.1L1650.5,372.1z"/>
	<path class="st33" d="M1638.4,292.9c0,7.9-6.4,14.4-14.4,14.4c-7.9,0-14.4-6.4-14.4-14.4c0-7.9,6.4-14.4,14.4-14.4
		C1632,278.5,1638.4,285,1638.4,292.9"/>
</g>
<g>
	<path class="st33" d="M1295,531.9c2.7,0,4.9-2.1,5.1-4.8c0.3-4.4,0.4-8.5,0.4-12.2c0-19.3-3.1-30-7.3-36.4
		c-2.1-3.2-4.6-5.2-6.8-6.4c-2.1-1.1-4-1.3-5.2-1.4c-0.1,0-0.2,0-0.3,0h-24.7c-0.1,0-0.2,0-0.3,0c-1.2,0-3,0.3-5.2,1.4
		c-3.4,1.7-7.1,5.4-9.7,12c-2.6,6.6-4.4,16.2-4.4,30.7c0,3.7,0.1,7.8,0.4,12.3c0.2,2.7,2.4,4.8,5.1,4.8c0.1,0,0.2,0,0.3,0
		c2.8-0.2,5-2.6,4.8-5.4c-0.3-4.3-0.4-8.1-0.4-11.6c0-15.5,2.2-24.2,4.5-28.7v80.8c0,4.4,3.5,7.9,7.9,7.9c4.4,0,7.9-3.5,7.9-7.9
		v-42.6h3v42.6c0,4.4,3.5,7.9,7.9,7.9c4.4,0,7.9-3.5,7.9-7.9l0-80.8c0.4,0.8,0.8,1.7,1.1,2.7c1.8,5,3.3,13.2,3.3,26
		c0,3.5-0.1,7.4-0.4,11.7c-0.2,2.8,2,5.2,4.8,5.4C1294.8,531.9,1294.9,531.9,1295,531.9L1295,531.9z"/>
	<path class="st33" d="M1282.9,452.6c0,7.9-6.4,14.4-14.4,14.4c-7.9,0-14.4-6.4-14.4-14.4c0-7.9,6.4-14.4,14.4-14.4
		C1276.5,438.3,1282.9,444.7,1282.9,452.6"/>
</g>
<g>
	<path class="st33" d="M1383.9,531.9c2.7,0,4.9-2.1,5.1-4.8c0.3-4.4,0.4-8.5,0.4-12.2c0-19.3-3.1-30-7.3-36.4
		c-2.1-3.2-4.6-5.2-6.8-6.4c-2.1-1.1-4-1.3-5.2-1.4c-0.1,0-0.2,0-0.3,0H1345c-0.1,0-0.2,0-0.3,0c-1.2,0-3,0.3-5.2,1.4
		c-3.4,1.7-7.1,5.4-9.7,12c-2.6,6.6-4.4,16.2-4.4,30.7c0,3.7,0.1,7.8,0.4,12.3c0.2,2.7,2.4,4.8,5.1,4.8c0.1,0,0.2,0,0.3,0
		c2.8-0.2,5-2.6,4.8-5.4c-0.3-4.3-0.4-8.1-0.4-11.6c0-15.5,2.2-24.2,4.5-28.7v80.8c0,4.4,3.5,7.9,7.9,7.9c4.4,0,7.9-3.5,7.9-7.9
		v-42.6h3v42.6c0,4.4,3.5,7.9,7.9,7.9c4.4,0,7.9-3.5,7.9-7.9l0-80.8c0.4,0.8,0.8,1.7,1.1,2.7c1.8,5,3.3,13.2,3.3,26
		c0,3.5-0.1,7.4-0.4,11.7c-0.2,2.8,2,5.2,4.8,5.4C1383.7,531.9,1383.8,531.9,1383.9,531.9L1383.9,531.9z"/>
	<path class="st33" d="M1371.8,452.6c0,7.9-6.4,14.4-14.4,14.4c-7.9,0-14.4-6.4-14.4-14.4c0-7.9,6.4-14.4,14.4-14.4
		C1365.3,438.3,1371.8,444.7,1371.8,452.6"/>
</g>
<g>
	<path class="st33" d="M1472.8,531.9c2.7,0,4.9-2.1,5.1-4.8c0.3-4.4,0.4-8.5,0.4-12.2c0-19.3-3.1-30-7.3-36.4
		c-2.1-3.2-4.6-5.2-6.8-6.4c-2.1-1.1-4-1.3-5.2-1.4c-0.1,0-0.2,0-0.3,0h-24.7c-0.1,0-0.2,0-0.3,0c-1.2,0-3,0.3-5.2,1.4
		c-3.4,1.7-7.1,5.4-9.7,12c-2.6,6.6-4.4,16.2-4.4,30.7c0,3.7,0.1,7.8,0.4,12.3c0.2,2.7,2.4,4.8,5.1,4.8c0.1,0,0.2,0,0.3,0
		c2.8-0.2,5-2.6,4.8-5.4c-0.3-4.3-0.4-8.1-0.4-11.6c0-15.5,2.2-24.2,4.5-28.7v80.8c0,4.4,3.5,7.9,7.9,7.9c4.4,0,7.9-3.5,7.9-7.9
		v-42.6h3v42.6c0,4.4,3.5,7.9,7.9,7.9c4.4,0,7.9-3.5,7.9-7.9l0-80.8c0.4,0.8,0.8,1.7,1.1,2.7c1.8,5,3.3,13.2,3.3,26
		c0,3.5-0.1,7.4-0.4,11.7c-0.2,2.8,2,5.2,4.8,5.4C1472.6,531.9,1472.7,531.9,1472.8,531.9L1472.8,531.9z"/>
	<path class="st33" d="M1460.7,452.6c0,7.9-6.4,14.4-14.4,14.4c-7.9,0-14.4-6.4-14.4-14.4c0-7.9,6.4-14.4,14.4-14.4
		C1454.2,438.3,1460.7,444.7,1460.7,452.6"/>
</g>
<g>
	<path class="st33" d="M1561.6,531.9c2.7,0,4.9-2.1,5.1-4.8c0.3-4.4,0.4-8.5,0.4-12.2c0-19.3-3.1-30-7.3-36.4
		c-2.1-3.2-4.6-5.2-6.8-6.4c-2.1-1.1-4-1.3-5.2-1.4c-0.1,0-0.2,0-0.3,0h-24.7c-0.1,0-0.2,0-0.3,0c-1.2,0-3,0.3-5.2,1.4
		c-3.4,1.7-7.1,5.4-9.7,12c-2.6,6.6-4.4,16.2-4.4,30.7c0,3.7,0.1,7.8,0.4,12.3c0.2,2.7,2.4,4.8,5.1,4.8c0.1,0,0.2,0,0.3,0
		c2.8-0.2,5-2.6,4.8-5.4c-0.3-4.3-0.4-8.1-0.4-11.6c0-15.5,2.2-24.2,4.5-28.7v80.8c0,4.4,3.5,7.9,7.9,7.9c4.4,0,7.9-3.5,7.9-7.9
		v-42.6h3v42.6c0,4.4,3.5,7.9,7.9,7.9c4.4,0,7.9-3.5,7.9-7.9l0-80.8c0.4,0.8,0.8,1.7,1.1,2.7c1.8,5,3.3,13.2,3.3,26
		c0,3.5-0.1,7.4-0.4,11.7c-0.2,2.8,2,5.2,4.8,5.4C1561.4,531.9,1561.5,531.9,1561.6,531.9L1561.6,531.9z"/>
	<path class="st33" d="M1549.5,452.6c0,7.9-6.4,14.4-14.4,14.4c-7.9,0-14.4-6.4-14.4-14.4c0-7.9,6.4-14.4,14.4-14.4
		C1543.1,438.3,1549.5,444.7,1549.5,452.6"/>
</g>
<g>
	<path class="st33" d="M1650.5,531.9c2.7,0,4.9-2.1,5.1-4.8c0.3-4.4,0.4-8.5,0.4-12.2c0-19.3-3.1-30-7.3-36.4
		c-2.1-3.2-4.6-5.2-6.8-6.4c-2.1-1.1-4-1.3-5.2-1.4c-0.1,0-0.2,0-0.3,0h-24.7c-0.1,0-0.2,0-0.3,0c-1.2,0-3,0.3-5.2,1.4
		c-3.4,1.7-7.1,5.4-9.7,12c-2.6,6.6-4.4,16.2-4.4,30.7c0,3.7,0.1,7.8,0.4,12.3c0.2,2.7,2.4,4.8,5.1,4.8c0.1,0,0.2,0,0.3,0
		c2.8-0.2,5-2.6,4.8-5.4c-0.3-4.3-0.4-8.1-0.4-11.6c0-15.5,2.2-24.2,4.5-28.7v80.8c0,4.4,3.5,7.9,7.9,7.9c4.4,0,7.9-3.5,7.9-7.9
		v-42.6h3v42.6c0,4.4,3.5,7.9,7.9,7.9c4.4,0,7.9-3.5,7.9-7.9l0-80.8c0.4,0.8,0.8,1.7,1.1,2.7c1.8,5,3.3,13.2,3.3,26
		c0,3.5-0.1,7.4-0.4,11.7c-0.2,2.8,2,5.2,4.8,5.4C1650.3,531.9,1650.4,531.9,1650.5,531.9L1650.5,531.9z"/>
	<path class="st33" d="M1638.4,452.6c0,7.9-6.4,14.4-14.4,14.4c-7.9,0-14.4-6.4-14.4-14.4c0-7.9,6.4-14.4,14.4-14.4
		C1632,438.3,1638.4,444.7,1638.4,452.6"/>
</g>
<g>
	<path class="st34" d="M1295,691.6c2.7,0,4.9-2.1,5.1-4.8c0.3-4.4,0.4-8.5,0.4-12.2c0-19.3-3.1-30-7.3-36.4
		c-2.1-3.2-4.6-5.2-6.8-6.4c-2.1-1.1-4-1.3-5.2-1.4c-0.1,0-0.2,0-0.3,0h-24.7c-0.1,0-0.2,0-0.3,0c-1.2,0-3,0.3-5.2,1.4
		c-3.4,1.7-7.1,5.4-9.7,12c-2.6,6.6-4.4,16.2-4.4,30.7c0,3.7,0.1,7.8,0.4,12.3c0.2,2.7,2.4,4.8,5.1,4.8c0.1,0,0.2,0,0.3,0
		c2.8-0.2,5-2.6,4.8-5.4c-0.3-4.3-0.4-8.1-0.4-11.6c0-15.5,2.2-24.2,4.5-28.7v80.8c0,4.4,3.5,7.9,7.9,7.9c4.4,0,7.9-3.5,7.9-7.9V684
		h3v42.6c0,4.4,3.5,7.9,7.9,7.9c4.4,0,7.9-3.5,7.9-7.9l0-80.8c0.4,0.8,0.8,1.7,1.1,2.7c1.8,5,3.3,13.2,3.3,26
		c0,3.5-0.1,7.4-0.4,11.7c-0.2,2.8,2,5.2,4.8,5.4C1294.8,691.6,1294.9,691.6,1295,691.6L1295,691.6z"/>
	<path class="st34" d="M1282.9,612.4c0,7.9-6.4,14.4-14.4,14.4c-7.9,0-14.4-6.4-14.4-14.4c0-7.9,6.4-14.4,14.4-14.4
		C1276.5,598,1282.9,604.4,1282.9,612.4"/>
</g>
<g>
	<path class="st34" d="M1383.9,691.6c2.7,0,4.9-2.1,5.1-4.8c0.3-4.4,0.4-8.5,0.4-12.2c0-19.3-3.1-30-7.3-36.4
		c-2.1-3.2-4.6-5.2-6.8-6.4c-2.1-1.1-4-1.3-5.2-1.4c-0.1,0-0.2,0-0.3,0H1345c-0.1,0-0.2,0-0.3,0c-1.2,0-3,0.3-5.2,1.4
		c-3.4,1.7-7.1,5.4-9.7,12c-2.6,6.6-4.4,16.2-4.4,30.7c0,3.7,0.1,7.8,0.4,12.3c0.2,2.7,2.4,4.8,5.1,4.8c0.1,0,0.2,0,0.3,0
		c2.8-0.2,5-2.6,4.8-5.4c-0.3-4.3-0.4-8.1-0.4-11.6c0-15.5,2.2-24.2,4.5-28.7v80.8c0,4.4,3.5,7.9,7.9,7.9c4.4,0,7.9-3.5,7.9-7.9V684
		h3v42.6c0,4.4,3.5,7.9,7.9,7.9c4.4,0,7.9-3.5,7.9-7.9l0-80.8c0.4,0.8,0.8,1.7,1.1,2.7c1.8,5,3.3,13.2,3.3,26
		c0,3.5-0.1,7.4-0.4,11.7c-0.2,2.8,2,5.2,4.8,5.4C1383.7,691.6,1383.8,691.6,1383.9,691.6L1383.9,691.6z"/>
	<path class="st34" d="M1371.8,612.4c0,7.9-6.4,14.4-14.4,14.4c-7.9,0-14.4-6.4-14.4-14.4c0-7.9,6.4-14.4,14.4-14.4
		C1365.3,598,1371.8,604.4,1371.8,612.4"/>
</g>
<g>
	<path class="st34" d="M1472.8,691.6c2.7,0,4.9-2.1,5.1-4.8c0.3-4.4,0.4-8.5,0.4-12.2c0-19.3-3.1-30-7.3-36.4
		c-2.1-3.2-4.6-5.2-6.8-6.4c-2.1-1.1-4-1.3-5.2-1.4c-0.1,0-0.2,0-0.3,0h-24.7c-0.1,0-0.2,0-0.3,0c-1.2,0-3,0.3-5.2,1.4
		c-3.4,1.7-7.1,5.4-9.7,12c-2.6,6.6-4.4,16.2-4.4,30.7c0,3.7,0.1,7.8,0.4,12.3c0.2,2.7,2.4,4.8,5.1,4.8c0.1,0,0.2,0,0.3,0
		c2.8-0.2,5-2.6,4.8-5.4c-0.3-4.3-0.4-8.1-0.4-11.6c0-15.5,2.2-24.2,4.5-28.7v80.8c0,4.4,3.5,7.9,7.9,7.9c4.4,0,7.9-3.5,7.9-7.9V684
		h3v42.6c0,4.4,3.5,7.9,7.9,7.9c4.4,0,7.9-3.5,7.9-7.9l0-80.8c0.4,0.8,0.8,1.7,1.1,2.7c1.8,5,3.3,13.2,3.3,26
		c0,3.5-0.1,7.4-0.4,11.7c-0.2,2.8,2,5.2,4.8,5.4C1472.6,691.6,1472.7,691.6,1472.8,691.6L1472.8,691.6z"/>
	<path class="st34" d="M1460.7,612.4c0,7.9-6.4,14.4-14.4,14.4c-7.9,0-14.4-6.4-14.4-14.4c0-7.9,6.4-14.4,14.4-14.4
		C1454.2,598,1460.7,604.4,1460.7,612.4"/>
</g>
<g>
	<path class="st34" d="M1561.6,691.6c2.7,0,4.9-2.1,5.1-4.8c0.3-4.4,0.4-8.5,0.4-12.2c0-19.3-3.1-30-7.3-36.4
		c-2.1-3.2-4.6-5.2-6.8-6.4c-2.1-1.1-4-1.3-5.2-1.4c-0.1,0-0.2,0-0.3,0h-24.7c-0.1,0-0.2,0-0.3,0c-1.2,0-3,0.3-5.2,1.4
		c-3.4,1.7-7.1,5.4-9.7,12c-2.6,6.6-4.4,16.2-4.4,30.7c0,3.7,0.1,7.8,0.4,12.3c0.2,2.7,2.4,4.8,5.1,4.8c0.1,0,0.2,0,0.3,0
		c2.8-0.2,5-2.6,4.8-5.4c-0.3-4.3-0.4-8.1-0.4-11.6c0-15.5,2.2-24.2,4.5-28.7v80.8c0,4.4,3.5,7.9,7.9,7.9c4.4,0,7.9-3.5,7.9-7.9V684
		h3v42.6c0,4.4,3.5,7.9,7.9,7.9c4.4,0,7.9-3.5,7.9-7.9l0-80.8c0.4,0.8,0.8,1.7,1.1,2.7c1.8,5,3.3,13.2,3.3,26
		c0,3.5-0.1,7.4-0.4,11.7c-0.2,2.8,2,5.2,4.8,5.4C1561.4,691.6,1561.5,691.6,1561.6,691.6L1561.6,691.6z"/>
	<path class="st34" d="M1549.5,612.4c0,7.9-6.4,14.4-14.4,14.4c-7.9,0-14.4-6.4-14.4-14.4c0-7.9,6.4-14.4,14.4-14.4
		C1543.1,598,1549.5,604.4,1549.5,612.4"/>
</g>
<g>
	<path class="st34" d="M1650.5,691.6c2.7,0,4.9-2.1,5.1-4.8c0.3-4.4,0.4-8.5,0.4-12.2c0-19.3-3.1-30-7.3-36.4
		c-2.1-3.2-4.6-5.2-6.8-6.4c-2.1-1.1-4-1.3-5.2-1.4c-0.1,0-0.2,0-0.3,0h-24.7c-0.1,0-0.2,0-0.3,0c-1.2,0-3,0.3-5.2,1.4
		c-3.4,1.7-7.1,5.4-9.7,12c-2.6,6.6-4.4,16.2-4.4,30.7c0,3.7,0.1,7.8,0.4,12.3c0.2,2.7,2.4,4.8,5.1,4.8c0.1,0,0.2,0,0.3,0
		c2.8-0.2,5-2.6,4.8-5.4c-0.3-4.3-0.4-8.1-0.4-11.6c0-15.5,2.2-24.2,4.5-28.7v80.8c0,4.4,3.5,7.9,7.9,7.9c4.4,0,7.9-3.5,7.9-7.9V684
		h3v42.6c0,4.4,3.5,7.9,7.9,7.9c4.4,0,7.9-3.5,7.9-7.9l0-80.8c0.4,0.8,0.8,1.7,1.1,2.7c1.8,5,3.3,13.2,3.3,26
		c0,3.5-0.1,7.4-0.4,11.7c-0.2,2.8,2,5.2,4.8,5.4C1650.3,691.6,1650.4,691.6,1650.5,691.6L1650.5,691.6z"/>
	<path class="st34" d="M1638.4,612.4c0,7.9-6.4,14.4-14.4,14.4c-7.9,0-14.4-6.4-14.4-14.4c0-7.9,6.4-14.4,14.4-14.4
		C1632,598,1638.4,604.4,1638.4,612.4"/>
</g>
<g>
	<path class="st34" d="M1295,851.4c2.7,0,4.9-2.1,5.1-4.8c0.3-4.4,0.4-8.5,0.4-12.2c0-19.3-3.1-30-7.3-36.4
		c-2.1-3.2-4.6-5.2-6.8-6.4c-2.1-1.1-4-1.3-5.2-1.4c-0.1,0-0.2,0-0.3,0h-24.7c-0.1,0-0.2,0-0.3,0c-1.2,0-3,0.3-5.2,1.4
		c-3.4,1.7-7.1,5.4-9.7,12c-2.6,6.6-4.4,16.2-4.4,30.7c0,3.7,0.1,7.8,0.4,12.3c0.2,2.7,2.4,4.8,5.1,4.8c0.1,0,0.2,0,0.3,0
		c2.8-0.2,5-2.6,4.8-5.4c-0.3-4.3-0.4-8.1-0.4-11.6c0-15.5,2.2-24.2,4.5-28.7v80.8c0,4.4,3.5,7.9,7.9,7.9c4.4,0,7.9-3.5,7.9-7.9
		v-42.6h3v42.6c0,4.4,3.5,7.9,7.9,7.9c4.4,0,7.9-3.5,7.9-7.9l0-80.8c0.4,0.8,0.8,1.7,1.1,2.7c1.8,5,3.3,13.2,3.3,26
		c0,3.5-0.1,7.4-0.4,11.7c-0.2,2.8,2,5.2,4.8,5.4C1294.8,851.3,1294.9,851.4,1295,851.4L1295,851.4z"/>
	<path class="st34" d="M1282.9,772.1c0,7.9-6.4,14.4-14.4,14.4c-7.9,0-14.4-6.4-14.4-14.4c0-7.9,6.4-14.4,14.4-14.4
		C1276.5,757.7,1282.9,764.2,1282.9,772.1"/>
</g>
<g>
	<path class="st33" d="M1383.9,851.4c2.7,0,4.9-2.1,5.1-4.8c0.3-4.4,0.4-8.5,0.4-12.2c0-19.3-3.1-30-7.3-36.4
		c-2.1-3.2-4.6-5.2-6.8-6.4c-2.1-1.1-4-1.3-5.2-1.4c-0.1,0-0.2,0-0.3,0H1345c-0.1,0-0.2,0-0.3,0c-1.2,0-3,0.3-5.2,1.4
		c-3.4,1.7-7.1,5.4-9.7,12c-2.6,6.6-4.4,16.2-4.4,30.7c0,3.7,0.1,7.8,0.4,12.3c0.2,2.7,2.4,4.8,5.1,4.8c0.1,0,0.2,0,0.3,0
		c2.8-0.2,5-2.6,4.8-5.4c-0.3-4.3-0.4-8.1-0.4-11.6c0-15.5,2.2-24.2,4.5-28.7v80.8c0,4.4,3.5,7.9,7.9,7.9c4.4,0,7.9-3.5,7.9-7.9
		v-42.6h3v42.6c0,4.4,3.5,7.9,7.9,7.9c4.4,0,7.9-3.5,7.9-7.9l0-80.8c0.4,0.8,0.8,1.7,1.1,2.7c1.8,5,3.3,13.2,3.3,26
		c0,3.5-0.1,7.4-0.4,11.7c-0.2,2.8,2,5.2,4.8,5.4C1383.7,851.3,1383.8,851.4,1383.9,851.4L1383.9,851.4z"/>
	<path class="st33" d="M1371.8,772.1c0,7.9-6.4,14.4-14.4,14.4c-7.9,0-14.4-6.4-14.4-14.4c0-7.9,6.4-14.4,14.4-14.4
		C1365.3,757.7,1371.8,764.2,1371.8,772.1"/>
</g>
<g>
	<path class="st33" d="M1472.8,851.4c2.7,0,4.9-2.1,5.1-4.8c0.3-4.4,0.4-8.5,0.4-12.2c0-19.3-3.1-30-7.3-36.4
		c-2.1-3.2-4.6-5.2-6.8-6.4c-2.1-1.1-4-1.3-5.2-1.4c-0.1,0-0.2,0-0.3,0h-24.7c-0.1,0-0.2,0-0.3,0c-1.2,0-3,0.3-5.2,1.4
		c-3.4,1.7-7.1,5.4-9.7,12c-2.6,6.6-4.4,16.2-4.4,30.7c0,3.7,0.1,7.8,0.4,12.3c0.2,2.7,2.4,4.8,5.1,4.8c0.1,0,0.2,0,0.3,0
		c2.8-0.2,5-2.6,4.8-5.4c-0.3-4.3-0.4-8.1-0.4-11.6c0-15.5,2.2-24.2,4.5-28.7v80.8c0,4.4,3.5,7.9,7.9,7.9c4.4,0,7.9-3.5,7.9-7.9
		v-42.6h3v42.6c0,4.4,3.5,7.9,7.9,7.9c4.4,0,7.9-3.5,7.9-7.9l0-80.8c0.4,0.8,0.8,1.7,1.1,2.7c1.8,5,3.3,13.2,3.3,26
		c0,3.5-0.1,7.4-0.4,11.7c-0.2,2.8,2,5.2,4.8,5.4C1472.6,851.3,1472.7,851.4,1472.8,851.4L1472.8,851.4z"/>
	<path class="st33" d="M1460.7,772.1c0,7.9-6.4,14.4-14.4,14.4c-7.9,0-14.4-6.4-14.4-14.4c0-7.9,6.4-14.4,14.4-14.4
		C1454.2,757.7,1460.7,764.2,1460.7,772.1"/>
</g>
<g>
	<path class="st33" d="M1561.6,851.4c2.7,0,4.9-2.1,5.1-4.8c0.3-4.4,0.4-8.5,0.4-12.2c0-19.3-3.1-30-7.3-36.4
		c-2.1-3.2-4.6-5.2-6.8-6.4c-2.1-1.1-4-1.3-5.2-1.4c-0.1,0-0.2,0-0.3,0h-24.7c-0.1,0-0.2,0-0.3,0c-1.2,0-3,0.3-5.2,1.4
		c-3.4,1.7-7.1,5.4-9.7,12c-2.6,6.6-4.4,16.2-4.4,30.7c0,3.7,0.1,7.8,0.4,12.3c0.2,2.7,2.4,4.8,5.1,4.8c0.1,0,0.2,0,0.3,0
		c2.8-0.2,5-2.6,4.8-5.4c-0.3-4.3-0.4-8.1-0.4-11.6c0-15.5,2.2-24.2,4.5-28.7v80.8c0,4.4,3.5,7.9,7.9,7.9c4.4,0,7.9-3.5,7.9-7.9
		v-42.6h3v42.6c0,4.4,3.5,7.9,7.9,7.9c4.4,0,7.9-3.5,7.9-7.9l0-80.8c0.4,0.8,0.8,1.7,1.1,2.7c1.8,5,3.3,13.2,3.3,26
		c0,3.5-0.1,7.4-0.4,11.7c-0.2,2.8,2,5.2,4.8,5.4C1561.4,851.3,1561.5,851.4,1561.6,851.4L1561.6,851.4z"/>
	<path class="st33" d="M1549.5,772.1c0,7.9-6.4,14.4-14.4,14.4c-7.9,0-14.4-6.4-14.4-14.4c0-7.9,6.4-14.4,14.4-14.4
		C1543.1,757.7,1549.5,764.2,1549.5,772.1"/>
</g>
<g>
	<path class="st33" d="M1650.5,851.4c2.7,0,4.9-2.1,5.1-4.8c0.3-4.4,0.4-8.5,0.4-12.2c0-19.3-3.1-30-7.3-36.4
		c-2.1-3.2-4.6-5.2-6.8-6.4c-2.1-1.1-4-1.3-5.2-1.4c-0.1,0-0.2,0-0.3,0h-24.7c-0.1,0-0.2,0-0.3,0c-1.2,0-3,0.3-5.2,1.4
		c-3.4,1.7-7.1,5.4-9.7,12c-2.6,6.6-4.4,16.2-4.4,30.7c0,3.7,0.1,7.8,0.4,12.3c0.2,2.7,2.4,4.8,5.1,4.8c0.1,0,0.2,0,0.3,0
		c2.8-0.2,5-2.6,4.8-5.4c-0.3-4.3-0.4-8.1-0.4-11.6c0-15.5,2.2-24.2,4.5-28.7v80.8c0,4.4,3.5,7.9,7.9,7.9c4.4,0,7.9-3.5,7.9-7.9
		v-42.6h3v42.6c0,4.4,3.5,7.9,7.9,7.9c4.4,0,7.9-3.5,7.9-7.9l0-80.8c0.4,0.8,0.8,1.7,1.1,2.7c1.8,5,3.3,13.2,3.3,26
		c0,3.5-0.1,7.4-0.4,11.7c-0.2,2.8,2,5.2,4.8,5.4C1650.3,851.3,1650.4,851.4,1650.5,851.4L1650.5,851.4z"/>
	<path class="st33" d="M1638.4,772.1c0,7.9-6.4,14.4-14.4,14.4c-7.9,0-14.4-6.4-14.4-14.4c0-7.9,6.4-14.4,14.4-14.4
		C1632,757.7,1638.4,764.2,1638.4,772.1"/>
</g>
<g>
	<path class="st33" d="M1295,1011.1c2.7,0,4.9-2.1,5.1-4.8c0.3-4.4,0.4-8.5,0.4-12.2c0-19.3-3.1-30-7.3-36.4
		c-2.1-3.2-4.6-5.2-6.8-6.4c-2.1-1.1-4-1.3-5.2-1.4c-0.1,0-0.2,0-0.3,0h-24.7c-0.1,0-0.2,0-0.3,0c-1.2,0-3,0.3-5.2,1.4
		c-3.4,1.7-7.1,5.4-9.7,12c-2.6,6.6-4.4,16.2-4.4,30.7c0,3.7,0.1,7.8,0.4,12.3c0.2,2.7,2.4,4.8,5.1,4.8c0.1,0,0.2,0,0.3,0
		c2.8-0.2,5-2.6,4.8-5.4c-0.3-4.3-0.4-8.1-0.4-11.6c0-15.5,2.2-24.2,4.5-28.7v80.8c0,4.4,3.5,7.9,7.9,7.9c4.4,0,7.9-3.5,7.9-7.9
		v-42.6h3v42.6c0,4.4,3.5,7.9,7.9,7.9c4.4,0,7.9-3.5,7.9-7.9l0-80.8c0.4,0.8,0.8,1.7,1.1,2.7c1.8,5,3.3,13.2,3.3,26
		c0,3.5-0.1,7.4-0.4,11.7c-0.2,2.8,2,5.2,4.8,5.4C1294.8,1011.1,1294.9,1011.1,1295,1011.1L1295,1011.1z"/>
	<path class="st33" d="M1282.9,931.9c0,7.9-6.4,14.4-14.4,14.4c-7.9,0-14.4-6.4-14.4-14.4c0-7.9,6.4-14.4,14.4-14.4
		C1276.5,917.5,1282.9,923.9,1282.9,931.9"/>
</g>
<g>
	<path class="st33" d="M1383.9,1011.1c2.7,0,4.9-2.1,5.1-4.8c0.3-4.4,0.4-8.5,0.4-12.2c0-19.3-3.1-30-7.3-36.4
		c-2.1-3.2-4.6-5.2-6.8-6.4c-2.1-1.1-4-1.3-5.2-1.4c-0.1,0-0.2,0-0.3,0H1345c-0.1,0-0.2,0-0.3,0c-1.2,0-3,0.3-5.2,1.4
		c-3.4,1.7-7.1,5.4-9.7,12c-2.6,6.6-4.4,16.2-4.4,30.7c0,3.7,0.1,7.8,0.4,12.3c0.2,2.7,2.4,4.8,5.1,4.8c0.1,0,0.2,0,0.3,0
		c2.8-0.2,5-2.6,4.8-5.4c-0.3-4.3-0.4-8.1-0.4-11.6c0-15.5,2.2-24.2,4.5-28.7v80.8c0,4.4,3.5,7.9,7.9,7.9c4.4,0,7.9-3.5,7.9-7.9
		v-42.6h3v42.6c0,4.4,3.5,7.9,7.9,7.9c4.4,0,7.9-3.5,7.9-7.9l0-80.8c0.4,0.8,0.8,1.7,1.1,2.7c1.8,5,3.3,13.2,3.3,26
		c0,3.5-0.1,7.4-0.4,11.7c-0.2,2.8,2,5.2,4.8,5.4C1383.7,1011.1,1383.8,1011.1,1383.9,1011.1L1383.9,1011.1z"/>
	<path class="st33" d="M1371.8,931.9c0,7.9-6.4,14.4-14.4,14.4c-7.9,0-14.4-6.4-14.4-14.4c0-7.9,6.4-14.4,14.4-14.4
		C1365.3,917.5,1371.8,923.9,1371.8,931.9"/>
</g>
<g>
	<path class="st33" d="M1472.8,1011.1c2.7,0,4.9-2.1,5.1-4.8c0.3-4.4,0.4-8.5,0.4-12.2c0-19.3-3.1-30-7.3-36.4
		c-2.1-3.2-4.6-5.2-6.8-6.4c-2.1-1.1-4-1.3-5.2-1.4c-0.1,0-0.2,0-0.3,0h-24.7c-0.1,0-0.2,0-0.3,0c-1.2,0-3,0.3-5.2,1.4
		c-3.4,1.7-7.1,5.4-9.7,12c-2.6,6.6-4.4,16.2-4.4,30.7c0,3.7,0.1,7.8,0.4,12.3c0.2,2.7,2.4,4.8,5.1,4.8c0.1,0,0.2,0,0.3,0
		c2.8-0.2,5-2.6,4.8-5.4c-0.3-4.3-0.4-8.1-0.4-11.6c0-15.5,2.2-24.2,4.5-28.7v80.8c0,4.4,3.5,7.9,7.9,7.9c4.4,0,7.9-3.5,7.9-7.9
		v-42.6h3v42.6c0,4.4,3.5,7.9,7.9,7.9c4.4,0,7.9-3.5,7.9-7.9l0-80.8c0.4,0.8,0.8,1.7,1.1,2.7c1.8,5,3.3,13.2,3.3,26
		c0,3.5-0.1,7.4-0.4,11.7c-0.2,2.8,2,5.2,4.8,5.4C1472.6,1011.1,1472.7,1011.1,1472.8,1011.1L1472.8,1011.1z"/>
	<path class="st33" d="M1460.7,931.9c0,7.9-6.4,14.4-14.4,14.4c-7.9,0-14.4-6.4-14.4-14.4c0-7.9,6.4-14.4,14.4-14.4
		C1454.2,917.5,1460.7,923.9,1460.7,931.9"/>
</g>
<g>
	<path class="st33" d="M1561.6,1011.1c2.7,0,4.9-2.1,5.1-4.8c0.3-4.4,0.4-8.5,0.4-12.2c0-19.3-3.1-30-7.3-36.4
		c-2.1-3.2-4.6-5.2-6.8-6.4c-2.1-1.1-4-1.3-5.2-1.4c-0.1,0-0.2,0-0.3,0h-24.7c-0.1,0-0.2,0-0.3,0c-1.2,0-3,0.3-5.2,1.4
		c-3.4,1.7-7.1,5.4-9.7,12c-2.6,6.6-4.4,16.2-4.4,30.7c0,3.7,0.1,7.8,0.4,12.3c0.2,2.7,2.4,4.8,5.1,4.8c0.1,0,0.2,0,0.3,0
		c2.8-0.2,5-2.6,4.8-5.4c-0.3-4.3-0.4-8.1-0.4-11.6c0-15.5,2.2-24.2,4.5-28.7v80.8c0,4.4,3.5,7.9,7.9,7.9c4.4,0,7.9-3.5,7.9-7.9
		v-42.6h3v42.6c0,4.4,3.5,7.9,7.9,7.9c4.4,0,7.9-3.5,7.9-7.9l0-80.8c0.4,0.8,0.8,1.7,1.1,2.7c1.8,5,3.3,13.2,3.3,26
		c0,3.5-0.1,7.4-0.4,11.7c-0.2,2.8,2,5.2,4.8,5.4C1561.4,1011.1,1561.5,1011.1,1561.6,1011.1L1561.6,1011.1z"/>
	<path class="st33" d="M1549.5,931.9c0,7.9-6.4,14.4-14.4,14.4c-7.9,0-14.4-6.4-14.4-14.4c0-7.9,6.4-14.4,14.4-14.4
		C1543.1,917.5,1549.5,923.9,1549.5,931.9"/>
</g>
<g>
	<path class="st33" d="M1650.5,1011.1c2.7,0,4.9-2.1,5.1-4.8c0.3-4.4,0.4-8.5,0.4-12.2c0-19.3-3.1-30-7.3-36.4
		c-2.1-3.2-4.6-5.2-6.8-6.4c-2.1-1.1-4-1.3-5.2-1.4c-0.1,0-0.2,0-0.3,0h-24.7c-0.1,0-0.2,0-0.3,0c-1.2,0-3,0.3-5.2,1.4
		c-3.4,1.7-7.1,5.4-9.7,12c-2.6,6.6-4.4,16.2-4.4,30.7c0,3.7,0.1,7.8,0.4,12.3c0.2,2.7,2.4,4.8,5.1,4.8c0.1,0,0.2,0,0.3,0
		c2.8-0.2,5-2.6,4.8-5.4c-0.3-4.3-0.4-8.1-0.4-11.6c0-15.5,2.2-24.2,4.5-28.7v80.8c0,4.4,3.5,7.9,7.9,7.9c4.4,0,7.9-3.5,7.9-7.9
		v-42.6h3v42.6c0,4.4,3.5,7.9,7.9,7.9c4.4,0,7.9-3.5,7.9-7.9l0-80.8c0.4,0.8,0.8,1.7,1.1,2.7c1.8,5,3.3,13.2,3.3,26
		c0,3.5-0.1,7.4-0.4,11.7c-0.2,2.8,2,5.2,4.8,5.4C1650.3,1011.1,1650.4,1011.1,1650.5,1011.1L1650.5,1011.1z"/>
	<path class="st33" d="M1638.4,931.9c0,7.9-6.4,14.4-14.4,14.4c-7.9,0-14.4-6.4-14.4-14.4c0-7.9,6.4-14.4,14.4-14.4
		C1632,917.5,1638.4,923.9,1638.4,931.9"/>
</g>
<g>
	<path class="st1" d="M1295,1170.8c2.7,0,4.9-2.1,5.1-4.8c0.3-4.4,0.4-8.5,0.4-12.2c0-19.3-3.1-30-7.3-36.4
		c-2.1-3.2-4.6-5.2-6.8-6.4c-2.1-1.1-4-1.3-5.2-1.4c-0.1,0-0.2,0-0.3,0h-24.7c-0.1,0-0.2,0-0.3,0c-1.2,0-3,0.3-5.2,1.4
		c-3.4,1.7-7.1,5.4-9.7,12c-2.6,6.6-4.4,16.2-4.4,30.7c0,3.7,0.1,7.8,0.4,12.3c0.2,2.7,2.4,4.8,5.1,4.8c0.1,0,0.2,0,0.3,0
		c2.8-0.2,5-2.6,4.8-5.4c-0.3-4.3-0.4-8.1-0.4-11.6c0-15.5,2.2-24.2,4.5-28.7v80.8c0,4.4,3.5,7.9,7.9,7.9c4.4,0,7.9-3.5,7.9-7.9
		v-42.6h3v42.6c0,4.4,3.5,7.9,7.9,7.9c4.4,0,7.9-3.5,7.9-7.9l0-80.8c0.4,0.8,0.8,1.7,1.1,2.7c1.8,5,3.3,13.2,3.3,26
		c0,3.5-0.1,7.4-0.4,11.7c-0.2,2.8,2,5.2,4.8,5.4C1294.8,1170.8,1294.9,1170.8,1295,1170.8L1295,1170.8z"/>
	<path class="st1" d="M1282.9,1091.6c0,7.9-6.4,14.4-14.4,14.4c-7.9,0-14.4-6.4-14.4-14.4c0-7.9,6.4-14.4,14.4-14.4
		C1276.5,1077.2,1282.9,1083.7,1282.9,1091.6"/>
</g>
<g>
	<path class="st1" d="M1383.9,1170.8c2.7,0,4.9-2.1,5.1-4.8c0.3-4.4,0.4-8.5,0.4-12.2c0-19.3-3.1-30-7.3-36.4
		c-2.1-3.2-4.6-5.2-6.8-6.4c-2.1-1.1-4-1.3-5.2-1.4c-0.1,0-0.2,0-0.3,0H1345c-0.1,0-0.2,0-0.3,0c-1.2,0-3,0.3-5.2,1.4
		c-3.4,1.7-7.1,5.4-9.7,12c-2.6,6.6-4.4,16.2-4.4,30.7c0,3.7,0.1,7.8,0.4,12.3c0.2,2.7,2.4,4.8,5.1,4.8c0.1,0,0.2,0,0.3,0
		c2.8-0.2,5-2.6,4.8-5.4c-0.3-4.3-0.4-8.1-0.4-11.6c0-15.5,2.2-24.2,4.5-28.7v80.8c0,4.4,3.5,7.9,7.9,7.9c4.4,0,7.9-3.5,7.9-7.9
		v-42.6h3v42.6c0,4.4,3.5,7.9,7.9,7.9c4.4,0,7.9-3.5,7.9-7.9l0-80.8c0.4,0.8,0.8,1.7,1.1,2.7c1.8,5,3.3,13.2,3.3,26
		c0,3.5-0.1,7.4-0.4,11.7c-0.2,2.8,2,5.2,4.8,5.4C1383.7,1170.8,1383.8,1170.8,1383.9,1170.8L1383.9,1170.8z"/>
	<path class="st1" d="M1371.8,1091.6c0,7.9-6.4,14.4-14.4,14.4c-7.9,0-14.4-6.4-14.4-14.4c0-7.9,6.4-14.4,14.4-14.4
		C1365.3,1077.2,1371.8,1083.7,1371.8,1091.6"/>
</g>
<g>
	<path class="st1" d="M1472.8,1170.8c2.7,0,4.9-2.1,5.1-4.8c0.3-4.4,0.4-8.5,0.4-12.2c0-19.3-3.1-30-7.3-36.4
		c-2.1-3.2-4.6-5.2-6.8-6.4c-2.1-1.1-4-1.3-5.2-1.4c-0.1,0-0.2,0-0.3,0h-24.7c-0.1,0-0.2,0-0.3,0c-1.2,0-3,0.3-5.2,1.4
		c-3.4,1.7-7.1,5.4-9.7,12c-2.6,6.6-4.4,16.2-4.4,30.7c0,3.7,0.1,7.8,0.4,12.3c0.2,2.7,2.4,4.8,5.1,4.8c0.1,0,0.2,0,0.3,0
		c2.8-0.2,5-2.6,4.8-5.4c-0.3-4.3-0.4-8.1-0.4-11.6c0-15.5,2.2-24.2,4.5-28.7v80.8c0,4.4,3.5,7.9,7.9,7.9c4.4,0,7.9-3.5,7.9-7.9
		v-42.6h3v42.6c0,4.4,3.5,7.9,7.9,7.9c4.4,0,7.9-3.5,7.9-7.9l0-80.8c0.4,0.8,0.8,1.7,1.1,2.7c1.8,5,3.3,13.2,3.3,26
		c0,3.5-0.1,7.4-0.4,11.7c-0.2,2.8,2,5.2,4.8,5.4C1472.6,1170.8,1472.7,1170.8,1472.8,1170.8L1472.8,1170.8z"/>
	<path class="st1" d="M1460.7,1091.6c0,7.9-6.4,14.4-14.4,14.4c-7.9,0-14.4-6.4-14.4-14.4c0-7.9,6.4-14.4,14.4-14.4
		C1454.2,1077.2,1460.7,1083.7,1460.7,1091.6"/>
</g>
<g>
	<path class="st1" d="M1561.6,1170.8c2.7,0,4.9-2.1,5.1-4.8c0.3-4.4,0.4-8.5,0.4-12.2c0-19.3-3.1-30-7.3-36.4
		c-2.1-3.2-4.6-5.2-6.8-6.4c-2.1-1.1-4-1.3-5.2-1.4c-0.1,0-0.2,0-0.3,0h-24.7c-0.1,0-0.2,0-0.3,0c-1.2,0-3,0.3-5.2,1.4
		c-3.4,1.7-7.1,5.4-9.7,12c-2.6,6.6-4.4,16.2-4.4,30.7c0,3.7,0.1,7.8,0.4,12.3c0.2,2.7,2.4,4.8,5.1,4.8c0.1,0,0.2,0,0.3,0
		c2.8-0.2,5-2.6,4.8-5.4c-0.3-4.3-0.4-8.1-0.4-11.6c0-15.5,2.2-24.2,4.5-28.7v80.8c0,4.4,3.5,7.9,7.9,7.9c4.4,0,7.9-3.5,7.9-7.9
		v-42.6h3v42.6c0,4.4,3.5,7.9,7.9,7.9c4.4,0,7.9-3.5,7.9-7.9l0-80.8c0.4,0.8,0.8,1.7,1.1,2.7c1.8,5,3.3,13.2,3.3,26
		c0,3.5-0.1,7.4-0.4,11.7c-0.2,2.8,2,5.2,4.8,5.4C1561.4,1170.8,1561.5,1170.8,1561.6,1170.8L1561.6,1170.8z"/>
	<path class="st1" d="M1549.5,1091.6c0,7.9-6.4,14.4-14.4,14.4c-7.9,0-14.4-6.4-14.4-14.4c0-7.9,6.4-14.4,14.4-14.4
		C1543.1,1077.2,1549.5,1083.7,1549.5,1091.6"/>
</g>
<g>
	<path class="st33" d="M1650.5,1170.8c2.7,0,4.9-2.1,5.1-4.8c0.3-4.4,0.4-8.5,0.4-12.2c0-19.3-3.1-30-7.3-36.4
		c-2.1-3.2-4.6-5.2-6.8-6.4c-2.1-1.1-4-1.3-5.2-1.4c-0.1,0-0.2,0-0.3,0h-24.7c-0.1,0-0.2,0-0.3,0c-1.2,0-3,0.3-5.2,1.4
		c-3.4,1.7-7.1,5.4-9.7,12c-2.6,6.6-4.4,16.2-4.4,30.7c0,3.7,0.1,7.8,0.4,12.3c0.2,2.7,2.4,4.8,5.1,4.8c0.1,0,0.2,0,0.3,0
		c2.8-0.2,5-2.6,4.8-5.4c-0.3-4.3-0.4-8.1-0.4-11.6c0-15.5,2.2-24.2,4.5-28.7v80.8c0,4.4,3.5,7.9,7.9,7.9c4.4,0,7.9-3.5,7.9-7.9
		v-42.6h3v42.6c0,4.4,3.5,7.9,7.9,7.9c4.4,0,7.9-3.5,7.9-7.9l0-80.8c0.4,0.8,0.8,1.7,1.1,2.7c1.8,5,3.3,13.2,3.3,26
		c0,3.5-0.1,7.4-0.4,11.7c-0.2,2.8,2,5.2,4.8,5.4C1650.3,1170.8,1650.4,1170.8,1650.5,1170.8L1650.5,1170.8z"/>
	<path class="st33" d="M1638.4,1091.6c0,7.9-6.4,14.4-14.4,14.4c-7.9,0-14.4-6.4-14.4-14.4c0-7.9,6.4-14.4,14.4-14.4
		C1632,1077.2,1638.4,1083.7,1638.4,1091.6"/>
</g>
<g>
	<path class="st1" d="M1295,1330.6c2.7,0,4.9-2.1,5.1-4.8c0.3-4.4,0.4-8.5,0.4-12.2c0-19.3-3.1-30-7.3-36.4
		c-2.1-3.2-4.6-5.2-6.8-6.4c-2.1-1.1-4-1.3-5.2-1.4c-0.1,0-0.2,0-0.3,0h-24.7c-0.1,0-0.2,0-0.3,0c-1.2,0-3,0.3-5.2,1.4
		c-3.4,1.7-7.1,5.4-9.7,12c-2.6,6.6-4.4,16.2-4.4,30.7c0,3.7,0.1,7.8,0.4,12.3c0.2,2.7,2.4,4.8,5.1,4.8c0.1,0,0.2,0,0.3,0
		c2.8-0.2,5-2.6,4.8-5.4c-0.3-4.3-0.4-8.1-0.4-11.6c0-15.5,2.2-24.2,4.5-28.7v80.8c0,4.4,3.5,7.9,7.9,7.9c4.4,0,7.9-3.5,7.9-7.9
		V1323h3v42.6c0,4.4,3.5,7.9,7.9,7.9c4.4,0,7.9-3.5,7.9-7.9l0-80.8c0.4,0.8,0.8,1.7,1.1,2.7c1.8,5,3.3,13.2,3.3,26
		c0,3.5-0.1,7.4-0.4,11.7c-0.2,2.8,2,5.2,4.8,5.4C1294.8,1330.6,1294.9,1330.6,1295,1330.6L1295,1330.6z"/>
	<path class="st1" d="M1282.9,1251.3c0,7.9-6.4,14.4-14.4,14.4c-7.9,0-14.4-6.4-14.4-14.4c0-7.9,6.4-14.4,14.4-14.4
		C1276.5,1237,1282.9,1243.4,1282.9,1251.3"/>
</g>
<g>
	<path class="st1" d="M1383.9,1330.6c2.7,0,4.9-2.1,5.1-4.8c0.3-4.4,0.4-8.5,0.4-12.2c0-19.3-3.1-30-7.3-36.4
		c-2.1-3.2-4.6-5.2-6.8-6.4c-2.1-1.1-4-1.3-5.2-1.4c-0.1,0-0.2,0-0.3,0H1345c-0.1,0-0.2,0-0.3,0c-1.2,0-3,0.3-5.2,1.4
		c-3.4,1.7-7.1,5.4-9.7,12c-2.6,6.6-4.4,16.2-4.4,30.7c0,3.7,0.1,7.8,0.4,12.3c0.2,2.7,2.4,4.8,5.1,4.8c0.1,0,0.2,0,0.3,0
		c2.8-0.2,5-2.6,4.8-5.4c-0.3-4.3-0.4-8.1-0.4-11.6c0-15.5,2.2-24.2,4.5-28.7v80.8c0,4.4,3.5,7.9,7.9,7.9c4.4,0,7.9-3.5,7.9-7.9
		V1323h3v42.6c0,4.4,3.5,7.9,7.9,7.9c4.4,0,7.9-3.5,7.9-7.9l0-80.8c0.4,0.8,0.8,1.7,1.1,2.7c1.8,5,3.3,13.2,3.3,26
		c0,3.5-0.1,7.4-0.4,11.7c-0.2,2.8,2,5.2,4.8,5.4C1383.7,1330.6,1383.8,1330.6,1383.9,1330.6L1383.9,1330.6z"/>
	<path class="st1" d="M1371.8,1251.3c0,7.9-6.4,14.4-14.4,14.4c-7.9,0-14.4-6.4-14.4-14.4c0-7.9,6.4-14.4,14.4-14.4
		C1365.3,1237,1371.8,1243.4,1371.8,1251.3"/>
</g>
<g>
	<path class="st1" d="M1472.8,1330.6c2.7,0,4.9-2.1,5.1-4.8c0.3-4.4,0.4-8.5,0.4-12.2c0-19.3-3.1-30-7.3-36.4
		c-2.1-3.2-4.6-5.2-6.8-6.4c-2.1-1.1-4-1.3-5.2-1.4c-0.1,0-0.2,0-0.3,0h-24.7c-0.1,0-0.2,0-0.3,0c-1.2,0-3,0.3-5.2,1.4
		c-3.4,1.7-7.1,5.4-9.7,12c-2.6,6.6-4.4,16.2-4.4,30.7c0,3.7,0.1,7.8,0.4,12.3c0.2,2.7,2.4,4.8,5.1,4.8c0.1,0,0.2,0,0.3,0
		c2.8-0.2,5-2.6,4.8-5.4c-0.3-4.3-0.4-8.1-0.4-11.6c0-15.5,2.2-24.2,4.5-28.7v80.8c0,4.4,3.5,7.9,7.9,7.9c4.4,0,7.9-3.5,7.9-7.9
		V1323h3v42.6c0,4.4,3.5,7.9,7.9,7.9c4.4,0,7.9-3.5,7.9-7.9l0-80.8c0.4,0.8,0.8,1.7,1.1,2.7c1.8,5,3.3,13.2,3.3,26
		c0,3.5-0.1,7.4-0.4,11.7c-0.2,2.8,2,5.2,4.8,5.4C1472.6,1330.6,1472.7,1330.6,1472.8,1330.6L1472.8,1330.6z"/>
	<path class="st1" d="M1460.7,1251.3c0,7.9-6.4,14.4-14.4,14.4c-7.9,0-14.4-6.4-14.4-14.4c0-7.9,6.4-14.4,14.4-14.4
		C1454.2,1237,1460.7,1243.4,1460.7,1251.3"/>
</g>
<g>
	<path class="st1" d="M1561.6,1330.6c2.7,0,4.9-2.1,5.1-4.8c0.3-4.4,0.4-8.5,0.4-12.2c0-19.3-3.1-30-7.3-36.4
		c-2.1-3.2-4.6-5.2-6.8-6.4c-2.1-1.1-4-1.3-5.2-1.4c-0.1,0-0.2,0-0.3,0h-24.7c-0.1,0-0.2,0-0.3,0c-1.2,0-3,0.3-5.2,1.4
		c-3.4,1.7-7.1,5.4-9.7,12c-2.6,6.6-4.4,16.2-4.4,30.7c0,3.7,0.1,7.8,0.4,12.3c0.2,2.7,2.4,4.8,5.1,4.8c0.1,0,0.2,0,0.3,0
		c2.8-0.2,5-2.6,4.8-5.4c-0.3-4.3-0.4-8.1-0.4-11.6c0-15.5,2.2-24.2,4.5-28.7v80.8c0,4.4,3.5,7.9,7.9,7.9c4.4,0,7.9-3.5,7.9-7.9
		V1323h3v42.6c0,4.4,3.5,7.9,7.9,7.9c4.4,0,7.9-3.5,7.9-7.9l0-80.8c0.4,0.8,0.8,1.7,1.1,2.7c1.8,5,3.3,13.2,3.3,26
		c0,3.5-0.1,7.4-0.4,11.7c-0.2,2.8,2,5.2,4.8,5.4C1561.4,1330.6,1561.5,1330.6,1561.6,1330.6L1561.6,1330.6z"/>
	<path class="st1" d="M1549.5,1251.3c0,7.9-6.4,14.4-14.4,14.4c-7.9,0-14.4-6.4-14.4-14.4c0-7.9,6.4-14.4,14.4-14.4
		C1543.1,1237,1549.5,1243.4,1549.5,1251.3"/>
</g>
<g>
	<path class="st33" d="M1650.5,1330.6c2.7,0,4.9-2.1,5.1-4.8c0.3-4.4,0.4-8.5,0.4-12.2c0-19.3-3.1-30-7.3-36.4
		c-2.1-3.2-4.6-5.2-6.8-6.4c-2.1-1.1-4-1.3-5.2-1.4c-0.1,0-0.2,0-0.3,0h-24.7c-0.1,0-0.2,0-0.3,0c-1.2,0-3,0.3-5.2,1.4
		c-3.4,1.7-7.1,5.4-9.7,12c-2.6,6.6-4.4,16.2-4.4,30.7c0,3.7,0.1,7.8,0.4,12.3c0.2,2.7,2.4,4.8,5.1,4.8c0.1,0,0.2,0,0.3,0
		c2.8-0.2,5-2.6,4.8-5.4c-0.3-4.3-0.4-8.1-0.4-11.6c0-15.5,2.2-24.2,4.5-28.7v80.8c0,4.4,3.5,7.9,7.9,7.9c4.4,0,7.9-3.5,7.9-7.9
		V1323h3v42.6c0,4.4,3.5,7.9,7.9,7.9c4.4,0,7.9-3.5,7.9-7.9l0-80.8c0.4,0.8,0.8,1.7,1.1,2.7c1.8,5,3.3,13.2,3.3,26
		c0,3.5-0.1,7.4-0.4,11.7c-0.2,2.8,2,5.2,4.8,5.4C1650.3,1330.6,1650.4,1330.6,1650.5,1330.6L1650.5,1330.6z"/>
	<path class="st33" d="M1638.4,1251.3c0,7.9-6.4,14.4-14.4,14.4c-7.9,0-14.4-6.4-14.4-14.4c0-7.9,6.4-14.4,14.4-14.4
		C1632,1237,1638.4,1243.4,1638.4,1251.3"/>
</g>
<g>
	<path class="st1" d="M1295,1490.3c2.7,0,4.9-2.1,5.1-4.8c0.3-4.4,0.4-8.5,0.4-12.2c0-19.3-3.1-30-7.3-36.4
		c-2.1-3.2-4.6-5.2-6.8-6.4c-2.1-1.1-4-1.3-5.2-1.4c-0.1,0-0.2,0-0.3,0h-24.7c-0.1,0-0.2,0-0.3,0c-1.2,0-3,0.3-5.2,1.4
		c-3.4,1.7-7.1,5.4-9.7,12c-2.6,6.6-4.4,16.2-4.4,30.7c0,3.7,0.1,7.8,0.4,12.3c0.2,2.7,2.4,4.8,5.1,4.8c0.1,0,0.2,0,0.3,0
		c2.8-0.2,5-2.6,4.8-5.4c-0.3-4.3-0.4-8.1-0.4-11.6c0-15.5,2.2-24.2,4.5-28.7v80.8c0,4.4,3.5,7.9,7.9,7.9c4.4,0,7.9-3.5,7.9-7.9
		v-42.6h3v42.6c0,4.4,3.5,7.9,7.9,7.9c4.4,0,7.9-3.5,7.9-7.9l0-80.8c0.4,0.8,0.8,1.7,1.1,2.7c1.8,5,3.3,13.2,3.3,26
		c0,3.5-0.1,7.4-0.4,11.7c-0.2,2.8,2,5.2,4.8,5.4C1294.8,1490.3,1294.9,1490.3,1295,1490.3L1295,1490.3z"/>
	<path class="st1" d="M1282.9,1411.1c0,7.9-6.4,14.4-14.4,14.4c-7.9,0-14.4-6.4-14.4-14.4c0-7.9,6.4-14.4,14.4-14.4
		C1276.5,1396.7,1282.9,1403.1,1282.9,1411.1"/>
</g>
<g>
	<path class="st1" d="M1383.9,1490.3c2.7,0,4.9-2.1,5.1-4.8c0.3-4.4,0.4-8.5,0.4-12.2c0-19.3-3.1-30-7.3-36.4
		c-2.1-3.2-4.6-5.2-6.8-6.4c-2.1-1.1-4-1.3-5.2-1.4c-0.1,0-0.2,0-0.3,0H1345c-0.1,0-0.2,0-0.3,0c-1.2,0-3,0.3-5.2,1.4
		c-3.4,1.7-7.1,5.4-9.7,12c-2.6,6.6-4.4,16.2-4.4,30.7c0,3.7,0.1,7.8,0.4,12.3c0.2,2.7,2.4,4.8,5.1,4.8c0.1,0,0.2,0,0.3,0
		c2.8-0.2,5-2.6,4.8-5.4c-0.3-4.3-0.4-8.1-0.4-11.6c0-15.5,2.2-24.2,4.5-28.7v80.8c0,4.4,3.5,7.9,7.9,7.9c4.4,0,7.9-3.5,7.9-7.9
		v-42.6h3v42.6c0,4.4,3.5,7.9,7.9,7.9c4.4,0,7.9-3.5,7.9-7.9l0-80.8c0.4,0.8,0.8,1.7,1.1,2.7c1.8,5,3.3,13.2,3.3,26
		c0,3.5-0.1,7.4-0.4,11.7c-0.2,2.8,2,5.2,4.8,5.4C1383.7,1490.3,1383.8,1490.3,1383.9,1490.3L1383.9,1490.3z"/>
	<path class="st1" d="M1371.8,1411.1c0,7.9-6.4,14.4-14.4,14.4c-7.9,0-14.4-6.4-14.4-14.4c0-7.9,6.4-14.4,14.4-14.4
		C1365.3,1396.7,1371.8,1403.1,1371.8,1411.1"/>
</g>
<g>
	<path class="st1" d="M1472.8,1490.3c2.7,0,4.9-2.1,5.1-4.8c0.3-4.4,0.4-8.5,0.4-12.2c0-19.3-3.1-30-7.3-36.4
		c-2.1-3.2-4.6-5.2-6.8-6.4c-2.1-1.1-4-1.3-5.2-1.4c-0.1,0-0.2,0-0.3,0h-24.7c-0.1,0-0.2,0-0.3,0c-1.2,0-3,0.3-5.2,1.4
		c-3.4,1.7-7.1,5.4-9.7,12c-2.6,6.6-4.4,16.2-4.4,30.7c0,3.7,0.1,7.8,0.4,12.3c0.2,2.7,2.4,4.8,5.1,4.8c0.1,0,0.2,0,0.3,0
		c2.8-0.2,5-2.6,4.8-5.4c-0.3-4.3-0.4-8.1-0.4-11.6c0-15.5,2.2-24.2,4.5-28.7v80.8c0,4.4,3.5,7.9,7.9,7.9c4.4,0,7.9-3.5,7.9-7.9
		v-42.6h3v42.6c0,4.4,3.5,7.9,7.9,7.9c4.4,0,7.9-3.5,7.9-7.9l0-80.8c0.4,0.8,0.8,1.7,1.1,2.7c1.8,5,3.3,13.2,3.3,26
		c0,3.5-0.1,7.4-0.4,11.7c-0.2,2.8,2,5.2,4.8,5.4C1472.6,1490.3,1472.7,1490.3,1472.8,1490.3L1472.8,1490.3z"/>
	<path class="st1" d="M1460.7,1411.1c0,7.9-6.4,14.4-14.4,14.4c-7.9,0-14.4-6.4-14.4-14.4c0-7.9,6.4-14.4,14.4-14.4
		C1454.2,1396.7,1460.7,1403.1,1460.7,1411.1"/>
</g>
<g>
	<path class="st1" d="M1561.6,1490.3c2.7,0,4.9-2.1,5.1-4.8c0.3-4.4,0.4-8.5,0.4-12.2c0-19.3-3.1-30-7.3-36.4
		c-2.1-3.2-4.6-5.2-6.8-6.4c-2.1-1.1-4-1.3-5.2-1.4c-0.1,0-0.2,0-0.3,0h-24.7c-0.1,0-0.2,0-0.3,0c-1.2,0-3,0.3-5.2,1.4
		c-3.4,1.7-7.1,5.4-9.7,12c-2.6,6.6-4.4,16.2-4.4,30.7c0,3.7,0.1,7.8,0.4,12.3c0.2,2.7,2.4,4.8,5.1,4.8c0.1,0,0.2,0,0.3,0
		c2.8-0.2,5-2.6,4.8-5.4c-0.3-4.3-0.4-8.1-0.4-11.6c0-15.5,2.2-24.2,4.5-28.7v80.8c0,4.4,3.5,7.9,7.9,7.9c4.4,0,7.9-3.5,7.9-7.9
		v-42.6h3v42.6c0,4.4,3.5,7.9,7.9,7.9c4.4,0,7.9-3.5,7.9-7.9l0-80.8c0.4,0.8,0.8,1.7,1.1,2.7c1.8,5,3.3,13.2,3.3,26
		c0,3.5-0.1,7.4-0.4,11.7c-0.2,2.8,2,5.2,4.8,5.4C1561.4,1490.3,1561.5,1490.3,1561.6,1490.3L1561.6,1490.3z"/>
	<path class="st1" d="M1549.5,1411.1c0,7.9-6.4,14.4-14.4,14.4c-7.9,0-14.4-6.4-14.4-14.4c0-7.9,6.4-14.4,14.4-14.4
		C1543.1,1396.7,1549.5,1403.1,1549.5,1411.1"/>
</g>
<g>
	<path class="st34" d="M1650.5,1490.3c2.7,0,4.9-2.1,5.1-4.8c0.3-4.4,0.4-8.5,0.4-12.2c0-19.3-3.1-30-7.3-36.4
		c-2.1-3.2-4.6-5.2-6.8-6.4c-2.1-1.1-4-1.3-5.2-1.4c-0.1,0-0.2,0-0.3,0h-24.7c-0.1,0-0.2,0-0.3,0c-1.2,0-3,0.3-5.2,1.4
		c-3.4,1.7-7.1,5.4-9.7,12c-2.6,6.6-4.4,16.2-4.4,30.7c0,3.7,0.1,7.8,0.4,12.3c0.2,2.7,2.4,4.8,5.1,4.8c0.1,0,0.2,0,0.3,0
		c2.8-0.2,5-2.6,4.8-5.4c-0.3-4.3-0.4-8.1-0.4-11.6c0-15.5,2.2-24.2,4.5-28.7v80.8c0,4.4,3.5,7.9,7.9,7.9c4.4,0,7.9-3.5,7.9-7.9
		v-42.6h3v42.6c0,4.4,3.5,7.9,7.9,7.9c4.4,0,7.9-3.5,7.9-7.9l0-80.8c0.4,0.8,0.8,1.7,1.1,2.7c1.8,5,3.3,13.2,3.3,26
		c0,3.5-0.1,7.4-0.4,11.7c-0.2,2.8,2,5.2,4.8,5.4C1650.3,1490.3,1650.4,1490.3,1650.5,1490.3L1650.5,1490.3z"/>
	<path class="st34" d="M1638.4,1411.1c0,7.9-6.4,14.4-14.4,14.4c-7.9,0-14.4-6.4-14.4-14.4c0-7.9,6.4-14.4,14.4-14.4
		C1632,1396.7,1638.4,1403.1,1638.4,1411.1"/>
</g>
<g>
	<path class="st1" d="M1295,1650.1c2.7,0,4.9-2.1,5.1-4.8c0.3-4.4,0.4-8.5,0.4-12.2c0-19.3-3.1-30-7.3-36.4
		c-2.1-3.2-4.6-5.2-6.8-6.4c-2.1-1.1-4-1.3-5.2-1.4c-0.1,0-0.2,0-0.3,0h-24.7c-0.1,0-0.2,0-0.3,0c-1.2,0-3,0.3-5.2,1.4
		c-3.4,1.7-7.1,5.4-9.7,12c-2.6,6.6-4.4,16.2-4.4,30.7c0,3.7,0.1,7.8,0.4,12.3c0.2,2.7,2.4,4.8,5.1,4.8c0.1,0,0.2,0,0.3,0
		c2.8-0.2,5-2.6,4.8-5.4c-0.3-4.3-0.4-8.1-0.4-11.6c0-15.5,2.2-24.2,4.5-28.7v80.8c0,4.4,3.5,7.9,7.9,7.9c4.4,0,7.9-3.5,7.9-7.9
		v-42.6h3v42.6c0,4.4,3.5,7.9,7.9,7.9c4.4,0,7.9-3.5,7.9-7.9l0-80.8c0.4,0.8,0.8,1.7,1.1,2.7c1.8,5,3.3,13.2,3.3,26
		c0,3.5-0.1,7.4-0.4,11.7c-0.2,2.8,2,5.2,4.8,5.4C1294.8,1650.1,1294.9,1650.1,1295,1650.1L1295,1650.1z"/>
	<path class="st1" d="M1282.9,1570.8c0,7.9-6.4,14.4-14.4,14.4c-7.9,0-14.4-6.4-14.4-14.4c0-7.9,6.4-14.4,14.4-14.4
		C1276.5,1556.4,1282.9,1562.9,1282.9,1570.8"/>
</g>
<g>
	<path class="st1" d="M1383.9,1650.1c2.7,0,4.9-2.1,5.1-4.8c0.3-4.4,0.4-8.5,0.4-12.2c0-19.3-3.1-30-7.3-36.4
		c-2.1-3.2-4.6-5.2-6.8-6.4c-2.1-1.1-4-1.3-5.2-1.4c-0.1,0-0.2,0-0.3,0H1345c-0.1,0-0.2,0-0.3,0c-1.2,0-3,0.3-5.2,1.4
		c-3.4,1.7-7.1,5.4-9.7,12c-2.6,6.6-4.4,16.2-4.4,30.7c0,3.7,0.1,7.8,0.4,12.3c0.2,2.7,2.4,4.8,5.1,4.8c0.1,0,0.2,0,0.3,0
		c2.8-0.2,5-2.6,4.8-5.4c-0.3-4.3-0.4-8.1-0.4-11.6c0-15.5,2.2-24.2,4.5-28.7v80.8c0,4.4,3.5,7.9,7.9,7.9c4.4,0,7.9-3.5,7.9-7.9
		v-42.6h3v42.6c0,4.4,3.5,7.9,7.9,7.9c4.4,0,7.9-3.5,7.9-7.9l0-80.8c0.4,0.8,0.8,1.7,1.1,2.7c1.8,5,3.3,13.2,3.3,26
		c0,3.5-0.1,7.4-0.4,11.7c-0.2,2.8,2,5.2,4.8,5.4C1383.7,1650.1,1383.8,1650.1,1383.9,1650.1L1383.9,1650.1z"/>
	<path class="st1" d="M1371.8,1570.8c0,7.9-6.4,14.4-14.4,14.4c-7.9,0-14.4-6.4-14.4-14.4c0-7.9,6.4-14.4,14.4-14.4
		C1365.3,1556.4,1371.8,1562.9,1371.8,1570.8"/>
</g>
<g>
	<path class="st1" d="M1272.3,2053c1.3,0,2.5-1,2.6-2.4c0.1-2.2,0.2-4.3,0.2-6.1c0-9.6-1.6-15-3.7-18.2c-1.1-1.6-2.3-2.6-3.4-3.2
		c-1.1-0.5-2-0.7-2.6-0.7c0,0-0.1,0-0.1,0h-12.4c0,0-0.1,0-0.1,0c-0.6,0-1.5,0.1-2.6,0.7c-1.7,0.9-3.6,2.7-4.9,6
		c-1.3,3.3-2.2,8.1-2.2,15.4c0,1.9,0.1,3.9,0.2,6.1c0.1,1.4,1.2,2.4,2.6,2.4c0.1,0,0.1,0,0.2,0c1.4-0.1,2.5-1.3,2.4-2.7
		c-0.1-2.1-0.2-4.1-0.2-5.8c0-7.7,1.1-12.1,2.2-14.4v40.4c0,2.2,1.8,4,4,4c2.2,0,4-1.8,4-4v-21.3h1.5v21.3c0,2.2,1.8,4,4,4
		c2.2,0,4-1.8,4-4l0-40.4c0.2,0.4,0.4,0.8,0.6,1.4c0.9,2.5,1.7,6.6,1.7,13c0,1.8-0.1,3.7-0.2,5.8c-0.1,1.4,1,2.6,2.4,2.7
		C1272.2,2053,1272.3,2053,1272.3,2053L1272.3,2053z"/>
	<path class="st1" d="M1266.3,2013.4c0,4-3.2,7.2-7.2,7.2c-4,0-7.2-3.2-7.2-7.2c0-4,3.2-7.2,7.2-7.2
		C1263.1,2006.2,1266.3,2009.4,1266.3,2013.4"/>
</g>
<g>
	<path class="st1" d="M1316.8,2053c1.3,0,2.5-1,2.6-2.4c0.1-2.2,0.2-4.3,0.2-6.1c0-9.6-1.6-15-3.7-18.2c-1.1-1.6-2.3-2.6-3.4-3.2
		c-1.1-0.5-2-0.7-2.6-0.7c0,0-0.1,0-0.1,0h-12.4c0,0-0.1,0-0.1,0c-0.6,0-1.5,0.1-2.6,0.7c-1.7,0.9-3.6,2.7-4.9,6
		c-1.3,3.3-2.2,8.1-2.2,15.4c0,1.9,0.1,3.9,0.2,6.1c0.1,1.4,1.2,2.4,2.6,2.4c0.1,0,0.1,0,0.2,0c1.4-0.1,2.5-1.3,2.4-2.7
		c-0.1-2.1-0.2-4.1-0.2-5.8c0-7.7,1.1-12.1,2.2-14.4v40.4c0,2.2,1.8,4,4,4c2.2,0,4-1.8,4-4v-21.3h1.5v21.3c0,2.2,1.8,4,4,4
		c2.2,0,4-1.8,4-4l0-40.4c0.2,0.4,0.4,0.8,0.6,1.4c0.9,2.5,1.7,6.6,1.7,13c0,1.8-0.1,3.7-0.2,5.8c-0.1,1.4,1,2.6,2.4,2.7
		C1316.7,2053,1316.7,2053,1316.8,2053L1316.8,2053z"/>
	<path class="st1" d="M1310.7,2013.4c0,4-3.2,7.2-7.2,7.2c-4,0-7.2-3.2-7.2-7.2c0-4,3.2-7.2,7.2-7.2
		C1307.5,2006.2,1310.7,2009.4,1310.7,2013.4"/>
</g>
<g>
	<path class="st1" d="M1437.3,2053c1.3,0,2.5-1,2.6-2.4c0.1-2.2,0.2-4.3,0.2-6.1c0-9.6-1.6-15-3.7-18.2c-1.1-1.6-2.3-2.6-3.4-3.2
		c-1.1-0.5-2-0.7-2.6-0.7c0,0-0.1,0-0.1,0h-12.4c0,0-0.1,0-0.1,0c-0.6,0-1.5,0.1-2.6,0.7c-1.7,0.9-3.6,2.7-4.9,6
		c-1.3,3.3-2.2,8.1-2.2,15.4c0,1.9,0.1,3.9,0.2,6.1c0.1,1.4,1.2,2.4,2.6,2.4c0.1,0,0.1,0,0.2,0c1.4-0.1,2.5-1.3,2.4-2.7
		c-0.1-2.1-0.2-4.1-0.2-5.8c0-7.7,1.1-12.1,2.2-14.4v40.4c0,2.2,1.8,4,4,4c2.2,0,4-1.8,4-4v-21.3h1.5v21.3c0,2.2,1.8,4,4,4
		c2.2,0,4-1.8,4-4l0-40.4c0.2,0.4,0.4,0.8,0.6,1.4c0.9,2.5,1.7,6.6,1.7,13c0,1.8-0.1,3.7-0.2,5.8c-0.1,1.4,1,2.6,2.4,2.7
		C1437.2,2053,1437.2,2053,1437.3,2053L1437.3,2053z"/>
	<path class="st1" d="M1431.2,2013.4c0,4-3.2,7.2-7.2,7.2c-4,0-7.2-3.2-7.2-7.2c0-4,3.2-7.2,7.2-7.2
		C1428,2006.2,1431.2,2009.4,1431.2,2013.4"/>
</g>
<g>
	<path class="st1" d="M1481.7,2053c1.3,0,2.5-1,2.6-2.4c0.1-2.2,0.2-4.3,0.2-6.1c0-9.6-1.6-15-3.7-18.2c-1.1-1.6-2.3-2.6-3.4-3.2
		c-1.1-0.5-2-0.7-2.6-0.7c0,0-0.1,0-0.1,0h-12.4c0,0-0.1,0-0.1,0c-0.6,0-1.5,0.1-2.6,0.7c-1.7,0.9-3.6,2.7-4.9,6
		c-1.3,3.3-2.2,8.1-2.2,15.4c0,1.9,0.1,3.9,0.2,6.1c0.1,1.4,1.2,2.4,2.6,2.4c0.1,0,0.1,0,0.2,0c1.4-0.1,2.5-1.3,2.4-2.7
		c-0.1-2.1-0.2-4.1-0.2-5.8c0-7.7,1.1-12.1,2.2-14.4v40.4c0,2.2,1.8,4,4,4c2.2,0,4-1.8,4-4v-21.3h1.5v21.3c0,2.2,1.8,4,4,4
		c2.2,0,4-1.8,4-4l0-40.4c0.2,0.4,0.4,0.8,0.6,1.4c0.9,2.5,1.7,6.6,1.7,13c0,1.8-0.1,3.7-0.2,5.8c-0.1,1.4,1,2.6,2.4,2.7
		C1481.6,2053,1481.7,2053,1481.7,2053L1481.7,2053z"/>
	<path class="st1" d="M1475.7,2013.4c0,4-3.2,7.2-7.2,7.2c-4,0-7.2-3.2-7.2-7.2c0-4,3.2-7.2,7.2-7.2
		C1472.5,2006.2,1475.7,2009.4,1475.7,2013.4"/>
</g>
<g>
	<path class="st36" d="M1526.1,2053c1.3,0,2.5-1,2.6-2.4c0.1-2.2,0.2-4.3,0.2-6.1c0-9.6-1.6-15-3.7-18.2c-1.1-1.6-2.3-2.6-3.4-3.2
		c-1.1-0.5-2-0.7-2.6-0.7c0,0-0.1,0-0.1,0h-12.4c0,0-0.1,0-0.1,0c-0.6,0-1.5,0.1-2.6,0.7c-1.7,0.9-3.6,2.7-4.9,6
		c-1.3,3.3-2.2,8.1-2.2,15.4c0,1.9,0.1,3.9,0.2,6.1c0.1,1.4,1.2,2.4,2.6,2.4c0.1,0,0.1,0,0.2,0c1.4-0.1,2.5-1.3,2.4-2.7
		c-0.1-2.1-0.2-4.1-0.2-5.8c0-7.7,1.1-12.1,2.2-14.4v40.4c0,2.2,1.8,4,4,4c2.2,0,4-1.8,4-4v-21.3h1.5v21.3c0,2.2,1.8,4,4,4
		c2.2,0,4-1.8,4-4l0-40.4c0.2,0.4,0.4,0.8,0.6,1.4c0.9,2.5,1.7,6.6,1.7,13c0,1.8-0.1,3.7-0.2,5.8c-0.1,1.4,1,2.6,2.4,2.7
		C1526,2053,1526,2053,1526.1,2053L1526.1,2053z"/>
	<path class="st36" d="M1520,2013.4c0,4-3.2,7.2-7.2,7.2c-4,0-7.2-3.2-7.2-7.2c0-4,3.2-7.2,7.2-7.2
		C1516.8,2006.2,1520,2009.4,1520,2013.4"/>
</g>
<g>
	<path class="st1" d="M1627.2,2053c1.3,0,2.5-1,2.6-2.4c0.1-2.2,0.2-4.3,0.2-6.1c0-9.6-1.6-15-3.7-18.2c-1.1-1.6-2.3-2.6-3.4-3.2
		c-1.1-0.5-2-0.7-2.6-0.7c0,0-0.1,0-0.1,0h-12.4c0,0-0.1,0-0.1,0c-0.6,0-1.5,0.1-2.6,0.7c-1.7,0.9-3.6,2.7-4.9,6
		c-1.3,3.3-2.2,8.1-2.2,15.4c0,1.9,0.1,3.9,0.2,6.1c0.1,1.4,1.2,2.4,2.6,2.4c0.1,0,0.1,0,0.2,0c1.4-0.1,2.5-1.3,2.4-2.7
		c-0.1-2.1-0.2-4.1-0.2-5.8c0-7.7,1.1-12.1,2.2-14.4v40.4c0,2.2,1.8,4,4,4c2.2,0,4-1.8,4-4v-21.3h1.5v21.3c0,2.2,1.8,4,4,4
		c2.2,0,4-1.8,4-4l0-40.4c0.2,0.4,0.4,0.8,0.6,1.4c0.9,2.5,1.7,6.6,1.7,13c0,1.8-0.1,3.7-0.2,5.8c-0.1,1.4,1,2.6,2.4,2.7
		C1627.1,2053,1627.2,2053,1627.2,2053L1627.2,2053z"/>
	<path class="st1" d="M1621.2,2013.4c0,4-3.2,7.2-7.2,7.2c-4,0-7.2-3.2-7.2-7.2c0-4,3.2-7.2,7.2-7.2
		C1618,2006.2,1621.2,2009.4,1621.2,2013.4"/>
</g>
<g>
	<path class="st1" d="M1671.7,2053c1.3,0,2.5-1,2.6-2.4c0.1-2.2,0.2-4.3,0.2-6.1c0-9.6-1.6-15-3.7-18.2c-1.1-1.6-2.3-2.6-3.4-3.2
		c-1.1-0.5-2-0.7-2.6-0.7c0,0-0.1,0-0.1,0h-12.4c0,0-0.1,0-0.1,0c-0.6,0-1.5,0.1-2.6,0.7c-1.7,0.9-3.6,2.7-4.9,6
		c-1.3,3.3-2.2,8.1-2.2,15.4c0,1.9,0.1,3.9,0.2,6.1c0.1,1.4,1.2,2.4,2.6,2.4c0.1,0,0.1,0,0.2,0c1.4-0.1,2.5-1.3,2.4-2.7
		c-0.1-2.1-0.2-4.1-0.2-5.8c0-7.7,1.1-12.1,2.2-14.4v40.4c0,2.2,1.8,4,4,4c2.2,0,4-1.8,4-4v-21.3h1.5v21.3c0,2.2,1.8,4,4,4
		c2.2,0,4-1.8,4-4l0-40.4c0.2,0.4,0.4,0.8,0.6,1.4c0.9,2.5,1.7,6.6,1.7,13c0,1.8-0.1,3.7-0.2,5.8c-0.1,1.4,1,2.6,2.4,2.7
		C1671.6,2053,1671.6,2053,1671.7,2053L1671.7,2053z"/>
	<path class="st1" d="M1665.6,2013.4c0,4-3.2,7.2-7.2,7.2c-4,0-7.2-3.2-7.2-7.2c0-4,3.2-7.2,7.2-7.2
		C1662.4,2006.2,1665.6,2009.4,1665.6,2013.4"/>
</g>
<g>
	<path class="st1" d="M1814.5,2065.5c1.3,0,2.5-1,2.6-2.4c0.1-2.2,0.2-4.3,0.2-6.1c0-9.6-1.6-15-3.7-18.2c-1.1-1.6-2.3-2.6-3.4-3.2
		c-1.1-0.5-2-0.7-2.6-0.7c0,0-0.1,0-0.1,0h-12.4c0,0-0.1,0-0.1,0c-0.6,0-1.5,0.1-2.6,0.7c-1.7,0.9-3.6,2.7-4.9,6
		c-1.3,3.3-2.2,8.1-2.2,15.4c0,1.9,0.1,3.9,0.2,6.1c0.1,1.4,1.2,2.4,2.6,2.4c0.1,0,0.1,0,0.2,0c1.4-0.1,2.5-1.3,2.4-2.7
		c-0.1-2.1-0.2-4.1-0.2-5.8c0-7.7,1.1-12.1,2.2-14.4v40.4c0,2.2,1.8,4,4,4c2.2,0,4-1.8,4-4v-21.3h1.5v21.3c0,2.2,1.8,4,4,4
		c2.2,0,4-1.8,4-4l0-40.4c0.2,0.4,0.4,0.8,0.6,1.4c0.9,2.5,1.7,6.6,1.7,13c0,1.8-0.1,3.7-0.2,5.8c-0.1,1.4,1,2.6,2.4,2.7
		C1814.4,2065.5,1814.4,2065.5,1814.5,2065.5L1814.5,2065.5z"/>
	<path class="st1" d="M1808.4,2025.9c0,4-3.2,7.2-7.2,7.2c-4,0-7.2-3.2-7.2-7.2c0-4,3.2-7.2,7.2-7.2
		C1805.2,2018.7,1808.4,2021.9,1808.4,2025.9"/>
</g>
<g>
	<path class="st1" d="M1858.9,2065.5c1.3,0,2.5-1,2.6-2.4c0.1-2.2,0.2-4.3,0.2-6.1c0-9.6-1.6-15-3.7-18.2c-1.1-1.6-2.3-2.6-3.4-3.2
		c-1.1-0.5-2-0.7-2.6-0.7c0,0-0.1,0-0.1,0h-12.4c0,0-0.1,0-0.1,0c-0.6,0-1.5,0.1-2.6,0.7c-1.7,0.9-3.6,2.7-4.9,6
		c-1.3,3.3-2.2,8.1-2.2,15.4c0,1.9,0.1,3.9,0.2,6.1c0.1,1.4,1.2,2.4,2.6,2.4c0.1,0,0.1,0,0.2,0c1.4-0.1,2.5-1.3,2.4-2.7
		c-0.1-2.1-0.2-4.1-0.2-5.8c0-7.7,1.1-12.1,2.2-14.4v40.4c0,2.2,1.8,4,4,4c2.2,0,4-1.8,4-4v-21.3h1.5v21.3c0,2.2,1.8,4,4,4
		c2.2,0,4-1.8,4-4l0-40.4c0.2,0.4,0.4,0.8,0.6,1.4c0.9,2.5,1.7,6.6,1.7,13c0,1.8-0.1,3.7-0.2,5.8c-0.1,1.4,1,2.6,2.4,2.7
		C1858.8,2065.5,1858.9,2065.5,1858.9,2065.5L1858.9,2065.5z"/>
	<path class="st1" d="M1852.9,2025.9c0,4-3.2,7.2-7.2,7.2c-4,0-7.2-3.2-7.2-7.2c0-4,3.2-7.2,7.2-7.2
		C1849.6,2018.7,1852.9,2021.9,1852.9,2025.9"/>
</g>
<g>
	<path class="st1" d="M1904.8,2065.5c1.3,0,2.5-1,2.6-2.4c0.1-2.2,0.2-4.3,0.2-6.1c0-9.6-1.6-15-3.7-18.2c-1.1-1.6-2.3-2.6-3.4-3.2
		c-1.1-0.5-2-0.7-2.6-0.7c0,0-0.1,0-0.1,0h-12.4c0,0-0.1,0-0.1,0c-0.6,0-1.5,0.1-2.6,0.7c-1.7,0.9-3.6,2.7-4.9,6
		c-1.3,3.3-2.2,8.1-2.2,15.4c0,1.9,0.1,3.9,0.2,6.1c0.1,1.4,1.2,2.4,2.6,2.4c0.1,0,0.1,0,0.2,0c1.4-0.1,2.5-1.3,2.4-2.7
		c-0.1-2.1-0.2-4.1-0.2-5.8c0-7.7,1.1-12.1,2.2-14.4v40.4c0,2.2,1.8,4,4,4c2.2,0,4-1.8,4-4v-21.3h1.5v21.3c0,2.2,1.8,4,4,4
		c2.2,0,4-1.8,4-4l0-40.4c0.2,0.4,0.4,0.8,0.6,1.4c0.9,2.5,1.7,6.6,1.7,13c0,1.8-0.1,3.7-0.2,5.8c-0.1,1.4,1,2.6,2.4,2.7
		C1904.7,2065.5,1904.8,2065.5,1904.8,2065.5L1904.8,2065.5z"/>
	<path class="st1" d="M1898.8,2025.9c0,4-3.2,7.2-7.2,7.2c-4,0-7.2-3.2-7.2-7.2c0-4,3.2-7.2,7.2-7.2
		C1895.6,2018.7,1898.8,2021.9,1898.8,2025.9"/>
</g>
<g>
	<path class="st1" d="M1949.3,2065.5c1.3,0,2.5-1,2.6-2.4c0.1-2.2,0.2-4.3,0.2-6.1c0-9.6-1.6-15-3.7-18.2c-1.1-1.6-2.3-2.6-3.4-3.2
		c-1.1-0.5-2-0.7-2.6-0.7c0,0-0.1,0-0.1,0h-12.4c0,0-0.1,0-0.1,0c-0.6,0-1.5,0.1-2.6,0.7c-1.7,0.9-3.6,2.7-4.9,6
		c-1.3,3.3-2.2,8.1-2.2,15.4c0,1.9,0.1,3.9,0.2,6.1c0.1,1.4,1.2,2.4,2.6,2.4c0.1,0,0.1,0,0.2,0c1.4-0.1,2.5-1.3,2.4-2.7
		c-0.1-2.1-0.2-4.1-0.2-5.8c0-7.7,1.1-12.1,2.2-14.4v40.4c0,2.2,1.8,4,4,4c2.2,0,4-1.8,4-4v-21.3h1.5v21.3c0,2.2,1.8,4,4,4
		c2.2,0,4-1.8,4-4l0-40.4c0.2,0.4,0.4,0.8,0.6,1.4c0.9,2.5,1.7,6.6,1.7,13c0,1.8-0.1,3.7-0.2,5.8c-0.1,1.4,1,2.6,2.4,2.7
		C1949.2,2065.5,1949.2,2065.5,1949.3,2065.5L1949.3,2065.5z"/>
	<path class="st1" d="M1943.2,2025.9c0,4-3.2,7.2-7.2,7.2c-4,0-7.2-3.2-7.2-7.2c0-4,3.2-7.2,7.2-7.2
		C1940,2018.7,1943.2,2021.9,1943.2,2025.9"/>
</g>
<g class="st37">
	<path class="st1" d="M1830.2,2057.4c1.3,0,2.5-1,2.6-2.4c0.1-2.2,0.2-4.3,0.2-6.1c0-9.6-1.6-15-3.7-18.2c-1.1-1.6-2.3-2.6-3.4-3.2
		c-1.1-0.5-2-0.7-2.6-0.7c0,0-0.1,0-0.1,0h-12.4c0,0-0.1,0-0.1,0c-0.6,0-1.5,0.1-2.6,0.7c-1.7,0.9-3.6,2.7-4.9,6
		c-1.3,3.3-2.2,8.1-2.2,15.4c0,1.9,0.1,3.9,0.2,6.1c0.1,1.4,1.2,2.4,2.6,2.4c0.1,0,0.1,0,0.2,0c1.4-0.1,2.5-1.3,2.4-2.7
		c-0.1-2.1-0.2-4.1-0.2-5.8c0-7.7,1.1-12.1,2.2-14.4v40.4c0,2.2,1.8,4,4,4c2.2,0,4-1.8,4-4v-21.3h1.5v21.3c0,2.2,1.8,4,4,4
		c2.2,0,4-1.8,4-4l0-40.4c0.2,0.4,0.4,0.8,0.6,1.4c0.9,2.5,1.7,6.6,1.7,13c0,1.8-0.1,3.7-0.2,5.8c-0.1,1.4,1,2.6,2.4,2.7
		C1830.1,2057.4,1830.2,2057.4,1830.2,2057.4L1830.2,2057.4z"/>
	<path class="st1" d="M1824.2,2017.8c0,4-3.2,7.2-7.2,7.2c-4,0-7.2-3.2-7.2-7.2c0-4,3.2-7.2,7.2-7.2
		C1821,2010.6,1824.2,2013.8,1824.2,2017.8"/>
</g>
<g class="st37">
	<path class="st1" d="M1874.7,2057.4c1.3,0,2.5-1,2.6-2.4c0.1-2.2,0.2-4.3,0.2-6.1c0-9.6-1.6-15-3.7-18.2c-1.1-1.6-2.3-2.6-3.4-3.2
		c-1.1-0.5-2-0.7-2.6-0.7c0,0-0.1,0-0.1,0h-12.4c0,0-0.1,0-0.1,0c-0.6,0-1.5,0.1-2.6,0.7c-1.7,0.9-3.6,2.7-4.9,6
		c-1.3,3.3-2.2,8.1-2.2,15.4c0,1.9,0.1,3.9,0.2,6.1c0.1,1.4,1.2,2.4,2.6,2.4c0.1,0,0.1,0,0.2,0c1.4-0.1,2.5-1.3,2.4-2.7
		c-0.1-2.1-0.2-4.1-0.2-5.8c0-7.7,1.1-12.1,2.2-14.4v40.4c0,2.2,1.8,4,4,4c2.2,0,4-1.8,4-4v-21.3h1.5v21.3c0,2.2,1.8,4,4,4
		c2.2,0,4-1.8,4-4l0-40.4c0.2,0.4,0.4,0.8,0.6,1.4c0.9,2.5,1.7,6.6,1.7,13c0,1.8-0.1,3.7-0.2,5.8c-0.1,1.4,1,2.6,2.4,2.7
		C1874.6,2057.4,1874.6,2057.4,1874.7,2057.4L1874.7,2057.4z"/>
	<path class="st1" d="M1868.6,2017.8c0,4-3.2,7.2-7.2,7.2c-4,0-7.2-3.2-7.2-7.2c0-4,3.2-7.2,7.2-7.2
		C1865.4,2010.6,1868.6,2013.8,1868.6,2017.8"/>
</g>
<g class="st37">
	<path class="st1" d="M1920.6,2057.4c1.3,0,2.5-1,2.6-2.4c0.1-2.2,0.2-4.3,0.2-6.1c0-9.6-1.6-15-3.7-18.2c-1.1-1.6-2.3-2.6-3.4-3.2
		c-1.1-0.5-2-0.7-2.6-0.7c0,0-0.1,0-0.1,0h-12.4c0,0-0.1,0-0.1,0c-0.6,0-1.5,0.1-2.6,0.7c-1.7,0.9-3.6,2.7-4.9,6
		c-1.3,3.3-2.2,8.1-2.2,15.4c0,1.9,0.1,3.9,0.2,6.1c0.1,1.4,1.2,2.4,2.6,2.4c0.1,0,0.1,0,0.2,0c1.4-0.1,2.5-1.3,2.4-2.7
		c-0.1-2.1-0.2-4.1-0.2-5.8c0-7.7,1.1-12.1,2.2-14.4v40.4c0,2.2,1.8,4,4,4c2.2,0,4-1.8,4-4v-21.3h1.5v21.3c0,2.2,1.8,4,4,4
		c2.2,0,4-1.8,4-4l0-40.4c0.2,0.4,0.4,0.8,0.6,1.4c0.9,2.5,1.7,6.6,1.7,13c0,1.8-0.1,3.7-0.2,5.8c-0.1,1.4,1,2.6,2.4,2.7
		C1920.5,2057.4,1920.6,2057.4,1920.6,2057.4L1920.6,2057.4z"/>
	<path class="st1" d="M1914.5,2017.8c0,4-3.2,7.2-7.2,7.2c-4,0-7.2-3.2-7.2-7.2c0-4,3.2-7.2,7.2-7.2
		C1911.3,2010.6,1914.5,2013.8,1914.5,2017.8"/>
</g>
<g class="st37">
	<path class="st1" d="M1965,2057.4c1.3,0,2.5-1,2.6-2.4c0.1-2.2,0.2-4.3,0.2-6.1c0-9.6-1.6-15-3.7-18.2c-1.1-1.6-2.3-2.6-3.4-3.2
		c-1.1-0.5-2-0.7-2.6-0.7c0,0-0.1,0-0.1,0h-12.4c0,0-0.1,0-0.1,0c-0.6,0-1.5,0.1-2.6,0.7c-1.7,0.9-3.6,2.7-4.9,6
		c-1.3,3.3-2.2,8.1-2.2,15.4c0,1.9,0.1,3.9,0.2,6.1c0.1,1.4,1.2,2.4,2.6,2.4c0.1,0,0.1,0,0.2,0c1.4-0.1,2.5-1.3,2.4-2.7
		c-0.1-2.1-0.2-4.1-0.2-5.8c0-7.7,1.1-12.1,2.2-14.4v40.4c0,2.2,1.8,4,4,4c2.2,0,4-1.8,4-4v-21.3h1.5v21.3c0,2.2,1.8,4,4,4
		c2.2,0,4-1.8,4-4l0-40.4c0.2,0.4,0.4,0.8,0.6,1.4c0.9,2.5,1.7,6.6,1.7,13c0,1.8-0.1,3.7-0.2,5.8c-0.1,1.4,1,2.6,2.4,2.7
		C1964.9,2057.4,1965,2057.4,1965,2057.4L1965,2057.4z"/>
	<path class="st1" d="M1959,2017.8c0,4-3.2,7.2-7.2,7.2c-4,0-7.2-3.2-7.2-7.2c0-4,3.2-7.2,7.2-7.2
		C1955.8,2010.6,1959,2013.8,1959,2017.8"/>
</g>
<g class="st0">
	<path class="st1" d="M1846,2047.6c1.3,0,2.5-1,2.6-2.4c0.1-2.2,0.2-4.3,0.2-6.1c0-9.6-1.6-15-3.7-18.2c-1.1-1.6-2.3-2.6-3.4-3.2
		c-1.1-0.5-2-0.7-2.6-0.7c0,0-0.1,0-0.1,0h-12.4c0,0-0.1,0-0.1,0c-0.6,0-1.5,0.1-2.6,0.7c-1.7,0.9-3.6,2.7-4.9,6
		c-1.3,3.3-2.2,8.1-2.2,15.4c0,1.9,0.1,3.9,0.2,6.1c0.1,1.4,1.2,2.4,2.6,2.4c0.1,0,0.1,0,0.2,0c1.4-0.1,2.5-1.3,2.4-2.7
		c-0.1-2.1-0.2-4.1-0.2-5.8c0-7.7,1.1-12.1,2.2-14.4v40.4c0,2.2,1.8,4,4,4c2.2,0,4-1.8,4-4v-21.3h1.5v21.3c0,2.2,1.8,4,4,4
		c2.2,0,4-1.8,4-4l0-40.4c0.2,0.4,0.4,0.8,0.6,1.4c0.9,2.5,1.7,6.6,1.7,13c0,1.8-0.1,3.7-0.2,5.8c-0.1,1.4,1,2.6,2.4,2.7
		C1845.9,2047.6,1846,2047.6,1846,2047.6L1846,2047.6z"/>
	<path class="st1" d="M1840,2008c0,4-3.2,7.2-7.2,7.2c-4,0-7.2-3.2-7.2-7.2c0-4,3.2-7.2,7.2-7.2C1836.7,2000.8,1840,2004,1840,2008"
		/>
</g>
<g class="st0">
	<path class="st1" d="M1890.5,2047.6c1.3,0,2.5-1,2.6-2.4c0.1-2.2,0.2-4.3,0.2-6.1c0-9.6-1.6-15-3.7-18.2c-1.1-1.6-2.3-2.6-3.4-3.2
		c-1.1-0.5-2-0.7-2.6-0.7c0,0-0.1,0-0.1,0H1871c0,0-0.1,0-0.1,0c-0.6,0-1.5,0.1-2.6,0.7c-1.7,0.9-3.6,2.7-4.9,6
		c-1.3,3.3-2.2,8.1-2.2,15.4c0,1.9,0.1,3.9,0.2,6.1c0.1,1.4,1.2,2.4,2.6,2.4c0.1,0,0.1,0,0.2,0c1.4-0.1,2.5-1.3,2.4-2.7
		c-0.1-2.1-0.2-4.1-0.2-5.8c0-7.7,1.1-12.1,2.2-14.4v40.4c0,2.2,1.8,4,4,4c2.2,0,4-1.8,4-4v-21.3h1.5v21.3c0,2.2,1.8,4,4,4
		c2.2,0,4-1.8,4-4l0-40.4c0.2,0.4,0.4,0.8,0.6,1.4c0.9,2.5,1.7,6.6,1.7,13c0,1.8-0.1,3.7-0.2,5.8c-0.1,1.4,1,2.6,2.4,2.7
		C1890.3,2047.6,1890.4,2047.6,1890.5,2047.6L1890.5,2047.6z"/>
	<path class="st1" d="M1884.4,2008c0,4-3.2,7.2-7.2,7.2c-4,0-7.2-3.2-7.2-7.2c0-4,3.2-7.2,7.2-7.2
		C1881.2,2000.8,1884.4,2004,1884.4,2008"/>
</g>
<g class="st0">
	<path class="st1" d="M1936.4,2047.6c1.3,0,2.5-1,2.6-2.4c0.1-2.2,0.2-4.3,0.2-6.1c0-9.6-1.6-15-3.7-18.2c-1.1-1.6-2.3-2.6-3.4-3.2
		c-1.1-0.5-2-0.7-2.6-0.7c0,0-0.1,0-0.1,0h-12.4c0,0-0.1,0-0.1,0c-0.6,0-1.5,0.1-2.6,0.7c-1.7,0.9-3.6,2.7-4.9,6
		c-1.3,3.3-2.2,8.1-2.2,15.4c0,1.9,0.1,3.9,0.2,6.1c0.1,1.4,1.2,2.4,2.6,2.4c0.1,0,0.1,0,0.2,0c1.4-0.1,2.5-1.3,2.4-2.7
		c-0.1-2.1-0.2-4.1-0.2-5.8c0-7.7,1.1-12.1,2.2-14.4v40.4c0,2.2,1.8,4,4,4c2.2,0,4-1.8,4-4v-21.3h1.5v21.3c0,2.2,1.8,4,4,4
		c2.2,0,4-1.8,4-4l0-40.4c0.2,0.4,0.4,0.8,0.6,1.4c0.9,2.5,1.7,6.6,1.7,13c0,1.8-0.1,3.7-0.2,5.8c-0.1,1.4,1,2.6,2.4,2.7
		C1936.3,2047.6,1936.3,2047.6,1936.4,2047.6L1936.4,2047.6z"/>
	<path class="st1" d="M1930.3,2008c0,4-3.2,7.2-7.2,7.2c-4,0-7.2-3.2-7.2-7.2c0-4,3.2-7.2,7.2-7.2
		C1927.1,2000.8,1930.3,2004,1930.3,2008"/>
</g>
<g class="st0">
	<path class="st1" d="M1980.8,2047.6c1.3,0,2.5-1,2.6-2.4c0.1-2.2,0.2-4.3,0.2-6.1c0-9.6-1.6-15-3.7-18.2c-1.1-1.6-2.3-2.6-3.4-3.2
		c-1.1-0.5-2-0.7-2.6-0.7c0,0-0.1,0-0.1,0h-12.4c0,0-0.1,0-0.1,0c-0.6,0-1.5,0.1-2.6,0.7c-1.7,0.9-3.6,2.7-4.9,6
		c-1.3,3.3-2.2,8.1-2.2,15.4c0,1.9,0.1,3.9,0.2,6.1c0.1,1.4,1.2,2.4,2.6,2.4c0.1,0,0.1,0,0.2,0c1.4-0.1,2.5-1.3,2.4-2.7
		c-0.1-2.1-0.2-4.1-0.2-5.8c0-7.7,1.1-12.1,2.2-14.4v40.4c0,2.2,1.8,4,4,4c2.2,0,4-1.8,4-4v-21.3h1.5v21.3c0,2.2,1.8,4,4,4
		c2.2,0,4-1.8,4-4l0-40.4c0.2,0.4,0.4,0.8,0.6,1.4c0.9,2.5,1.7,6.6,1.7,13c0,1.8-0.1,3.7-0.2,5.8c-0.1,1.4,1,2.6,2.4,2.7
		C1980.7,2047.6,1980.8,2047.6,1980.8,2047.6L1980.8,2047.6z"/>
	<path class="st1" d="M1974.8,2008c0,4-3.2,7.2-7.2,7.2c-4,0-7.2-3.2-7.2-7.2c0-4,3.2-7.2,7.2-7.2
		C1971.5,2000.8,1974.8,2004,1974.8,2008"/>
</g>
<g>
	<path class="st1" d="M1472.8,1650.1c2.7,0,4.9-2.1,5.1-4.8c0.3-4.4,0.4-8.5,0.4-12.2c0-19.3-3.1-30-7.3-36.4
		c-2.1-3.2-4.6-5.2-6.8-6.4c-2.1-1.1-4-1.3-5.2-1.4c-0.1,0-0.2,0-0.3,0h-24.7c-0.1,0-0.2,0-0.3,0c-1.2,0-3,0.3-5.2,1.4
		c-3.4,1.7-7.1,5.4-9.7,12c-2.6,6.6-4.4,16.2-4.4,30.7c0,3.7,0.1,7.8,0.4,12.3c0.2,2.7,2.4,4.8,5.1,4.8c0.1,0,0.2,0,0.3,0
		c2.8-0.2,5-2.6,4.8-5.4c-0.3-4.3-0.4-8.1-0.4-11.6c0-15.5,2.2-24.2,4.5-28.7v80.8c0,4.4,3.5,7.9,7.9,7.9c4.4,0,7.9-3.5,7.9-7.9
		v-42.6h3v42.6c0,4.4,3.5,7.9,7.9,7.9c4.4,0,7.9-3.5,7.9-7.9l0-80.8c0.4,0.8,0.8,1.7,1.1,2.7c1.8,5,3.3,13.2,3.3,26
		c0,3.5-0.1,7.4-0.4,11.7c-0.2,2.8,2,5.2,4.8,5.4C1472.6,1650.1,1472.7,1650.1,1472.8,1650.1L1472.8,1650.1z"/>
	<path class="st1" d="M1460.7,1570.8c0,7.9-6.4,14.4-14.4,14.4c-7.9,0-14.4-6.4-14.4-14.4c0-7.9,6.4-14.4,14.4-14.4
		C1454.2,1556.4,1460.7,1562.9,1460.7,1570.8"/>
</g>
<g>
	<path class="st1" d="M1561.6,1650.1c2.7,0,4.9-2.1,5.1-4.8c0.3-4.4,0.4-8.5,0.4-12.2c0-19.3-3.1-30-7.3-36.4
		c-2.1-3.2-4.6-5.2-6.8-6.4c-2.1-1.1-4-1.3-5.2-1.4c-0.1,0-0.2,0-0.3,0h-24.7c-0.1,0-0.2,0-0.3,0c-1.2,0-3,0.3-5.2,1.4
		c-3.4,1.7-7.1,5.4-9.7,12c-2.6,6.6-4.4,16.2-4.4,30.7c0,3.7,0.1,7.8,0.4,12.3c0.2,2.7,2.4,4.8,5.1,4.8c0.1,0,0.2,0,0.3,0
		c2.8-0.2,5-2.6,4.8-5.4c-0.3-4.3-0.4-8.1-0.4-11.6c0-15.5,2.2-24.2,4.5-28.7v80.8c0,4.4,3.5,7.9,7.9,7.9c4.4,0,7.9-3.5,7.9-7.9
		v-42.6h3v42.6c0,4.4,3.5,7.9,7.9,7.9c4.4,0,7.9-3.5,7.9-7.9l0-80.8c0.4,0.8,0.8,1.7,1.1,2.7c1.8,5,3.3,13.2,3.3,26
		c0,3.5-0.1,7.4-0.4,11.7c-0.2,2.8,2,5.2,4.8,5.4C1561.4,1650.1,1561.5,1650.1,1561.6,1650.1L1561.6,1650.1z"/>
	<path class="st1" d="M1549.5,1570.8c0,7.9-6.4,14.4-14.4,14.4c-7.9,0-14.4-6.4-14.4-14.4c0-7.9,6.4-14.4,14.4-14.4
		C1543.1,1556.4,1549.5,1562.9,1549.5,1570.8"/>
</g>
<g>
	<path class="st34" d="M1650.5,1650.1c2.7,0,4.9-2.1,5.1-4.8c0.3-4.4,0.4-8.5,0.4-12.2c0-19.3-3.1-30-7.3-36.4
		c-2.1-3.2-4.6-5.2-6.8-6.4c-2.1-1.1-4-1.3-5.2-1.4c-0.1,0-0.2,0-0.3,0h-24.7c-0.1,0-0.2,0-0.3,0c-1.2,0-3,0.3-5.2,1.4
		c-3.4,1.7-7.1,5.4-9.7,12c-2.6,6.6-4.4,16.2-4.4,30.7c0,3.7,0.1,7.8,0.4,12.3c0.2,2.7,2.4,4.8,5.1,4.8c0.1,0,0.2,0,0.3,0
		c2.8-0.2,5-2.6,4.8-5.4c-0.3-4.3-0.4-8.1-0.4-11.6c0-15.5,2.2-24.2,4.5-28.7v80.8c0,4.4,3.5,7.9,7.9,7.9c4.4,0,7.9-3.5,7.9-7.9
		v-42.6h3v42.6c0,4.4,3.5,7.9,7.9,7.9c4.4,0,7.9-3.5,7.9-7.9l0-80.8c0.4,0.8,0.8,1.7,1.1,2.7c1.8,5,3.3,13.2,3.3,26
		c0,3.5-0.1,7.4-0.4,11.7c-0.2,2.8,2,5.2,4.8,5.4C1650.3,1650.1,1650.4,1650.1,1650.5,1650.1L1650.5,1650.1z"/>
	<path class="st34" d="M1638.4,1570.8c0,7.9-6.4,14.4-14.4,14.4c-7.9,0-14.4-6.4-14.4-14.4c0-7.9,6.4-14.4,14.4-14.4
		C1632,1556.4,1638.4,1562.9,1638.4,1570.8"/>
</g>
<polyline class="st35" points="1195.9,588.5 1314.6,588.5 1314.6,430.8 1731.2,430.8 "/>
<line class="st35" x1="1731.2" y1="588.5" x2="1314.6" y2="588.5"/>
<polyline class="st35" points="1195.9,905.5 1314.6,905.5 1314.6,748.4 1731.2,748.4 "/>
<polyline class="st35" points="1195.9,1064.1 1579.4,1064.1 1579.4,905.5 1731.2,905.5 "/>
<line class="st38" x1="1731.2" y1="1064.1" x2="1579.4" y2="1064.1"/>
<polyline class="st35" points="1579.4,1077.2 1579.4,1225.8 1731.2,1225.8 "/>
<polyline class="st35" points="1579.4,1238.8 1579.4,1387.4 1731.2,1387.4 "/>
<path class="st10" d="M1891.2,1496.6h-160.1v-21.4c0-4.2,3.4-7.7,7.7-7.7h129.7c6.3,0,12.2,2.7,16.4,7.4L1891.2,1496.6z"/>
<text transform="matrix(1 0 0 1 1754.6436 1529.8153)" class="st11 st12" style="font-size:27.4526px;">Hallan cadáver</text>
<text transform="matrix(1 0 0 1 1749.7803 1491.3612)"><tspan x="0" y="0" class="st11 st12" style="font-size:24.9005px;">Día 62  </tspan><tspan x="73.9" y="0" class="st11" style="font-family:'FiraSansCondensed-Light'; font-size:24.9005px;">13/11</tspan></text>
<polyline class="st35" points="1579.4,1396.7 1579.4,1545.3 1731.2,1545.3 "/>
<path class="st10" d="M1891.2,1665.1h-160.1v-21.4c0-4.2,3.4-7.7,7.7-7.7h129.7c6.3,0,12.2,2.7,16.4,7.4L1891.2,1665.1z"/>
<text transform="matrix(1 0 0 1 1754.6436 1698.3524)" class="st11 st12" style="font-size:27.4526px;">Hallan cadáver</text>
<text transform="matrix(1 0 0 1 1749.7803 1659.8973)"><tspan x="0" y="0" class="st11 st12" style="font-size:24.9005px;">Día 63  </tspan><tspan x="74.1" y="0" class="st11" style="font-family:'FiraSansCondensed-Light'; font-size:24.9005px;">14/11</tspan></text>
<path class="st9" d="M2027.4,1968H1229c-7.6,0-13.7-6.2-13.7-13.7v-37h813c5,0,9.1,4.1,9.1,9.1v31.7
	C2037.3,1963.5,2032.9,1968,2027.4,1968z"/>
<path class="st10" d="M1375.3,1916.5h-160.1v-21.4c0-4.2,3.4-7.7,7.7-7.7h129.7c6.3,0,12.2,2.7,16.4,7.4L1375.3,1916.5z"/>
<text transform="matrix(1 0 0 1 1238.6924 1949.7391)" class="st11 st12" style="font-size:27.4526px;">Hazaña en busca de ayuda</text>
<text transform="matrix(1 0 0 1 1233.8291 1911.2841)"><tspan x="0" y="0" class="st11 st12" style="font-size:24.9005px;">Día 61  </tspan><tspan x="72.8" y="0" class="st11" style="font-family:'FiraSansCondensed-Light'; font-size:24.9005px;">12/12</tspan></text>
<text transform="matrix(1 0 0 1 1237.8326 2110.3801)"><tspan x="0" y="0" class="st10 st12" style="font-size:18.4014px;">Parrado, Caneza y</tspan><tspan x="0" y="22.1" class="st10 st12" style="font-size:18.4014px;">Vizintín parten en</tspan><tspan x="0" y="44.2" class="st10 st12" style="font-size:18.4014px;">busca de ayuda</tspan></text>
<text transform="matrix(1 0 0 1 1408.0659 2110.3801)"><tspan x="0" y="0" class="st10 st12" style="font-size:18.4014px;">Parrado y Caneza se</tspan><tspan x="0" y="22.1" class="st10 st12" style="font-size:18.4014px;">encuentran con el</tspan><tspan x="0" y="44.2" class="st10 st12" style="font-size:18.4014px;">arriero Sergio</tspan></text>
<text transform="matrix(1 0 0 1 1588.2296 2110.3801)"><tspan x="0" y="0" class="st10 st12" style="font-size:18.4014px;">Parrado y Caneza  </tspan><tspan x="0" y="22.1" class="st10 st12" style="font-size:18.4014px;">son rescatados</tspan></text>
<text transform="matrix(1 0 0 1 1772.8445 2110.3801)"><tspan x="0" y="0" class="st10 st12" style="font-size:18.4014px;">Los sobrevivientes son</tspan><tspan x="0" y="22.1" class="st10 st12" style="font-size:18.4014px;">rescatados en 2 tandas</tspan></text>
<path class="st10" d="M1550.5,1916.5h-160.1v-21.4c0-4.2,3.4-7.7,7.7-7.7h129.7c6.3,0,12.2,2.7,16.4,7.4L1550.5,1916.5z"/>
<text transform="matrix(1 0 0 1 1408.986 1911.2841)"><tspan x="0" y="0" class="st11 st12" style="font-size:24.9005px;">Día 69  </tspan><tspan x="75.1" y="0" class="st11" style="font-family:'FiraSansCondensed-Light'; font-size:24.9005px;">20/12</tspan></text>
<path class="st10" d="M1728.4,1916.5h-160.1v-21.4c0-4.2,3.4-7.7,7.7-7.7h129.7c6.3,0,12.2,2.7,16.4,7.4L1728.4,1916.5z"/>
<text transform="matrix(1 0 0 1 1586.9436 1911.2841)"><tspan x="0" y="0" class="st11 st12" style="font-size:24.9005px;">Día 70  </tspan><tspan x="73.5" y="0" class="st11" style="font-family:'FiraSansCondensed-Light'; font-size:24.9005px;">20/12</tspan></text>
<path class="st10" d="M2023.3,1916.5h-279v-21.4c0-4.2,6-7.7,13.3-7.7h226.1c5,0,9.9,0.6,14.4,1.6c8.1,1.9,14.9,7.4,18.7,14.8
	L2023.3,1916.5z"/>
<text transform="matrix(1 0 0 1 1762.8367 1911.2841)"><tspan x="0" y="0" class="st11 st12" style="font-size:24.9005px;">Día 71 y 72  </tspan><tspan x="114.7" y="0" class="st11" style="font-family:'FiraSansCondensed-Light'; font-size:24.9005px;">22 y 23/12</tspan></text>
<polyline class="st35" points="1579.4,1559.3 1579.4,1707.9 1731.2,1707.9 "/>
<polyline class="st35" points="1559.7,1707.9 1225.8,1707.9 1225.8,1887.4 "/>
<image style="overflow:visible;" width="554" height="513" xlink:href="4628B4EE4273A5AA.png"  transform="matrix(0.5677 0 0 0.5677 2546.8115 395.9054)">
</image>
<rect x="3004" y="956.3" class="st14" width="230.7" height="19.9"/>
<path class="st34" d="M2712.7,313.9c23.1,0.2,46,3.8,68,10.8l-35,107.8c-10.7-3.3-21.8-5.1-32.9-5.2V313.9z"/>
<path class="st34" d="M2783.6,325.7c21.9,7.3,42.6,17.8,61.3,31.2l-66.7,91.7c-9.1-6.4-19.1-11.5-29.7-15.1L2783.6,325.7z"/>
<path class="st33" d="M2847.5,358.8c18.6,13.7,35,30.1,48.7,48.7l-91.7,66.7c-6.7-8.9-14.6-16.9-23.6-23.6L2847.5,358.8z"/>
<path class="st33" d="M2898,410c13.4,18.8,24,39.4,31.2,61.3l-107.8,35c-3.6-10.6-8.7-20.6-15.1-29.7L2898,410z"/>
<path class="st9" d="M2930.2,474.3c38,119.9-27.3,248.1-146.6,287.7l-35-107.8c59.8-20.3,92.5-84.5,73.8-144.8L2930.2,474.3z"/>
<path class="st33" d="M2780.6,763c-22,7-44.9,10.6-68,10.8V660.4c11.2-0.2,22.3-1.9,32.9-5.2L2780.6,763z"/>
<path class="st33" d="M2709.5,773.8c-23.1-0.2-46-3.8-68-10.8l35-107.8c10.7,3.3,21.8,5.1,32.9,5.2V773.8z"/>
<path class="st9" d="M2638.5,762c-45.1-15-84.4-43.5-112.5-81.8l91.7-66.7c14.1,18.9,33.6,33,55.8,40.6L2638.5,762z"/>
<path class="st34" d="M2524.2,677.7c-13.4-18.8-24-39.4-31.2-61.3l107.8-35c3.6,10.6,8.7,20.6,15.1,29.7L2524.2,677.7z"/>
<path class="st33" d="M2491.9,613.4c-7-22-10.6-44.9-10.8-68h113.4c0.2,11.2,1.9,22.3,5.2,32.9L2491.9,613.4z"/>
<path class="st33" d="M2481.2,542.3c0.2-23.1,3.8-46,10.8-68l107.8,35c-3.3,10.7-5.1,21.8-5.2,32.9H2481.2z"/>
<path class="st33" d="M2492.9,471.3c7.3-21.9,17.8-42.6,31.2-61.3l91.7,66.7c-6.4,9.1-11.5,19.1-15.1,29.7L2492.9,471.3z"/>
<path class="st9" d="M2526,407.4c28.2-38.2,67.5-66.8,112.5-81.8l35,107.8c-22.3,7.6-41.8,21.7-55.8,40.6L2526,407.4z"/>
<path class="st34" d="M2641.5,324.7c22-7,44.9-10.6,68-10.8v113.4c-11.2,0.2-22.3,1.9-32.9,5.2L2641.5,324.7z"/>
<path class="st34" d="M2712.7,197.4c35.3,0.2,70.4,5.7,104,16.5l-35,107.8c-22.3-7.1-45.5-10.8-68.9-10.9V197.4z"/>
<path class="st34" d="M2819.6,214.8c33.5,11.1,65.2,27.2,93.8,47.8l-66.6,91.7c-19-13.6-40-24.3-62.2-31.7L2819.6,214.8z"/>
<path class="st33" d="M2916,264.5c28.5,20.9,53.6,46,74.4,74.4l-91.7,66.6c-13.9-18.8-30.5-35.5-49.4-49.4L2916,264.5z"/>
<path class="st33" d="M2992.3,341.5c20.6,28.7,36.7,60.3,47.8,93.8l-107.8,35c-7.4-22.2-18.1-43.2-31.7-62.2L2992.3,341.5z"/>
<path class="st9" d="M3041.1,438.3c45.4,141.9-5,296.8-125.1,384.9l-66.6-91.7c80.4-59.2,114.1-163,83.9-258.2L3041.1,438.3z"/>
<path class="st9" d="M2913.5,825c-28.7,20.6-60.3,36.7-93.8,47.8l-35-107.8c22.2-7.4,43.2-18.1,62.2-31.7L2913.5,825z"/>
<path class="st33" d="M2816.7,873.8c-33.6,10.8-68.7,16.3-104,16.5V776.9c23.4-0.2,46.6-3.8,68.9-10.9L2816.7,873.8z"/>
<path class="st33" d="M2709.5,890.3c-35.3-0.2-70.4-5.7-104-16.5l35-107.8c22.3,7.1,45.5,10.8,68.9,10.9V890.3z"/>
<path class="st9" d="M2602.5,872.8c-33.5-11.1-65.2-27.2-93.8-47.8l66.6-91.7c19,13.6,40,24.3,62.2,31.7L2602.5,872.8z"/>
<path class="st9" d="M2506.2,823.2c-28.5-20.9-53.6-46-74.4-74.4l91.7-66.6c13.9,18.8,30.5,35.5,49.4,49.4L2506.2,823.2z"/>
<path class="st34" d="M2429.9,746.2c-20.6-28.7-36.7-60.3-47.8-93.8l107.8-35c7.4,22.2,18.1,43.2,31.7,62.2L2429.9,746.2z"/>
<path class="st33" d="M2381.1,649.4c-10.8-33.6-16.3-68.7-16.5-104H2478c0.2,23.4,3.8,46.6,10.9,68.9L2381.1,649.4z"/>
<path class="st33" d="M2364.6,542.3c0.2-35.3,5.7-70.4,16.5-104l107.8,35c-7.1,22.3-10.8,45.5-10.9,68.9H2364.6z"/>
<path class="st33" d="M2382.1,435.3c11.1-33.5,27.2-65.2,47.8-93.8l91.7,66.6c-13.6,19-24.3,40-31.7,62.2L2382.1,435.3z"/>
<path class="st9" d="M2431.7,338.9c20.9-28.5,46-53.6,74.4-74.4l66.6,91.7c-18.8,13.9-35.5,30.5-49.4,49.4L2431.7,338.9z"/>
<path class="st9" d="M2508.7,262.6c28.7-20.6,60.3-36.7,93.8-47.8l35,107.8c-22.2,7.4-43.2,18.1-62.2,31.7L2508.7,262.6z"/>
<path class="st34" d="M2605.5,213.8c33.6-10.8,68.7-16.3,104-16.5v113.4c-23.4,0.2-46.6,3.8-68.9,10.9L2605.5,213.8z"/>
<path class="st34" d="M2712.7,80.8c47.5,0.2,94.7,7.6,140,22.2l-35,107.8c-33.9-10.9-69.3-16.5-105-16.6V80.8z"/>
<path class="st34" d="M2855.7,104c45.2,14.8,87.8,36.5,126.3,64.4l-66.6,91.7c-28.9-20.8-60.9-37.1-94.7-48.2L2855.7,104z"/>
<path class="st9" d="M3151.9,402.3c29.6,92.1,29.6,191.1,0,283.2l-107.8-35c22.2-69.3,22.2-143.8,0-213.1L3151.9,402.3z"/>
<path class="st9" d="M3150.9,688.4c-14.8,45.2-36.5,87.8-64.4,126.3l-91.7-66.6c20.8-28.9,37.1-60.9,48.2-94.7L3150.9,688.4z"/>
<path class="st9" d="M3084.7,817.2c-28.1,38.4-61.9,72.2-100.2,100.2l-66.6-91.7c28.7-21.1,54.1-46.4,75.1-75.1L3084.7,817.2z"/>
<path class="st9" d="M2982,919.3c-38.5,27.8-81.1,49.5-126.3,64.4l-35-107.8c33.8-11.2,65.8-27.4,94.7-48.2L2982,919.3z"/>
<path class="st9" d="M2566.5,983.7c-45.2-14.8-87.8-36.5-126.3-64.4l66.6-91.7c28.9,20.8,60.9,37.1,94.7,48.2L2566.5,983.7z"/>
<path class="st9" d="M2437.7,917.5c-38.4-28.1-72.2-61.9-100.2-100.2l91.7-66.6c21.1,28.7,46.4,54.1,75.1,75.1L2437.7,917.5z"/>
<path class="st34" d="M2335.6,814.7c-27.8-38.5-49.5-81.1-64.4-126.3l107.8-35c11.2,33.8,27.4,65.8,48.2,94.7L2335.6,814.7z"/>
<path class="st9" d="M2337.4,270.4c28.1-38.4,61.9-72.2,100.2-100.2l66.6,91.7c-28.7,21.1-54.1,46.4-75.1,75.1L2337.4,270.4z"/>
<path class="st9" d="M2440.2,168.3c38.5-27.8,81.1-49.5,126.3-64.4l35,107.8c-33.8,11.2-65.8,27.4-94.7,48.2L2440.2,168.3z"/>
<path class="st34" d="M2569.5,103c45.3-14.5,92.5-22,140-22.2v113.4c-35.6,0.2-71,5.8-105,16.6L2569.5,103z"/>
<g id="labels" transform="translate(412.5,303)">
	
		<text transform="matrix(0.1564 -0.9877 0.9877 0.1564 2326.8823 102.4583)" class="st14" style="font-family:'FiraSansCondensed-Bold'; font-size:18.8979px;">Argentina</text>
	
		<text transform="matrix(0.454 -0.891 0.891 0.454 2368.4602 117.5779)" class="st14" style="font-family:'FiraSansCondensed-Bold'; font-size:18.8979px;">Colombia</text>
	
		<text transform="matrix(0.7071 -0.7071 0.7071 0.7071 2407.4543 140.8702)" class="st14" style="font-family:'FiraSansCondensed-Bold'; font-size:18.8979px;">Islandia</text>
	
		<text transform="matrix(0.891 -0.454 0.454 0.891 2431.0688 180.3989)" class="st14" style="font-family:'FiraSansCondensed-Bold'; font-size:18.8979px;">Ecuador</text>
	
		<text transform="matrix(0.891 0.454 -0.454 0.891 2433.9373 316.868)" class="st11" style="font-family:'FiraSansCondensed-Bold'; font-size:18.8979px;">Brasil</text>
	
		<text transform="matrix(0.1564 0.9877 -0.9877 0.1564 2315.8079 389.839)" class="st14" style="font-family:'FiraSansCondensed-Bold'; font-size:18.8979px;">Mexico</text>
	
		<text transform="matrix(0.1564 -0.9877 0.9877 0.1564 2273.5608 439.1108)" class="st14" style="font-family:'FiraSansCondensed-Bold'; font-size:18.8979px;">Nigeria</text>
	
		<text transform="matrix(0.5878 -0.809 0.809 0.5878 2185.5027 407.1977)" class="st11" style="font-family:'FiraSansCondensed-Bold'; font-size:18.8979px;">Francia</text>
	
		<text transform="matrix(0.891 -0.454 0.454 0.891 2116.4561 340.7021)" class="st14" style="font-family:'FiraSansCondensed-Bold'; font-size:18.8979px;">Myanmar</text>
	
		<text transform="matrix(0.9877 -0.1564 0.1564 0.9877 2094.0649 279.6047)" class="st14" style="font-family:'FiraSansCondensed-Bold'; font-size:18.8979px;">Bahamas</text>
	
		<text transform="matrix(0.9877 0.1564 -0.1564 0.9877 2111.5481 217.5885)" class="st14" style="font-family:'FiraSansCondensed-Bold'; font-size:18.8979px;">Iran</text>
	
		<text transform="matrix(0.891 0.454 -0.454 0.891 2115.7993 154.7686)" class="st14" style="font-family:'FiraSansCondensed-Bold'; font-size:18.8979px;">Croacia</text>
	
		<text transform="matrix(0.5878 0.809 -0.809 0.5878 2174.0293 80.109)" class="st11" style="font-family:'FiraSansCondensed-Bold'; font-size:18.8979px;">E.E.U.U</text>
	
		<text transform="matrix(0.1564 0.9877 -0.9877 0.1564 2262.2146 51.4444)" class="st14" style="font-family:'FiraSansCondensed-Bold'; font-size:18.8979px;">Chile</text>
	
		<text transform="matrix(0.1564 -0.9877 0.9877 0.1564 2343.1045 3.031650e-02)" class="st14" style="font-family:'FiraSansCondensed-Light'; font-size:17.3231px;">Buenos Aires</text>
	
		<text transform="matrix(0.454 -0.891 0.891 0.454 2425.9333 4.7718)" class="st14" style="font-family:'FiraSansCondensed-Light'; font-size:17.3231px;">Nariño</text>
	
		<text transform="matrix(0.7071 -0.7071 0.7071 0.7071 2489.5537 58.7709)" class="st14" style="font-family:'FiraSansCondensed-Light'; font-size:17.3231px;">Keflavik</text>
	
		<text transform="matrix(0.891 -0.454 0.454 0.891 2523.7192 133.1912)" class="st14" style="font-family:'FiraSansCondensed-Light'; font-size:17.3231px;">Tungurahua</text>
	
		<text transform="matrix(0.9511 0.309 -0.309 0.9511 2557.9053 331.7136)" class="st11" style="font-family:'FiraSansCondensed-Light'; font-size:17.3231px;">Pará</text>
	
		<text transform="matrix(0.454 0.891 -0.891 0.454 2408.3533 470.1346)" class="st11" style="font-family:'FiraSansCondensed-Light'; font-size:17.3231px;">Amazonas</text>
	
		<text transform="matrix(0.1564 0.9877 -0.9877 0.1564 2332.8728 497.5829)" class="st14" style="font-family:'FiraSansCondensed-Light'; font-size:17.3231px;">Acapulco</text>
	
		<text transform="matrix(0.1564 -0.9877 0.9877 0.1564 2255.8774 550.7651)" class="st14" style="font-family:'FiraSansCondensed-Light'; font-size:17.3231px;">Lagos</text>
	
		<text transform="matrix(0.454 -0.891 0.891 0.454 2161.2083 524.3326)" class="st11" style="font-family:'FiraSansCondensed-Light'; font-size:17.3231px;">Drôme</text>
	
		<text transform="matrix(0.7071 -0.7071 0.7071 0.7071 2058.6543 489.6703)" class="st11" style="font-family:'FiraSansCondensed-Light'; font-size:17.3231px;">Seine-et-Marne</text>
	
		<text transform="matrix(0.891 -0.454 0.454 0.891 2011.4401 394.2127)" class="st14" style="font-family:'FiraSansCondensed-Light'; font-size:17.3231px;">Mandalay</text>
	
		<text transform="matrix(0.9877 -0.1564 0.1564 0.9877 1966.4342 299.8194)" class="st14" style="font-family:'FiraSansCondensed-Light'; font-size:17.3231px;">Berry Islands</text>
	
		<text transform="matrix(0.9877 0.1564 -0.1564 0.9877 1973.0952 195.6597)" class="st14" style="font-family:'FiraSansCondensed-Light'; font-size:17.3231px;">Khuzestan</text>
	
		<text transform="matrix(0.891 0.454 -0.454 0.891 2013.9078 102.8523)" class="st14" style="font-family:'FiraSansCondensed-Light'; font-size:17.3231px;">Zagreb</text>
	
		<text transform="matrix(0.7071 0.7071 -0.7071 0.7071 2067.3938 18.5466)" class="st11" style="font-family:'FiraSansCondensed-Light'; font-size:17.3231px;">Missouri</text>
	
		<text transform="matrix(0.454 0.891 -0.891 0.454 2145.4744 -45.7904)" class="st11" style="font-family:'FiraSansCondensed-Light'; font-size:17.3231px;">New York</text>
	
		<text transform="matrix(0.1564 0.9877 -0.9877 0.1564 2243.981 -63.6585)" class="st14" style="font-family:'FiraSansCondensed-Light'; font-size:17.3231px;">Chile</text>
	
		<text transform="matrix(0.9877 0.1564 -0.1564 0.9877 2349.5688 -151.5097)" class="st14" style="font-family:'FiraSansCondensed-Bold'; font-size:37.7958px;">5</text>
	
		<text transform="matrix(0.9317 0.3633 -0.3633 0.9317 2459.4558 -127.5362)" class="st14" style="font-family:'FiraSansCondensed-Bold'; font-size:37.7958px;">26</text>
	
		<text transform="matrix(5.206960e-02 -0.9986 0.9986 5.206960e-02 2719.7319 252.7105)" class="st11" style="font-family:'FiraSansCondensed-Bold'; font-size:37.7958px;">3</text>
	
		<text transform="matrix(0.4608 -0.8875 0.8875 0.4608 2666.1145 444.8065)" class="st11" style="font-family:'FiraSansCondensed-Bold'; font-size:37.7958px;">22</text>
	
		<text transform="matrix(0.6928 -0.7211 0.7211 0.6928 2582.3521 545.2793)" class="st11" style="font-family:'FiraSansCondensed-Bold'; font-size:37.7958px;">38</text>
	
		<text transform="matrix(0.8693 -0.4943 0.4943 0.8693 2471.8762 621.7524)" class="st11" style="font-family:'FiraSansCondensed-Bold'; font-size:37.7958px;">44</text>
	
		<text transform="matrix(0.8984 0.4392 -0.4392 0.8984 2089.7693 602.6398)" class="st11" style="font-family:'FiraSansCondensed-Bold'; font-size:37.7958px;">22</text>
	
		<text transform="matrix(0.7058 0.7085 -0.7085 0.7058 1987.8617 524.332)" class="st11" style="font-family:'FiraSansCondensed-Bold'; font-size:37.7958px;">24</text>
	
		<text transform="matrix(0.4495 0.8933 -0.8933 0.4495 1923.0654 405.7163)" class="st14" style="font-family:'FiraSansCondensed-Bold'; font-size:37.7958px;">43</text>
	
		<text transform="matrix(0.7542 -0.6566 0.6566 0.7542 2006.606 -24.8384)" class="st11" style="font-family:'FiraSansCondensed-Bold'; font-size:37.7958px;">38</text>
	
		<text transform="matrix(0.891 -0.454 0.454 0.891 2109.3333 -101.8864)" class="st11" style="font-family:'FiraSansCondensed-Bold'; font-size:37.7958px;">17</text>
	
		<text transform="matrix(0.9877 -0.1564 0.1564 0.9877 2222.5518 -140.9136)" class="st14" style="font-family:'FiraSansCondensed-Bold'; font-size:37.7958px;">29</text>
</g>
<rect x="3004" y="989.9" class="st9" width="40.4" height="17.5"/>
<rect x="3004" y="1018.8" class="st34" width="40.4" height="17.5"/>
<rect x="3004" y="1047.6" class="st33" width="40.4" height="17.5"/>
<g>
	<text transform="matrix(1 0 0 1 3056.2871 1005.4)" class="st14 st12" style="font-size:18.8979px;">&gt; 1 ubicación por país</text>
</g>
<g>
	<text transform="matrix(1 0 0 1 3056.2871 1032.2417)" class="st14 st12" style="font-size:18.8979px;">Sólo en 1 ubicación</text>
</g>
<g>
	<text transform="matrix(1 0 0 1 3056.2871 1062.0278)" class="st14 st12" style="font-size:18.8979px;">Sin muertes</text>
</g>
<g>
	<text transform="matrix(1 0 0 1 3007.207 972.5845)" class="st11 st12" style="font-size:18.8979px;">Muertes por ubicación</text>
</g>
<g>
	<path d="M2735.9,507.5C2735.9,507.5,2735.8,507.4,2735.9,507.5c-0.1-0.1-0.1-0.1-0.1-0.2c0,0,0-0.1,0-0.1c0,0,0,0,0-0.1l-3-18.4
		l-5.3,3.4l0.6,13.2c0,0,0,0.1,0,0.1c0,0,0,0.1,0,0.1c0,0,0,0.1-0.1,0.1c0,0,0,0.1-0.1,0.1c0,0-0.1,0.1-0.1,0.1c0,0,0,0-0.1,0.1
		l-8.2,4.3c-0.1,0.1-0.2,0.1-0.3,0.1l-41.5,4.1c-2.8,0.3-4.8,2.7-4.5,5.5c0.1,1.3,0.8,2.5,1.8,3.4c1,0.9,2.3,1.2,3.7,1.1l37.8-3.7
		l1.9-2.9l-2-1.7c0,0-0.1-0.1-0.1-0.1c0,0,0,0,0,0c0,0,0,0,0,0c0,0,0-0.1,0-0.1c0,0,0-0.1,0-0.1c0,0,0-0.1,0-0.1c0,0,0-0.1,0-0.1
		c0,0,0-0.1,0-0.1c0,0,0-0.1,0.1-0.1c0,0,0,0,0,0c0,0,0.1,0,0.1-0.1c0,0,0.1-0.1,0.1-0.1l4.1-2.2c0,0,0,0,0,0c0,0,0,0,0,0
		c0,0,0.1,0,0.1,0c0,0,0.1,0,0.1,0c0,0,0.1,0,0.1,0c0,0,0.1,0,0.1,0c0,0,0.1,0,0.1,0.1c0,0,0.1,0,0.1,0.1c0,0,0.1,0.1,0.1,0.1
		c0,0,0,0,0.1,0.1c0,0,0,0,0,0c0,0,0,0,0,0l1.1,2.6l5.5,1.4l4.3-2.2c0,0,0.1,0,0.1,0c0,0,0.1,0,0.1,0c0,0,0.1,0,0.1,0
		c0,0,0.1,0,0.1,0c0,0,0.1,0,0.1,0.1c0,0,0.1,0,0.1,0l10.5,8l5.8-2.4L2735.9,507.5z M2697.2,518.1l-18.5,1.8c0,0,0,0-0.1,0
		c-0.3,0-0.6-0.2-0.6-0.5c0-0.3,0.2-0.6,0.5-0.7l18.5-1.8c0.3,0,0.6,0.2,0.7,0.5C2697.8,517.8,2697.5,518.1,2697.2,518.1
		L2697.2,518.1z"/>
	<path d="M2694.6,524l17.2,21.7l5.2-0.5l-6.6-22.8L2694.6,524z"/>
	<path d="M2711.2,486.4l-5.2,0.5l-12.6,24.7l15.8-1.6L2711.2,486.4z"/>
	<path d="M2677.3,528.9c-0.3,0-0.6,0.3-0.6,0.6v27.8c0,0.3,0.3,0.6,0.6,0.6c0.3,0,0.6-0.3,0.6-0.6v-27.8
		C2677.9,529.1,2677.7,528.9,2677.3,528.9L2677.3,528.9z"/>
	<path d="M2684.9,528.9c-0.3,0-0.6,0.3-0.6,0.6v17.3c0,0.3,0.3,0.6,0.6,0.6c0.3,0,0.6-0.3,0.6-0.6v-17.3
		C2685.5,529.1,2685.2,528.9,2684.9,528.9z"/>
	<path d="M2692.4,528.9c-0.3,0-0.6,0.3-0.6,0.6v13.4c0,0.3,0.3,0.6,0.6,0.6c0.3,0,0.6-0.3,0.6-0.6v-13.4
		C2693,529.1,2692.7,528.9,2692.4,528.9z"/>
	<path d="M2726.8,530.5c-0.3,0-0.6,0.3-0.6,0.6v20.7c0,0.3,0.3,0.6,0.6,0.6c0.3,0,0.6-0.3,0.6-0.6v-20.7
		C2727.4,530.8,2727.1,530.5,2726.8,530.5L2726.8,530.5z"/>
	<path d="M2734.3,530.5c-0.3,0-0.6,0.3-0.6,0.6v16.5c0,0.3,0.3,0.6,0.6,0.6c0.3,0,0.6-0.3,0.6-0.6l0-16.5
		C2734.9,530.8,2734.6,530.5,2734.3,530.5L2734.3,530.5z"/>
	<path d="M2741.8,530.5c-0.3,0-0.6,0.3-0.6,0.6v11.8c0,0.3,0.3,0.6,0.6,0.6c0.3,0,0.6-0.3,0.6-0.6v-11.8
		C2742.4,530.8,2742.2,530.5,2741.8,530.5z"/>
</g>
<path id="SVGID_x5F_1_x5F_" style="fill:none;" d="M2646.5,478.4c36.4-35.7,95-35.1,130.7,1.3c35.7,36.4,35.1,95-1.3,130.7
	c-36.4,35.7-95,35.1-130.7-1.3C2609.4,572.6,2610,514.1,2646.5,478.4z"/>
<text><textPath  xlink:href="#SVGID_x5F_1_x5F_" startOffset="83.3462%">
<tspan  class="st12" style="font-size:18.1779px;">1920 - 2003</tspan></textPath>
</text>
<path class="st39" d="M2756,460.8c29.9,15.9,50,47.6,49.4,83.8c-0.8,51.5-43.2,92.7-94.7,91.9c-51.5-0.8-92.7-43.2-91.9-94.7
	c0.5-35.4,20.7-65.9,49.9-81.2"/>
<rect x="2657.4" y="565.5" class="st14" width="105.6" height="21.9"/>
<rect x="2676.4" y="589.3" class="st14" width="66.9" height="21.9"/>
<text transform="matrix(1 0 0 1 2660.8633 584.0972)"><tspan x="0" y="0" class="st11 st12" style="font-size:22.0311px;">Accidentes</tspan><tspan x="19.4" y="22.9" class="st11 st12" style="font-size:22.0311px;">FH-227</tspan></text>
<line class="st35" x1="1225.8" y1="1968.6" x2="1225.8" y2="2155"/>
<line class="st35" x1="1392.8" y1="1968.6" x2="1392.8" y2="2155"/>
<line class="st35" x1="1568.3" y1="1968.6" x2="1568.3" y2="2155"/>
<line class="st35" x1="1749.8" y1="1968.6" x2="1749.8" y2="2155"/>
</svg>
