<?xml version="1.0" encoding="utf-8"?>
<!-- Generator: Adobe Illustrator 24.3.0, SVG Export Plug-In . SVG Version: 6.00 Build 0)  -->
<svg version="1.1" id="Capa_1" xmlns="http://www.w3.org/2000/svg" xmlns:xlink="http://www.w3.org/1999/xlink" x="0px" y="0px"
	 viewBox="0 0 1080 2284.1" style="enable-background:new 0 0 1080 2284.1;" xml:space="preserve">
<style type="text/css">
	.st0{opacity:0.21;}
	.st1{fill:#7D9AB7;}
	.st2{fill:none;stroke:#FFFFFF;stroke-width:2.8886;stroke-miterlimit:10;}
	.st3{opacity:0.18;fill:#C64832;}
	.st4{fill:none;stroke:#515151;stroke-width:2.5275;stroke-miterlimit:10;}
	.st5{fill:none;stroke:#515151;stroke-width:2.5275;stroke-miterlimit:10;stroke-dasharray:6.7269,6.7269;}
	.st6{fill:none;stroke:#515151;stroke-width:2.5275;stroke-miterlimit:10;stroke-dasharray:7.2408,7.2408;}
	.st7{fill:none;stroke:#C64832;stroke-width:2.1664;stroke-miterlimit:10;stroke-dasharray:7.2001;}
	.st8{fill:none;stroke:#C64832;stroke-width:2.5275;stroke-miterlimit:10;}
	.st9{fill:#C64832;}
	.st10{fill:#1C1C1F;}
	.st11{fill:none;stroke:#C64832;stroke-width:2.1664;stroke-miterlimit:10;stroke-dasharray:1.0832,3.6107;}
	.st12{fill:none;stroke:#C64832;stroke-width:2.1664;stroke-miterlimit:10;stroke-dasharray:7.0933,7.0933;}
	.st13{fill:none;stroke:#515151;stroke-width:2.5275;stroke-miterlimit:10;stroke-dasharray:7.2214;}
	.st14{fill:#262626;}
	.st15{fill:none;stroke:#211915;stroke-width:2.1664;stroke-miterlimit:10;stroke-dasharray:1.0832,3.6107;}
	.st16{fill:#494949;}
	.st17{opacity:0.4;fill:#262626;}
	.st18{opacity:0.43;fill:#262626;}
	.st19{fill:#FFFFFF;}
	.st20{opacity:0.43;fill:#C64832;}
	.st21{fill:#211915;}
	.st22{fill:#B0BFB2;}
	.st23{font-family:'FiraSansCondensed-Medium';}
	.st24{font-size:27.4526px;}
	.st25{fill:#C4C9D1;}
	.st26{font-size:24.9005px;}
	.st27{font-family:'FiraSansCondensed-Light';}
	.st28{fill:none;stroke:#211915;stroke-width:4.1268;stroke-miterlimit:10;stroke-dasharray:1.7686,5.8954;}
	.st29{fill:#A38051;}
	.st30{opacity:0.45;}
	.st31{fill:none;stroke:#211915;stroke-width:3.5373;stroke-miterlimit:10;stroke-dasharray:1.7686,5.8954;}
	.st32{font-size:18.4014px;}
	.st33{fill:none;stroke:#000000;stroke-width:1.8359;stroke-miterlimit:10;}
</style>
<g class="st0">
	<path class="st1" d="M807,2037.6c1.3,0,2.5-1,2.6-2.4c0.1-2.2,0.2-4.3,0.2-6.1c0-9.6-1.6-15-3.7-18.2c-1.1-1.6-2.3-2.6-3.4-3.2
		c-1.1-0.5-2-0.7-2.6-0.7c0,0-0.1,0-0.1,0h-12.4c0,0-0.1,0-0.1,0c-0.6,0-1.5,0.1-2.6,0.7c-1.7,0.9-3.6,2.7-4.9,6
		c-1.3,3.3-2.2,8.1-2.2,15.4c0,1.9,0.1,3.9,0.2,6.1c0.1,1.4,1.2,2.4,2.6,2.4c0.1,0,0.1,0,0.2,0c1.4-0.1,2.5-1.3,2.4-2.7
		c-0.1-2.1-0.2-4.1-0.2-5.8c0-7.7,1.1-12.1,2.2-14.4v40.4c0,2.2,1.8,4,4,4c2.2,0,4-1.8,4-4v-21.3h1.5v21.3c0,2.2,1.8,4,4,4
		c2.2,0,4-1.8,4-4l0-40.4c0.2,0.4,0.4,0.8,0.6,1.4c0.9,2.5,1.7,6.6,1.7,13c0,1.8-0.1,3.7-0.2,5.8c-0.1,1.4,1,2.6,2.4,2.7
		C806.9,2037.6,806.9,2037.6,807,2037.6L807,2037.6z"/>
	<path class="st1" d="M800.9,1998c0,4-3.2,7.2-7.2,7.2c-4,0-7.2-3.2-7.2-7.2c0-4,3.2-7.2,7.2-7.2
		C797.7,1990.8,800.9,1994.1,800.9,1998"/>
</g>
<g class="st0">
	<path class="st1" d="M851.4,2037.6c1.3,0,2.5-1,2.6-2.4c0.1-2.2,0.2-4.3,0.2-6.1c0-9.6-1.6-15-3.7-18.2c-1.1-1.6-2.3-2.6-3.4-3.2
		c-1.1-0.5-2-0.7-2.6-0.7c0,0-0.1,0-0.1,0H832c0,0-0.1,0-0.1,0c-0.6,0-1.5,0.1-2.6,0.7c-1.7,0.9-3.6,2.7-4.9,6
		c-1.3,3.3-2.2,8.1-2.2,15.4c0,1.9,0.1,3.9,0.2,6.1c0.1,1.4,1.2,2.4,2.6,2.4c0.1,0,0.1,0,0.2,0c1.4-0.1,2.5-1.3,2.4-2.7
		c-0.1-2.1-0.2-4.1-0.2-5.8c0-7.7,1.1-12.1,2.2-14.4v40.4c0,2.2,1.8,4,4,4c2.2,0,4-1.8,4-4v-21.3h1.5v21.3c0,2.2,1.8,4,4,4
		c2.2,0,4-1.8,4-4l0-40.4c0.2,0.4,0.4,0.8,0.6,1.4c0.9,2.5,1.7,6.6,1.7,13c0,1.8-0.1,3.7-0.2,5.8c-0.1,1.4,1,2.6,2.4,2.7
		C851.3,2037.6,851.3,2037.6,851.4,2037.6L851.4,2037.6z"/>
	<path class="st1" d="M845.3,1998c0,4-3.2,7.2-7.2,7.2c-4,0-7.2-3.2-7.2-7.2c0-4,3.2-7.2,7.2-7.2
		C842.1,1990.8,845.3,1994.1,845.3,1998"/>
</g>
<path class="st22" d="M236.7,103h-23.9c-4.5,0-8.2-3.7-8.2-8.2V70.9c0-4.5,3.7-8.2,8.2-8.2h23.9c4.5,0,8.2,3.7,8.2,8.2v23.9
	C244.9,99.3,241.2,103,236.7,103z"/>
<path class="st1" d="M712.9,103H689c-4.5,0-8.2-3.7-8.2-8.2V70.9c0-4.5,3.7-8.2,8.2-8.2h23.9c4.5,0,8.2,3.7,8.2,8.2v23.9
	C721.1,99.3,717.5,103,712.9,103z"/>
<path class="st9" d="M945.5,253.2H648.7c-9.7,0-17.5-7.8-17.5-17.5v-33.2h315.2c8.2,0,14.9,6.7,14.9,14.9v20.1
	C961.2,246.1,954.2,253.2,945.5,253.2z"/>
<path class="st9" d="M945.5,432.4H648.7c-9.7,0-17.5-7.8-17.5-17.5v-33.2h315.2c8.2,0,14.9,6.7,14.9,14.9v20.1
	C961.2,425.3,954.2,432.4,945.5,432.4z"/>
<path class="st9" d="M945.5,592.2H648.7c-9.7,0-17.5-7.8-17.5-17.5v-33.2h315.2c8.2,0,14.9,6.7,14.9,14.9v20.1
	C961.2,585.2,954.2,592.2,945.5,592.2z"/>
<path class="st9" d="M945.5,752H648.7c-9.7,0-17.5-7.8-17.5-17.5v-33.2h315.2c8.2,0,14.9,6.7,14.9,14.9v20.1
	C961.2,745,954.2,752,945.5,752z"/>
<path class="st9" d="M945.5,910.9H648.7c-9.7,0-17.5-7.8-17.5-17.5v-33.2h315.2c8.2,0,14.9,6.7,14.9,14.9v20.1
	C961.2,903.8,954.2,910.9,945.5,910.9z"/>
<path class="st9" d="M945.5,1070.7H648.7c-9.7,0-17.5-7.8-17.5-17.5V1020h315.2c8.2,0,14.9,6.7,14.9,14.9v20.1
	C961.2,1063.7,954.2,1070.7,945.5,1070.7z"/>
<path class="st9" d="M945.5,1227H648.7c-9.7,0-17.5-7.8-17.5-17.5v-33.2h315.2c8.2,0,14.9,6.7,14.9,14.9v20.1
	C961.2,1219.9,954.2,1227,945.5,1227z"/>
<path class="st9" d="M945.5,1389.4H648.7c-9.7,0-17.5-7.8-17.5-17.5v-33.2h315.2c8.2,0,14.9,6.7,14.9,14.9v20.1
	C961.2,1382.4,954.2,1389.4,945.5,1389.4z"/>
<path class="st9" d="M945.5,1548.3H648.7c-9.7,0-17.5-7.8-17.5-17.5v-33.2h315.2c8.2,0,14.9,6.7,14.9,14.9v20.1
	C961.2,1541.3,954.2,1548.3,945.5,1548.3z"/>
<path class="st9" d="M945.5,1716.8H648.7c-9.7,0-17.5-7.8-17.5-17.5v-33.2h315.2c8.2,0,14.9,6.7,14.9,14.9v20.1
	C961.2,1709.8,954.2,1716.8,945.5,1716.8z"/>
<path class="st10" d="M791.2,201.7H631.2v-21.4c0-4.2,3.4-7.7,7.7-7.7h129.7c6.3,0,12.2,2.7,16.4,7.4L791.2,201.7z"/>
<text transform="matrix(1 0 0 1 654.6436 234.9096)" class="st19 st23 st24">Salida desde Uruguay</text>
<text transform="matrix(1 0 0 1 261.2682 92.6867)" class="st23 st24">Muerte</text>
<path class="st25" d="M429.4,103h-23.9c-4.5,0-8.2-3.7-8.2-8.2V70.9c0-4.5,3.7-8.2,8.2-8.2h23.9c4.5,0,8.2,3.7,8.2,8.2v23.9
	C437.6,99.3,433.9,103,429.4,103z"/>
<text transform="matrix(1 0 0 1 453.9239 92.6867)" class="st23 st24">Cuerpo hallado</text>
<text transform="matrix(1 0 0 1 741.5876 92.6867)" class="st23 st24">Sobrevivientes</text>
<text transform="matrix(1 0 0 1 649.7803 196.4555)"><tspan x="0" y="0" class="st19 st23 st26">Día 0  </tspan><tspan x="63.2" y="0" class="st19 st27 st26">12/10</tspan></text>
<path class="st10" d="M791.2,381.7H631.2v-21.4c0-4.2,3.4-7.7,7.7-7.7h129.7c6.3,0,12.2,2.7,16.4,7.4L791.2,381.7z"/>
<text transform="matrix(1 0 0 1 654.6436 414.956)" class="st19 st23 st24">Se estrella el avión</text>
<text transform="matrix(1 0 0 1 649.7803 376.5019)"><tspan x="0" y="0" class="st19 st23 st26">Día 1  </tspan><tspan x="60.1" y="0" class="st19 st27 st26">13/10</tspan></text>
<path class="st10" d="M791.2,541.5H631.2V520c0-4.2,3.4-7.7,7.7-7.7h129.7c6.3,0,12.2,2.7,16.4,7.4L791.2,541.5z"/>
<text transform="matrix(1 0 0 1 654.6436 574.706)" class="st19 st23 st24">Muertes</text>
<text transform="matrix(1 0 0 1 649.7803 536.2519)"><tspan x="0" y="0" class="st19 st23 st26">Día 2  </tspan><tspan x="61.2" y="0" class="st19 st27 st26">14/10</tspan></text>
<path class="st10" d="M791.2,700.6H631.2v-21.4c0-4.2,3.4-7.7,7.7-7.7h129.7c6.3,0,12.2,2.7,16.4,7.4L791.2,700.6z"/>
<text transform="matrix(1 0 0 1 654.6436 733.8603)" class="st19 st23 st24">Hallan cadáveres</text>
<text transform="matrix(1 0 0 1 649.7803 695.4052)"><tspan x="0" y="0" class="st19 st23 st26">Día 12  </tspan><tspan x="71.4" y="0" class="st19 st27 st26">24/10</tspan></text>
<path class="st10" d="M791.2,859.5H631.2v-21.4c0-4.2,3.4-7.7,7.7-7.7h129.7c6.3,0,12.2,2.7,16.4,7.4L791.2,859.5z"/>
<text transform="matrix(1 0 0 1 654.6436 892.7372)" class="st19 st23 st24">Avalancha de nieve</text>
<text transform="matrix(1 0 0 1 649.7803 854.2822)"><tspan x="0" y="0" class="st19 st23 st26">Día 17  </tspan><tspan x="70.4" y="0" class="st19 st27 st26">29/10</tspan></text>
<path class="st10" d="M791.2,1019.9H631.2v-21.4c0-4.2,3.4-7.7,7.7-7.7h129.7c6.3,0,12.2,2.7,16.4,7.4L791.2,1019.9z"/>
<text transform="matrix(1 0 0 1 654.6436 1053.0702)" class="st19 st23 st24">Muerte</text>
<text transform="matrix(1 0 0 1 649.7803 1014.6161)"><tspan x="0" y="0" class="st19 st23 st26">Día 34  </tspan><tspan x="73.9" y="0" class="st19 st27 st26">15/11</tspan></text>
<path class="st10" d="M791.2,1175.3H631.2v-21.4c0-4.2,3.4-7.7,7.7-7.7h129.7c6.3,0,12.2,2.7,16.4,7.4L791.2,1175.3z"/>
<text transform="matrix(1 0 0 1 654.6436 1208.4823)" class="st19 st23 st24">Muerte</text>
<text transform="matrix(1 0 0 1 649.7803 1170.0272)"><tspan x="0" y="0" class="st19 st23 st26">Día 37  </tspan><tspan x="71.8" y="0" class="st19 st27 st26">18/11</tspan></text>
<path class="st10" d="M791.2,1338.7H631.2v-21.4c0-4.2,3.4-7.7,7.7-7.7h129.7c6.3,0,12.2,2.7,16.4,7.4L791.2,1338.7z"/>
<text transform="matrix(1 0 0 1 654.6436 1371.9608)" class="st19 st23 st24">Muerte</text>
<text transform="matrix(1 0 0 1 649.7803 1333.5067)"><tspan x="0" y="0" class="st19 st23 st26">Día 60  </tspan><tspan x="75.9" y="0" class="st19 st27 st26">11/12</tspan></text>
<line class="st28" x1="95.9" y1="242.8" x2="631.2" y2="242.8"/>
<g>
	<path class="st22" d="M195,372.1c2.7,0,4.9-2.1,5.1-4.8c0.3-4.4,0.4-8.5,0.4-12.2c0-19.3-3.1-30-7.3-36.4c-2.1-3.2-4.6-5.2-6.8-6.4
		c-2.1-1.1-4-1.3-5.2-1.4c-0.1,0-0.2,0-0.3,0h-24.7c-0.1,0-0.2,0-0.3,0c-1.2,0-3,0.3-5.2,1.4c-3.4,1.7-7.1,5.4-9.7,12
		c-2.6,6.6-4.4,16.2-4.4,30.7c0,3.7,0.1,7.8,0.4,12.3c0.2,2.7,2.4,4.8,5.1,4.8c0.1,0,0.2,0,0.3,0c2.8-0.2,5-2.6,4.8-5.4
		c-0.3-4.3-0.4-8.1-0.4-11.6c0-15.5,2.2-24.2,4.5-28.7v80.8c0,4.4,3.5,7.9,7.9,7.9c4.4,0,7.9-3.5,7.9-7.9v-42.6h3v42.6
		c0,4.4,3.5,7.9,7.9,7.9c4.4,0,7.9-3.5,7.9-7.9l0-80.8c0.4,0.8,0.8,1.7,1.1,2.7c1.8,5,3.3,13.2,3.3,26c0,3.5-0.1,7.4-0.4,11.7
		c-0.2,2.8,2,5.2,4.8,5.4C194.8,372.1,194.9,372.1,195,372.1L195,372.1z"/>
	<path class="st22" d="M182.9,292.9c0,7.9-6.4,14.4-14.4,14.4c-7.9,0-14.4-6.4-14.4-14.4c0-7.9,6.4-14.4,14.4-14.4
		C176.5,278.5,182.9,285,182.9,292.9"/>
</g>
<g>
	<path class="st22" d="M283.9,372.1c2.7,0,4.9-2.1,5.1-4.8c0.3-4.4,0.4-8.5,0.4-12.2c0-19.3-3.1-30-7.3-36.4
		c-2.1-3.2-4.6-5.2-6.8-6.4c-2.1-1.1-4-1.3-5.2-1.4c-0.1,0-0.2,0-0.3,0H245c-0.1,0-0.2,0-0.3,0c-1.2,0-3,0.3-5.2,1.4
		c-3.4,1.7-7.1,5.4-9.7,12c-2.6,6.6-4.4,16.2-4.4,30.7c0,3.7,0.1,7.8,0.4,12.3c0.2,2.7,2.4,4.8,5.1,4.8c0.1,0,0.2,0,0.3,0
		c2.8-0.2,5-2.6,4.8-5.4c-0.3-4.3-0.4-8.1-0.4-11.6c0-15.5,2.2-24.2,4.5-28.7v80.8c0,4.4,3.5,7.9,7.9,7.9c4.4,0,7.9-3.5,7.9-7.9
		v-42.6h3v42.6c0,4.4,3.5,7.9,7.9,7.9c4.4,0,7.9-3.5,7.9-7.9l0-80.8c0.4,0.8,0.8,1.7,1.1,2.7c1.8,5,3.3,13.2,3.3,26
		c0,3.5-0.1,7.4-0.4,11.7c-0.2,2.8,2,5.2,4.8,5.4C283.7,372.1,283.8,372.1,283.9,372.1L283.9,372.1z"/>
	<path class="st22" d="M271.8,292.9c0,7.9-6.4,14.4-14.4,14.4c-7.9,0-14.4-6.4-14.4-14.4c0-7.9,6.4-14.4,14.4-14.4
		C265.3,278.5,271.8,285,271.8,292.9"/>
</g>
<g>
	<path class="st22" d="M372.8,372.1c2.7,0,4.9-2.1,5.1-4.8c0.3-4.4,0.4-8.5,0.4-12.2c0-19.3-3.1-30-7.3-36.4
		c-2.1-3.2-4.6-5.2-6.8-6.4c-2.1-1.1-4-1.3-5.2-1.4c-0.1,0-0.2,0-0.3,0h-24.7c-0.1,0-0.2,0-0.3,0c-1.2,0-3,0.3-5.2,1.4
		c-3.4,1.7-7.1,5.4-9.7,12c-2.6,6.6-4.4,16.2-4.4,30.7c0,3.7,0.1,7.8,0.4,12.3c0.2,2.7,2.4,4.8,5.1,4.8c0.1,0,0.2,0,0.3,0
		c2.8-0.2,5-2.6,4.8-5.4c-0.3-4.3-0.4-8.1-0.4-11.6c0-15.5,2.2-24.2,4.5-28.7v80.8c0,4.4,3.5,7.9,7.9,7.9c4.4,0,7.9-3.5,7.9-7.9
		v-42.6h3v42.6c0,4.4,3.5,7.9,7.9,7.9c4.4,0,7.9-3.5,7.9-7.9l0-80.8c0.4,0.8,0.8,1.7,1.1,2.7c1.8,5,3.3,13.2,3.3,26
		c0,3.5-0.1,7.4-0.4,11.7c-0.2,2.8,2,5.2,4.8,5.4C372.6,372.1,372.7,372.1,372.8,372.1L372.8,372.1z"/>
	<path class="st22" d="M360.7,292.9c0,7.9-6.4,14.4-14.4,14.4c-7.9,0-14.4-6.4-14.4-14.4c0-7.9,6.4-14.4,14.4-14.4
		C354.2,278.5,360.7,285,360.7,292.9"/>
</g>
<g>
	<path class="st22" d="M461.6,372.1c2.7,0,4.9-2.1,5.1-4.8c0.3-4.4,0.4-8.5,0.4-12.2c0-19.3-3.1-30-7.3-36.4
		c-2.1-3.2-4.6-5.2-6.8-6.4c-2.1-1.1-4-1.3-5.2-1.4c-0.1,0-0.2,0-0.3,0h-24.7c-0.1,0-0.2,0-0.3,0c-1.2,0-3,0.3-5.2,1.4
		c-3.4,1.7-7.1,5.4-9.7,12c-2.6,6.6-4.4,16.2-4.4,30.7c0,3.7,0.1,7.8,0.4,12.3c0.2,2.7,2.4,4.8,5.1,4.8c0.1,0,0.2,0,0.3,0
		c2.8-0.2,5-2.6,4.8-5.4c-0.3-4.3-0.4-8.1-0.4-11.6c0-15.5,2.2-24.2,4.5-28.7v80.8c0,4.4,3.5,7.9,7.9,7.9c4.4,0,7.9-3.5,7.9-7.9
		v-42.6h3v42.6c0,4.4,3.5,7.9,7.9,7.9c4.4,0,7.9-3.5,7.9-7.9l0-80.8c0.4,0.8,0.8,1.7,1.1,2.7c1.8,5,3.3,13.2,3.3,26
		c0,3.5-0.1,7.4-0.4,11.7c-0.2,2.8,2,5.2,4.8,5.4C461.4,372.1,461.5,372.1,461.6,372.1L461.6,372.1z"/>
	<path class="st22" d="M449.5,292.9c0,7.9-6.4,14.4-14.4,14.4c-7.9,0-14.4-6.4-14.4-14.4c0-7.9,6.4-14.4,14.4-14.4
		C443.1,278.5,449.5,285,449.5,292.9"/>
</g>
<g>
	<path class="st22" d="M550.5,372.1c2.7,0,4.9-2.1,5.1-4.8c0.3-4.4,0.4-8.5,0.4-12.2c0-19.3-3.1-30-7.3-36.4
		c-2.1-3.2-4.6-5.2-6.8-6.4c-2.1-1.1-4-1.3-5.2-1.4c-0.1,0-0.2,0-0.3,0h-24.7c-0.1,0-0.2,0-0.3,0c-1.2,0-3,0.3-5.2,1.4
		c-3.4,1.7-7.1,5.4-9.7,12c-2.6,6.6-4.4,16.2-4.4,30.7c0,3.7,0.1,7.8,0.4,12.3c0.2,2.7,2.4,4.8,5.1,4.8c0.1,0,0.2,0,0.3,0
		c2.8-0.2,5-2.6,4.8-5.4c-0.3-4.3-0.4-8.1-0.4-11.6c0-15.5,2.2-24.2,4.5-28.7v80.8c0,4.4,3.5,7.9,7.9,7.9c4.4,0,7.9-3.5,7.9-7.9
		v-42.6h3v42.6c0,4.4,3.5,7.9,7.9,7.9c4.4,0,7.9-3.5,7.9-7.9l0-80.8c0.4,0.8,0.8,1.7,1.1,2.7c1.8,5,3.3,13.2,3.3,26
		c0,3.5-0.1,7.4-0.4,11.7c-0.2,2.8,2,5.2,4.8,5.4C550.3,372.1,550.4,372.1,550.5,372.1L550.5,372.1z"/>
	<path class="st22" d="M538.4,292.9c0,7.9-6.4,14.4-14.4,14.4c-7.9,0-14.4-6.4-14.4-14.4c0-7.9,6.4-14.4,14.4-14.4
		C532,278.5,538.4,285,538.4,292.9"/>
</g>
<g>
	<path class="st22" d="M195,531.9c2.7,0,4.9-2.1,5.1-4.8c0.3-4.4,0.4-8.5,0.4-12.2c0-19.3-3.1-30-7.3-36.4c-2.1-3.2-4.6-5.2-6.8-6.4
		c-2.1-1.1-4-1.3-5.2-1.4c-0.1,0-0.2,0-0.3,0h-24.7c-0.1,0-0.2,0-0.3,0c-1.2,0-3,0.3-5.2,1.4c-3.4,1.7-7.1,5.4-9.7,12
		c-2.6,6.6-4.4,16.2-4.4,30.7c0,3.7,0.1,7.8,0.4,12.3c0.2,2.7,2.4,4.8,5.1,4.8c0.1,0,0.2,0,0.3,0c2.8-0.2,5-2.6,4.8-5.4
		c-0.3-4.3-0.4-8.1-0.4-11.6c0-15.5,2.2-24.2,4.5-28.7v80.8c0,4.4,3.5,7.9,7.9,7.9c4.4,0,7.9-3.5,7.9-7.9v-42.6h3v42.6
		c0,4.4,3.5,7.9,7.9,7.9c4.4,0,7.9-3.5,7.9-7.9l0-80.8c0.4,0.8,0.8,1.7,1.1,2.7c1.8,5,3.3,13.2,3.3,26c0,3.5-0.1,7.4-0.4,11.7
		c-0.2,2.8,2,5.2,4.8,5.4C194.8,531.9,194.9,531.9,195,531.9L195,531.9z"/>
	<path class="st22" d="M182.9,452.6c0,7.9-6.4,14.4-14.4,14.4c-7.9,0-14.4-6.4-14.4-14.4c0-7.9,6.4-14.4,14.4-14.4
		C176.5,438.3,182.9,444.7,182.9,452.6"/>
</g>
<g>
	<path class="st22" d="M283.9,531.9c2.7,0,4.9-2.1,5.1-4.8c0.3-4.4,0.4-8.5,0.4-12.2c0-19.3-3.1-30-7.3-36.4
		c-2.1-3.2-4.6-5.2-6.8-6.4c-2.1-1.1-4-1.3-5.2-1.4c-0.1,0-0.2,0-0.3,0H245c-0.1,0-0.2,0-0.3,0c-1.2,0-3,0.3-5.2,1.4
		c-3.4,1.7-7.1,5.4-9.7,12c-2.6,6.6-4.4,16.2-4.4,30.7c0,3.7,0.1,7.8,0.4,12.3c0.2,2.7,2.4,4.8,5.1,4.8c0.1,0,0.2,0,0.3,0
		c2.8-0.2,5-2.6,4.8-5.4c-0.3-4.3-0.4-8.1-0.4-11.6c0-15.5,2.2-24.2,4.5-28.7v80.8c0,4.4,3.5,7.9,7.9,7.9c4.4,0,7.9-3.5,7.9-7.9
		v-42.6h3v42.6c0,4.4,3.5,7.9,7.9,7.9c4.4,0,7.9-3.5,7.9-7.9l0-80.8c0.4,0.8,0.8,1.7,1.1,2.7c1.8,5,3.3,13.2,3.3,26
		c0,3.5-0.1,7.4-0.4,11.7c-0.2,2.8,2,5.2,4.8,5.4C283.7,531.9,283.8,531.9,283.9,531.9L283.9,531.9z"/>
	<path class="st22" d="M271.8,452.6c0,7.9-6.4,14.4-14.4,14.4c-7.9,0-14.4-6.4-14.4-14.4c0-7.9,6.4-14.4,14.4-14.4
		C265.3,438.3,271.8,444.7,271.8,452.6"/>
</g>
<g>
	<path class="st22" d="M372.8,531.9c2.7,0,4.9-2.1,5.1-4.8c0.3-4.4,0.4-8.5,0.4-12.2c0-19.3-3.1-30-7.3-36.4
		c-2.1-3.2-4.6-5.2-6.8-6.4c-2.1-1.1-4-1.3-5.2-1.4c-0.1,0-0.2,0-0.3,0h-24.7c-0.1,0-0.2,0-0.3,0c-1.2,0-3,0.3-5.2,1.4
		c-3.4,1.7-7.1,5.4-9.7,12c-2.6,6.6-4.4,16.2-4.4,30.7c0,3.7,0.1,7.8,0.4,12.3c0.2,2.7,2.4,4.8,5.1,4.8c0.1,0,0.2,0,0.3,0
		c2.8-0.2,5-2.6,4.8-5.4c-0.3-4.3-0.4-8.1-0.4-11.6c0-15.5,2.2-24.2,4.5-28.7v80.8c0,4.4,3.5,7.9,7.9,7.9c4.4,0,7.9-3.5,7.9-7.9
		v-42.6h3v42.6c0,4.4,3.5,7.9,7.9,7.9c4.4,0,7.9-3.5,7.9-7.9l0-80.8c0.4,0.8,0.8,1.7,1.1,2.7c1.8,5,3.3,13.2,3.3,26
		c0,3.5-0.1,7.4-0.4,11.7c-0.2,2.8,2,5.2,4.8,5.4C372.6,531.9,372.7,531.9,372.8,531.9L372.8,531.9z"/>
	<path class="st22" d="M360.7,452.6c0,7.9-6.4,14.4-14.4,14.4c-7.9,0-14.4-6.4-14.4-14.4c0-7.9,6.4-14.4,14.4-14.4
		C354.2,438.3,360.7,444.7,360.7,452.6"/>
</g>
<g>
	<path class="st22" d="M461.6,531.9c2.7,0,4.9-2.1,5.1-4.8c0.3-4.4,0.4-8.5,0.4-12.2c0-19.3-3.1-30-7.3-36.4
		c-2.1-3.2-4.6-5.2-6.8-6.4c-2.1-1.1-4-1.3-5.2-1.4c-0.1,0-0.2,0-0.3,0h-24.7c-0.1,0-0.2,0-0.3,0c-1.2,0-3,0.3-5.2,1.4
		c-3.4,1.7-7.1,5.4-9.7,12c-2.6,6.6-4.4,16.2-4.4,30.7c0,3.7,0.1,7.8,0.4,12.3c0.2,2.7,2.4,4.8,5.1,4.8c0.1,0,0.2,0,0.3,0
		c2.8-0.2,5-2.6,4.8-5.4c-0.3-4.3-0.4-8.1-0.4-11.6c0-15.5,2.2-24.2,4.5-28.7v80.8c0,4.4,3.5,7.9,7.9,7.9c4.4,0,7.9-3.5,7.9-7.9
		v-42.6h3v42.6c0,4.4,3.5,7.9,7.9,7.9c4.4,0,7.9-3.5,7.9-7.9l0-80.8c0.4,0.8,0.8,1.7,1.1,2.7c1.8,5,3.3,13.2,3.3,26
		c0,3.5-0.1,7.4-0.4,11.7c-0.2,2.8,2,5.2,4.8,5.4C461.4,531.9,461.5,531.9,461.6,531.9L461.6,531.9z"/>
	<path class="st22" d="M449.5,452.6c0,7.9-6.4,14.4-14.4,14.4c-7.9,0-14.4-6.4-14.4-14.4c0-7.9,6.4-14.4,14.4-14.4
		C443.1,438.3,449.5,444.7,449.5,452.6"/>
</g>
<g>
	<path class="st22" d="M550.5,531.9c2.7,0,4.9-2.1,5.1-4.8c0.3-4.4,0.4-8.5,0.4-12.2c0-19.3-3.1-30-7.3-36.4
		c-2.1-3.2-4.6-5.2-6.8-6.4c-2.1-1.1-4-1.3-5.2-1.4c-0.1,0-0.2,0-0.3,0h-24.7c-0.1,0-0.2,0-0.3,0c-1.2,0-3,0.3-5.2,1.4
		c-3.4,1.7-7.1,5.4-9.7,12c-2.6,6.6-4.4,16.2-4.4,30.7c0,3.7,0.1,7.8,0.4,12.3c0.2,2.7,2.4,4.8,5.1,4.8c0.1,0,0.2,0,0.3,0
		c2.8-0.2,5-2.6,4.8-5.4c-0.3-4.3-0.4-8.1-0.4-11.6c0-15.5,2.2-24.2,4.5-28.7v80.8c0,4.4,3.5,7.9,7.9,7.9c4.4,0,7.9-3.5,7.9-7.9
		v-42.6h3v42.6c0,4.4,3.5,7.9,7.9,7.9c4.4,0,7.9-3.5,7.9-7.9l0-80.8c0.4,0.8,0.8,1.7,1.1,2.7c1.8,5,3.3,13.2,3.3,26
		c0,3.5-0.1,7.4-0.4,11.7c-0.2,2.8,2,5.2,4.8,5.4C550.3,531.9,550.4,531.9,550.5,531.9L550.5,531.9z"/>
	<path class="st22" d="M538.4,452.6c0,7.9-6.4,14.4-14.4,14.4c-7.9,0-14.4-6.4-14.4-14.4c0-7.9,6.4-14.4,14.4-14.4
		C532,438.3,538.4,444.7,538.4,452.6"/>
</g>
<g>
	<path class="st25" d="M195,691.6c2.7,0,4.9-2.1,5.1-4.8c0.3-4.4,0.4-8.5,0.4-12.2c0-19.3-3.1-30-7.3-36.4c-2.1-3.2-4.6-5.2-6.8-6.4
		c-2.1-1.1-4-1.3-5.2-1.4c-0.1,0-0.2,0-0.3,0h-24.7c-0.1,0-0.2,0-0.3,0c-1.2,0-3,0.3-5.2,1.4c-3.4,1.7-7.1,5.4-9.7,12
		c-2.6,6.6-4.4,16.2-4.4,30.7c0,3.7,0.1,7.8,0.4,12.3c0.2,2.7,2.4,4.8,5.1,4.8c0.1,0,0.2,0,0.3,0c2.8-0.2,5-2.6,4.8-5.4
		c-0.3-4.3-0.4-8.1-0.4-11.6c0-15.5,2.2-24.2,4.5-28.7v80.8c0,4.4,3.5,7.9,7.9,7.9c4.4,0,7.9-3.5,7.9-7.9V684h3v42.6
		c0,4.4,3.5,7.9,7.9,7.9c4.4,0,7.9-3.5,7.9-7.9l0-80.8c0.4,0.8,0.8,1.7,1.1,2.7c1.8,5,3.3,13.2,3.3,26c0,3.5-0.1,7.4-0.4,11.7
		c-0.2,2.8,2,5.2,4.8,5.4C194.8,691.6,194.9,691.6,195,691.6L195,691.6z"/>
	<path class="st25" d="M182.9,612.4c0,7.9-6.4,14.4-14.4,14.4c-7.9,0-14.4-6.4-14.4-14.4c0-7.9,6.4-14.4,14.4-14.4
		C176.5,598,182.9,604.4,182.9,612.4"/>
</g>
<g>
	<path class="st25" d="M283.9,691.6c2.7,0,4.9-2.1,5.1-4.8c0.3-4.4,0.4-8.5,0.4-12.2c0-19.3-3.1-30-7.3-36.4
		c-2.1-3.2-4.6-5.2-6.8-6.4c-2.1-1.1-4-1.3-5.2-1.4c-0.1,0-0.2,0-0.3,0H245c-0.1,0-0.2,0-0.3,0c-1.2,0-3,0.3-5.2,1.4
		c-3.4,1.7-7.1,5.4-9.7,12c-2.6,6.6-4.4,16.2-4.4,30.7c0,3.7,0.1,7.8,0.4,12.3c0.2,2.7,2.4,4.8,5.1,4.8c0.1,0,0.2,0,0.3,0
		c2.8-0.2,5-2.6,4.8-5.4c-0.3-4.3-0.4-8.1-0.4-11.6c0-15.5,2.2-24.2,4.5-28.7v80.8c0,4.4,3.5,7.9,7.9,7.9c4.4,0,7.9-3.5,7.9-7.9V684
		h3v42.6c0,4.4,3.5,7.9,7.9,7.9c4.4,0,7.9-3.5,7.9-7.9l0-80.8c0.4,0.8,0.8,1.7,1.1,2.7c1.8,5,3.3,13.2,3.3,26
		c0,3.5-0.1,7.4-0.4,11.7c-0.2,2.8,2,5.2,4.8,5.4C283.7,691.6,283.8,691.6,283.9,691.6L283.9,691.6z"/>
	<path class="st25" d="M271.8,612.4c0,7.9-6.4,14.4-14.4,14.4c-7.9,0-14.4-6.4-14.4-14.4c0-7.9,6.4-14.4,14.4-14.4
		C265.3,598,271.8,604.4,271.8,612.4"/>
</g>
<g>
	<path class="st25" d="M372.8,691.6c2.7,0,4.9-2.1,5.1-4.8c0.3-4.4,0.4-8.5,0.4-12.2c0-19.3-3.1-30-7.3-36.4
		c-2.1-3.2-4.6-5.2-6.8-6.4c-2.1-1.1-4-1.3-5.2-1.4c-0.1,0-0.2,0-0.3,0h-24.7c-0.1,0-0.2,0-0.3,0c-1.2,0-3,0.3-5.2,1.4
		c-3.4,1.7-7.1,5.4-9.7,12c-2.6,6.6-4.4,16.2-4.4,30.7c0,3.7,0.1,7.8,0.4,12.3c0.2,2.7,2.4,4.8,5.1,4.8c0.1,0,0.2,0,0.3,0
		c2.8-0.2,5-2.6,4.8-5.4c-0.3-4.3-0.4-8.1-0.4-11.6c0-15.5,2.2-24.2,4.5-28.7v80.8c0,4.4,3.5,7.9,7.9,7.9c4.4,0,7.9-3.5,7.9-7.9V684
		h3v42.6c0,4.4,3.5,7.9,7.9,7.9c4.4,0,7.9-3.5,7.9-7.9l0-80.8c0.4,0.8,0.8,1.7,1.1,2.7c1.8,5,3.3,13.2,3.3,26
		c0,3.5-0.1,7.4-0.4,11.7c-0.2,2.8,2,5.2,4.8,5.4C372.6,691.6,372.7,691.6,372.8,691.6L372.8,691.6z"/>
	<path class="st25" d="M360.7,612.4c0,7.9-6.4,14.4-14.4,14.4c-7.9,0-14.4-6.4-14.4-14.4c0-7.9,6.4-14.4,14.4-14.4
		C354.2,598,360.7,604.4,360.7,612.4"/>
</g>
<g>
	<path class="st25" d="M461.6,691.6c2.7,0,4.9-2.1,5.1-4.8c0.3-4.4,0.4-8.5,0.4-12.2c0-19.3-3.1-30-7.3-36.4
		c-2.1-3.2-4.6-5.2-6.8-6.4c-2.1-1.1-4-1.3-5.2-1.4c-0.1,0-0.2,0-0.3,0h-24.7c-0.1,0-0.2,0-0.3,0c-1.2,0-3,0.3-5.2,1.4
		c-3.4,1.7-7.1,5.4-9.7,12c-2.6,6.6-4.4,16.2-4.4,30.7c0,3.7,0.1,7.8,0.4,12.3c0.2,2.7,2.4,4.8,5.1,4.8c0.1,0,0.2,0,0.3,0
		c2.8-0.2,5-2.6,4.8-5.4c-0.3-4.3-0.4-8.1-0.4-11.6c0-15.5,2.2-24.2,4.5-28.7v80.8c0,4.4,3.5,7.9,7.9,7.9c4.4,0,7.9-3.5,7.9-7.9V684
		h3v42.6c0,4.4,3.5,7.9,7.9,7.9c4.4,0,7.9-3.5,7.9-7.9l0-80.8c0.4,0.8,0.8,1.7,1.1,2.7c1.8,5,3.3,13.2,3.3,26
		c0,3.5-0.1,7.4-0.4,11.7c-0.2,2.8,2,5.2,4.8,5.4C461.4,691.6,461.5,691.6,461.6,691.6L461.6,691.6z"/>
	<path class="st25" d="M449.5,612.4c0,7.9-6.4,14.4-14.4,14.4c-7.9,0-14.4-6.4-14.4-14.4c0-7.9,6.4-14.4,14.4-14.4
		C443.1,598,449.5,604.4,449.5,612.4"/>
</g>
<g>
	<path class="st25" d="M550.5,691.6c2.7,0,4.9-2.1,5.1-4.8c0.3-4.4,0.4-8.5,0.4-12.2c0-19.3-3.1-30-7.3-36.4
		c-2.1-3.2-4.6-5.2-6.8-6.4c-2.1-1.1-4-1.3-5.2-1.4c-0.1,0-0.2,0-0.3,0h-24.7c-0.1,0-0.2,0-0.3,0c-1.2,0-3,0.3-5.2,1.4
		c-3.4,1.7-7.1,5.4-9.7,12c-2.6,6.6-4.4,16.2-4.4,30.7c0,3.7,0.1,7.8,0.4,12.3c0.2,2.7,2.4,4.8,5.1,4.8c0.1,0,0.2,0,0.3,0
		c2.8-0.2,5-2.6,4.8-5.4c-0.3-4.3-0.4-8.1-0.4-11.6c0-15.5,2.2-24.2,4.5-28.7v80.8c0,4.4,3.5,7.9,7.9,7.9c4.4,0,7.9-3.5,7.9-7.9V684
		h3v42.6c0,4.4,3.5,7.9,7.9,7.9c4.4,0,7.9-3.5,7.9-7.9l0-80.8c0.4,0.8,0.8,1.7,1.1,2.7c1.8,5,3.3,13.2,3.3,26
		c0,3.5-0.1,7.4-0.4,11.7c-0.2,2.8,2,5.2,4.8,5.4C550.3,691.6,550.4,691.6,550.5,691.6L550.5,691.6z"/>
	<path class="st25" d="M538.4,612.4c0,7.9-6.4,14.4-14.4,14.4c-7.9,0-14.4-6.4-14.4-14.4c0-7.9,6.4-14.4,14.4-14.4
		C532,598,538.4,604.4,538.4,612.4"/>
</g>
<g>
	<path class="st25" d="M195,851.4c2.7,0,4.9-2.1,5.1-4.8c0.3-4.4,0.4-8.5,0.4-12.2c0-19.3-3.1-30-7.3-36.4c-2.1-3.2-4.6-5.2-6.8-6.4
		c-2.1-1.1-4-1.3-5.2-1.4c-0.1,0-0.2,0-0.3,0h-24.7c-0.1,0-0.2,0-0.3,0c-1.2,0-3,0.3-5.2,1.4c-3.4,1.7-7.1,5.4-9.7,12
		c-2.6,6.6-4.4,16.2-4.4,30.7c0,3.7,0.1,7.8,0.4,12.3c0.2,2.7,2.4,4.8,5.1,4.8c0.1,0,0.2,0,0.3,0c2.8-0.2,5-2.6,4.8-5.4
		c-0.3-4.3-0.4-8.1-0.4-11.6c0-15.5,2.2-24.2,4.5-28.7v80.8c0,4.4,3.5,7.9,7.9,7.9c4.4,0,7.9-3.5,7.9-7.9v-42.6h3v42.6
		c0,4.4,3.5,7.9,7.9,7.9c4.4,0,7.9-3.5,7.9-7.9l0-80.8c0.4,0.8,0.8,1.7,1.1,2.7c1.8,5,3.3,13.2,3.3,26c0,3.5-0.1,7.4-0.4,11.7
		c-0.2,2.8,2,5.2,4.8,5.4C194.8,851.3,194.9,851.4,195,851.4L195,851.4z"/>
	<path class="st25" d="M182.9,772.1c0,7.9-6.4,14.4-14.4,14.4c-7.9,0-14.4-6.4-14.4-14.4c0-7.9,6.4-14.4,14.4-14.4
		C176.5,757.7,182.9,764.2,182.9,772.1"/>
</g>
<g>
	<path class="st22" d="M283.9,851.4c2.7,0,4.9-2.1,5.1-4.8c0.3-4.4,0.4-8.5,0.4-12.2c0-19.3-3.1-30-7.3-36.4
		c-2.1-3.2-4.6-5.2-6.8-6.4c-2.1-1.1-4-1.3-5.2-1.4c-0.1,0-0.2,0-0.3,0H245c-0.1,0-0.2,0-0.3,0c-1.2,0-3,0.3-5.2,1.4
		c-3.4,1.7-7.1,5.4-9.7,12c-2.6,6.6-4.4,16.2-4.4,30.7c0,3.7,0.1,7.8,0.4,12.3c0.2,2.7,2.4,4.8,5.1,4.8c0.1,0,0.2,0,0.3,0
		c2.8-0.2,5-2.6,4.8-5.4c-0.3-4.3-0.4-8.1-0.4-11.6c0-15.5,2.2-24.2,4.5-28.7v80.8c0,4.4,3.5,7.9,7.9,7.9c4.4,0,7.9-3.5,7.9-7.9
		v-42.6h3v42.6c0,4.4,3.5,7.9,7.9,7.9c4.4,0,7.9-3.5,7.9-7.9l0-80.8c0.4,0.8,0.8,1.7,1.1,2.7c1.8,5,3.3,13.2,3.3,26
		c0,3.5-0.1,7.4-0.4,11.7c-0.2,2.8,2,5.2,4.8,5.4C283.7,851.3,283.8,851.4,283.9,851.4L283.9,851.4z"/>
	<path class="st22" d="M271.8,772.1c0,7.9-6.4,14.4-14.4,14.4c-7.9,0-14.4-6.4-14.4-14.4c0-7.9,6.4-14.4,14.4-14.4
		C265.3,757.7,271.8,764.2,271.8,772.1"/>
</g>
<g>
	<path class="st22" d="M372.8,851.4c2.7,0,4.9-2.1,5.1-4.8c0.3-4.4,0.4-8.5,0.4-12.2c0-19.3-3.1-30-7.3-36.4
		c-2.1-3.2-4.6-5.2-6.8-6.4c-2.1-1.1-4-1.3-5.2-1.4c-0.1,0-0.2,0-0.3,0h-24.7c-0.1,0-0.2,0-0.3,0c-1.2,0-3,0.3-5.2,1.4
		c-3.4,1.7-7.1,5.4-9.7,12c-2.6,6.6-4.4,16.2-4.4,30.7c0,3.7,0.1,7.8,0.4,12.3c0.2,2.7,2.4,4.8,5.1,4.8c0.1,0,0.2,0,0.3,0
		c2.8-0.2,5-2.6,4.8-5.4c-0.3-4.3-0.4-8.1-0.4-11.6c0-15.5,2.2-24.2,4.5-28.7v80.8c0,4.4,3.5,7.9,7.9,7.9c4.4,0,7.9-3.5,7.9-7.9
		v-42.6h3v42.6c0,4.4,3.5,7.9,7.9,7.9c4.4,0,7.9-3.5,7.9-7.9l0-80.8c0.4,0.8,0.8,1.7,1.1,2.7c1.8,5,3.3,13.2,3.3,26
		c0,3.5-0.1,7.4-0.4,11.7c-0.2,2.8,2,5.2,4.8,5.4C372.6,851.3,372.7,851.4,372.8,851.4L372.8,851.4z"/>
	<path class="st22" d="M360.7,772.1c0,7.9-6.4,14.4-14.4,14.4c-7.9,0-14.4-6.4-14.4-14.4c0-7.9,6.4-14.4,14.4-14.4
		C354.2,757.7,360.7,764.2,360.7,772.1"/>
</g>
<g>
	<path class="st22" d="M461.6,851.4c2.7,0,4.9-2.1,5.1-4.8c0.3-4.4,0.4-8.5,0.4-12.2c0-19.3-3.1-30-7.3-36.4
		c-2.1-3.2-4.6-5.2-6.8-6.4c-2.1-1.1-4-1.3-5.2-1.4c-0.1,0-0.2,0-0.3,0h-24.7c-0.1,0-0.2,0-0.3,0c-1.2,0-3,0.3-5.2,1.4
		c-3.4,1.7-7.1,5.4-9.7,12c-2.6,6.6-4.4,16.2-4.4,30.7c0,3.7,0.1,7.8,0.4,12.3c0.2,2.7,2.4,4.8,5.1,4.8c0.1,0,0.2,0,0.3,0
		c2.8-0.2,5-2.6,4.8-5.4c-0.3-4.3-0.4-8.1-0.4-11.6c0-15.5,2.2-24.2,4.5-28.7v80.8c0,4.4,3.5,7.9,7.9,7.9c4.4,0,7.9-3.5,7.9-7.9
		v-42.6h3v42.6c0,4.4,3.5,7.9,7.9,7.9c4.4,0,7.9-3.5,7.9-7.9l0-80.8c0.4,0.8,0.8,1.7,1.1,2.7c1.8,5,3.3,13.2,3.3,26
		c0,3.5-0.1,7.4-0.4,11.7c-0.2,2.8,2,5.2,4.8,5.4C461.4,851.3,461.5,851.4,461.6,851.4L461.6,851.4z"/>
	<path class="st22" d="M449.5,772.1c0,7.9-6.4,14.4-14.4,14.4c-7.9,0-14.4-6.4-14.4-14.4c0-7.9,6.4-14.4,14.4-14.4
		C443.1,757.7,449.5,764.2,449.5,772.1"/>
</g>
<g>
	<path class="st22" d="M550.5,851.4c2.7,0,4.9-2.1,5.1-4.8c0.3-4.4,0.4-8.5,0.4-12.2c0-19.3-3.1-30-7.3-36.4
		c-2.1-3.2-4.6-5.2-6.8-6.4c-2.1-1.1-4-1.3-5.2-1.4c-0.1,0-0.2,0-0.3,0h-24.7c-0.1,0-0.2,0-0.3,0c-1.2,0-3,0.3-5.2,1.4
		c-3.4,1.7-7.1,5.4-9.7,12c-2.6,6.6-4.4,16.2-4.4,30.7c0,3.7,0.1,7.8,0.4,12.3c0.2,2.7,2.4,4.8,5.1,4.8c0.1,0,0.2,0,0.3,0
		c2.8-0.2,5-2.6,4.8-5.4c-0.3-4.3-0.4-8.1-0.4-11.6c0-15.5,2.2-24.2,4.5-28.7v80.8c0,4.4,3.5,7.9,7.9,7.9c4.4,0,7.9-3.5,7.9-7.9
		v-42.6h3v42.6c0,4.4,3.5,7.9,7.9,7.9c4.4,0,7.9-3.5,7.9-7.9l0-80.8c0.4,0.8,0.8,1.7,1.1,2.7c1.8,5,3.3,13.2,3.3,26
		c0,3.5-0.1,7.4-0.4,11.7c-0.2,2.8,2,5.2,4.8,5.4C550.3,851.3,550.4,851.4,550.5,851.4L550.5,851.4z"/>
	<path class="st22" d="M538.4,772.1c0,7.9-6.4,14.4-14.4,14.4c-7.9,0-14.4-6.4-14.4-14.4c0-7.9,6.4-14.4,14.4-14.4
		C532,757.7,538.4,764.2,538.4,772.1"/>
</g>
<g>
	<path class="st22" d="M195,1011.1c2.7,0,4.9-2.1,5.1-4.8c0.3-4.4,0.4-8.5,0.4-12.2c0-19.3-3.1-30-7.3-36.4
		c-2.1-3.2-4.6-5.2-6.8-6.4c-2.1-1.1-4-1.3-5.2-1.4c-0.1,0-0.2,0-0.3,0h-24.7c-0.1,0-0.2,0-0.3,0c-1.2,0-3,0.3-5.2,1.4
		c-3.4,1.7-7.1,5.4-9.7,12c-2.6,6.6-4.4,16.2-4.4,30.7c0,3.7,0.1,7.8,0.4,12.3c0.2,2.7,2.4,4.8,5.1,4.8c0.1,0,0.2,0,0.3,0
		c2.8-0.2,5-2.6,4.8-5.4c-0.3-4.3-0.4-8.1-0.4-11.6c0-15.5,2.2-24.2,4.5-28.7v80.8c0,4.4,3.5,7.9,7.9,7.9c4.4,0,7.9-3.5,7.9-7.9
		v-42.6h3v42.6c0,4.4,3.5,7.9,7.9,7.9c4.4,0,7.9-3.5,7.9-7.9l0-80.8c0.4,0.8,0.8,1.7,1.1,2.7c1.8,5,3.3,13.2,3.3,26
		c0,3.5-0.1,7.4-0.4,11.7c-0.2,2.8,2,5.2,4.8,5.4C194.8,1011.1,194.9,1011.1,195,1011.1L195,1011.1z"/>
	<path class="st22" d="M182.9,931.9c0,7.9-6.4,14.4-14.4,14.4c-7.9,0-14.4-6.4-14.4-14.4c0-7.9,6.4-14.4,14.4-14.4
		C176.5,917.5,182.9,923.9,182.9,931.9"/>
</g>
<g>
	<path class="st22" d="M283.9,1011.1c2.7,0,4.9-2.1,5.1-4.8c0.3-4.4,0.4-8.5,0.4-12.2c0-19.3-3.1-30-7.3-36.4
		c-2.1-3.2-4.6-5.2-6.8-6.4c-2.1-1.1-4-1.3-5.2-1.4c-0.1,0-0.2,0-0.3,0H245c-0.1,0-0.2,0-0.3,0c-1.2,0-3,0.3-5.2,1.4
		c-3.4,1.7-7.1,5.4-9.7,12c-2.6,6.6-4.4,16.2-4.4,30.7c0,3.7,0.1,7.8,0.4,12.3c0.2,2.7,2.4,4.8,5.1,4.8c0.1,0,0.2,0,0.3,0
		c2.8-0.2,5-2.6,4.8-5.4c-0.3-4.3-0.4-8.1-0.4-11.6c0-15.5,2.2-24.2,4.5-28.7v80.8c0,4.4,3.5,7.9,7.9,7.9c4.4,0,7.9-3.5,7.9-7.9
		v-42.6h3v42.6c0,4.4,3.5,7.9,7.9,7.9c4.4,0,7.9-3.5,7.9-7.9l0-80.8c0.4,0.8,0.8,1.7,1.1,2.7c1.8,5,3.3,13.2,3.3,26
		c0,3.5-0.1,7.4-0.4,11.7c-0.2,2.8,2,5.2,4.8,5.4C283.7,1011.1,283.8,1011.1,283.9,1011.1L283.9,1011.1z"/>
	<path class="st22" d="M271.8,931.9c0,7.9-6.4,14.4-14.4,14.4c-7.9,0-14.4-6.4-14.4-14.4c0-7.9,6.4-14.4,14.4-14.4
		C265.3,917.5,271.8,923.9,271.8,931.9"/>
</g>
<g>
	<path class="st22" d="M372.8,1011.1c2.7,0,4.9-2.1,5.1-4.8c0.3-4.4,0.4-8.5,0.4-12.2c0-19.3-3.1-30-7.3-36.4
		c-2.1-3.2-4.6-5.2-6.8-6.4c-2.1-1.1-4-1.3-5.2-1.4c-0.1,0-0.2,0-0.3,0h-24.7c-0.1,0-0.2,0-0.3,0c-1.2,0-3,0.3-5.2,1.4
		c-3.4,1.7-7.1,5.4-9.7,12c-2.6,6.6-4.4,16.2-4.4,30.7c0,3.7,0.1,7.8,0.4,12.3c0.2,2.7,2.4,4.8,5.1,4.8c0.1,0,0.2,0,0.3,0
		c2.8-0.2,5-2.6,4.8-5.4c-0.3-4.3-0.4-8.1-0.4-11.6c0-15.5,2.2-24.2,4.5-28.7v80.8c0,4.4,3.5,7.9,7.9,7.9c4.4,0,7.9-3.5,7.9-7.9
		v-42.6h3v42.6c0,4.4,3.5,7.9,7.9,7.9c4.4,0,7.9-3.5,7.9-7.9l0-80.8c0.4,0.8,0.8,1.7,1.1,2.7c1.8,5,3.3,13.2,3.3,26
		c0,3.5-0.1,7.4-0.4,11.7c-0.2,2.8,2,5.2,4.8,5.4C372.6,1011.1,372.7,1011.1,372.8,1011.1L372.8,1011.1z"/>
	<path class="st22" d="M360.7,931.9c0,7.9-6.4,14.4-14.4,14.4c-7.9,0-14.4-6.4-14.4-14.4c0-7.9,6.4-14.4,14.4-14.4
		C354.2,917.5,360.7,923.9,360.7,931.9"/>
</g>
<g>
	<path class="st22" d="M461.6,1011.1c2.7,0,4.9-2.1,5.1-4.8c0.3-4.4,0.4-8.5,0.4-12.2c0-19.3-3.1-30-7.3-36.4
		c-2.1-3.2-4.6-5.2-6.8-6.4c-2.1-1.1-4-1.3-5.2-1.4c-0.1,0-0.2,0-0.3,0h-24.7c-0.1,0-0.2,0-0.3,0c-1.2,0-3,0.3-5.2,1.4
		c-3.4,1.7-7.1,5.4-9.7,12c-2.6,6.6-4.4,16.2-4.4,30.7c0,3.7,0.1,7.8,0.4,12.3c0.2,2.7,2.4,4.8,5.1,4.8c0.1,0,0.2,0,0.3,0
		c2.8-0.2,5-2.6,4.8-5.4c-0.3-4.3-0.4-8.1-0.4-11.6c0-15.5,2.2-24.2,4.5-28.7v80.8c0,4.4,3.5,7.9,7.9,7.9c4.4,0,7.9-3.5,7.9-7.9
		v-42.6h3v42.6c0,4.4,3.5,7.9,7.9,7.9c4.4,0,7.9-3.5,7.9-7.9l0-80.8c0.4,0.8,0.8,1.7,1.1,2.7c1.8,5,3.3,13.2,3.3,26
		c0,3.5-0.1,7.4-0.4,11.7c-0.2,2.8,2,5.2,4.8,5.4C461.4,1011.1,461.5,1011.1,461.6,1011.1L461.6,1011.1z"/>
	<path class="st22" d="M449.5,931.9c0,7.9-6.4,14.4-14.4,14.4c-7.9,0-14.4-6.4-14.4-14.4c0-7.9,6.4-14.4,14.4-14.4
		C443.1,917.5,449.5,923.9,449.5,931.9"/>
</g>
<g>
	<path class="st22" d="M550.5,1011.1c2.7,0,4.9-2.1,5.1-4.8c0.3-4.4,0.4-8.5,0.4-12.2c0-19.3-3.1-30-7.3-36.4
		c-2.1-3.2-4.6-5.2-6.8-6.4c-2.1-1.1-4-1.3-5.2-1.4c-0.1,0-0.2,0-0.3,0h-24.7c-0.1,0-0.2,0-0.3,0c-1.2,0-3,0.3-5.2,1.4
		c-3.4,1.7-7.1,5.4-9.7,12c-2.6,6.6-4.4,16.2-4.4,30.7c0,3.7,0.1,7.8,0.4,12.3c0.2,2.7,2.4,4.8,5.1,4.8c0.1,0,0.2,0,0.3,0
		c2.8-0.2,5-2.6,4.8-5.4c-0.3-4.3-0.4-8.1-0.4-11.6c0-15.5,2.2-24.2,4.5-28.7v80.8c0,4.4,3.5,7.9,7.9,7.9c4.4,0,7.9-3.5,7.9-7.9
		v-42.6h3v42.6c0,4.4,3.5,7.9,7.9,7.9c4.4,0,7.9-3.5,7.9-7.9l0-80.8c0.4,0.8,0.8,1.7,1.1,2.7c1.8,5,3.3,13.2,3.3,26
		c0,3.5-0.1,7.4-0.4,11.7c-0.2,2.8,2,5.2,4.8,5.4C550.3,1011.1,550.4,1011.1,550.5,1011.1L550.5,1011.1z"/>
	<path class="st22" d="M538.4,931.9c0,7.9-6.4,14.4-14.4,14.4c-7.9,0-14.4-6.4-14.4-14.4c0-7.9,6.4-14.4,14.4-14.4
		C532,917.5,538.4,923.9,538.4,931.9"/>
</g>
<g>
	<path class="st1" d="M195,1170.8c2.7,0,4.9-2.1,5.1-4.8c0.3-4.4,0.4-8.5,0.4-12.2c0-19.3-3.1-30-7.3-36.4c-2.1-3.2-4.6-5.2-6.8-6.4
		c-2.1-1.1-4-1.3-5.2-1.4c-0.1,0-0.2,0-0.3,0h-24.7c-0.1,0-0.2,0-0.3,0c-1.2,0-3,0.3-5.2,1.4c-3.4,1.7-7.1,5.4-9.7,12
		c-2.6,6.6-4.4,16.2-4.4,30.7c0,3.7,0.1,7.8,0.4,12.3c0.2,2.7,2.4,4.8,5.1,4.8c0.1,0,0.2,0,0.3,0c2.8-0.2,5-2.6,4.8-5.4
		c-0.3-4.3-0.4-8.1-0.4-11.6c0-15.5,2.2-24.2,4.5-28.7v80.8c0,4.4,3.5,7.9,7.9,7.9c4.4,0,7.9-3.5,7.9-7.9v-42.6h3v42.6
		c0,4.4,3.5,7.9,7.9,7.9c4.4,0,7.9-3.5,7.9-7.9l0-80.8c0.4,0.8,0.8,1.7,1.1,2.7c1.8,5,3.3,13.2,3.3,26c0,3.5-0.1,7.4-0.4,11.7
		c-0.2,2.8,2,5.2,4.8,5.4C194.8,1170.8,194.9,1170.8,195,1170.8L195,1170.8z"/>
	<path class="st1" d="M182.9,1091.6c0,7.9-6.4,14.4-14.4,14.4c-7.9,0-14.4-6.4-14.4-14.4c0-7.9,6.4-14.4,14.4-14.4
		C176.5,1077.2,182.9,1083.7,182.9,1091.6"/>
</g>
<g>
	<path class="st1" d="M283.9,1170.8c2.7,0,4.9-2.1,5.1-4.8c0.3-4.4,0.4-8.5,0.4-12.2c0-19.3-3.1-30-7.3-36.4
		c-2.1-3.2-4.6-5.2-6.8-6.4c-2.1-1.1-4-1.3-5.2-1.4c-0.1,0-0.2,0-0.3,0H245c-0.1,0-0.2,0-0.3,0c-1.2,0-3,0.3-5.2,1.4
		c-3.4,1.7-7.1,5.4-9.7,12c-2.6,6.6-4.4,16.2-4.4,30.7c0,3.7,0.1,7.8,0.4,12.3c0.2,2.7,2.4,4.8,5.1,4.8c0.1,0,0.2,0,0.3,0
		c2.8-0.2,5-2.6,4.8-5.4c-0.3-4.3-0.4-8.1-0.4-11.6c0-15.5,2.2-24.2,4.5-28.7v80.8c0,4.4,3.5,7.9,7.9,7.9c4.4,0,7.9-3.5,7.9-7.9
		v-42.6h3v42.6c0,4.4,3.5,7.9,7.9,7.9c4.4,0,7.9-3.5,7.9-7.9l0-80.8c0.4,0.8,0.8,1.7,1.1,2.7c1.8,5,3.3,13.2,3.3,26
		c0,3.5-0.1,7.4-0.4,11.7c-0.2,2.8,2,5.2,4.8,5.4C283.7,1170.8,283.8,1170.8,283.9,1170.8L283.9,1170.8z"/>
	<path class="st1" d="M271.8,1091.6c0,7.9-6.4,14.4-14.4,14.4c-7.9,0-14.4-6.4-14.4-14.4c0-7.9,6.4-14.4,14.4-14.4
		C265.3,1077.2,271.8,1083.7,271.8,1091.6"/>
</g>
<g>
	<path class="st1" d="M372.8,1170.8c2.7,0,4.9-2.1,5.1-4.8c0.3-4.4,0.4-8.5,0.4-12.2c0-19.3-3.1-30-7.3-36.4
		c-2.1-3.2-4.6-5.2-6.8-6.4c-2.1-1.1-4-1.3-5.2-1.4c-0.1,0-0.2,0-0.3,0h-24.7c-0.1,0-0.2,0-0.3,0c-1.2,0-3,0.3-5.2,1.4
		c-3.4,1.7-7.1,5.4-9.7,12c-2.6,6.6-4.4,16.2-4.4,30.7c0,3.7,0.1,7.8,0.4,12.3c0.2,2.7,2.4,4.8,5.1,4.8c0.1,0,0.2,0,0.3,0
		c2.8-0.2,5-2.6,4.8-5.4c-0.3-4.3-0.4-8.1-0.4-11.6c0-15.5,2.2-24.2,4.5-28.7v80.8c0,4.4,3.5,7.9,7.9,7.9c4.4,0,7.9-3.5,7.9-7.9
		v-42.6h3v42.6c0,4.4,3.5,7.9,7.9,7.9c4.4,0,7.9-3.5,7.9-7.9l0-80.8c0.4,0.8,0.8,1.7,1.1,2.7c1.8,5,3.3,13.2,3.3,26
		c0,3.5-0.1,7.4-0.4,11.7c-0.2,2.8,2,5.2,4.8,5.4C372.6,1170.8,372.7,1170.8,372.8,1170.8L372.8,1170.8z"/>
	<path class="st1" d="M360.7,1091.6c0,7.9-6.4,14.4-14.4,14.4c-7.9,0-14.4-6.4-14.4-14.4c0-7.9,6.4-14.4,14.4-14.4
		C354.2,1077.2,360.7,1083.7,360.7,1091.6"/>
</g>
<g>
	<path class="st1" d="M461.6,1170.8c2.7,0,4.9-2.1,5.1-4.8c0.3-4.4,0.4-8.5,0.4-12.2c0-19.3-3.1-30-7.3-36.4
		c-2.1-3.2-4.6-5.2-6.8-6.4c-2.1-1.1-4-1.3-5.2-1.4c-0.1,0-0.2,0-0.3,0h-24.7c-0.1,0-0.2,0-0.3,0c-1.2,0-3,0.3-5.2,1.4
		c-3.4,1.7-7.1,5.4-9.7,12c-2.6,6.6-4.4,16.2-4.4,30.7c0,3.7,0.1,7.8,0.4,12.3c0.2,2.7,2.4,4.8,5.1,4.8c0.1,0,0.2,0,0.3,0
		c2.8-0.2,5-2.6,4.8-5.4c-0.3-4.3-0.4-8.1-0.4-11.6c0-15.5,2.2-24.2,4.5-28.7v80.8c0,4.4,3.5,7.9,7.9,7.9c4.4,0,7.9-3.5,7.9-7.9
		v-42.6h3v42.6c0,4.4,3.5,7.9,7.9,7.9c4.4,0,7.9-3.5,7.9-7.9l0-80.8c0.4,0.8,0.8,1.7,1.1,2.7c1.8,5,3.3,13.2,3.3,26
		c0,3.5-0.1,7.4-0.4,11.7c-0.2,2.8,2,5.2,4.8,5.4C461.4,1170.8,461.5,1170.8,461.6,1170.8L461.6,1170.8z"/>
	<path class="st1" d="M449.5,1091.6c0,7.9-6.4,14.4-14.4,14.4c-7.9,0-14.4-6.4-14.4-14.4c0-7.9,6.4-14.4,14.4-14.4
		C443.1,1077.2,449.5,1083.7,449.5,1091.6"/>
</g>
<g>
	<path class="st22" d="M550.5,1170.8c2.7,0,4.9-2.1,5.1-4.8c0.3-4.4,0.4-8.5,0.4-12.2c0-19.3-3.1-30-7.3-36.4
		c-2.1-3.2-4.6-5.2-6.8-6.4c-2.1-1.1-4-1.3-5.2-1.4c-0.1,0-0.2,0-0.3,0h-24.7c-0.1,0-0.2,0-0.3,0c-1.2,0-3,0.3-5.2,1.4
		c-3.4,1.7-7.1,5.4-9.7,12c-2.6,6.6-4.4,16.2-4.4,30.7c0,3.7,0.1,7.8,0.4,12.3c0.2,2.7,2.4,4.8,5.1,4.8c0.1,0,0.2,0,0.3,0
		c2.8-0.2,5-2.6,4.8-5.4c-0.3-4.3-0.4-8.1-0.4-11.6c0-15.5,2.2-24.2,4.5-28.7v80.8c0,4.4,3.5,7.9,7.9,7.9c4.4,0,7.9-3.5,7.9-7.9
		v-42.6h3v42.6c0,4.4,3.5,7.9,7.9,7.9c4.4,0,7.9-3.5,7.9-7.9l0-80.8c0.4,0.8,0.8,1.7,1.1,2.7c1.8,5,3.3,13.2,3.3,26
		c0,3.5-0.1,7.4-0.4,11.7c-0.2,2.8,2,5.2,4.8,5.4C550.3,1170.8,550.4,1170.8,550.5,1170.8L550.5,1170.8z"/>
	<path class="st22" d="M538.4,1091.6c0,7.9-6.4,14.4-14.4,14.4c-7.9,0-14.4-6.4-14.4-14.4c0-7.9,6.4-14.4,14.4-14.4
		C532,1077.2,538.4,1083.7,538.4,1091.6"/>
</g>
<g>
	<path class="st1" d="M195,1330.6c2.7,0,4.9-2.1,5.1-4.8c0.3-4.4,0.4-8.5,0.4-12.2c0-19.3-3.1-30-7.3-36.4c-2.1-3.2-4.6-5.2-6.8-6.4
		c-2.1-1.1-4-1.3-5.2-1.4c-0.1,0-0.2,0-0.3,0h-24.7c-0.1,0-0.2,0-0.3,0c-1.2,0-3,0.3-5.2,1.4c-3.4,1.7-7.1,5.4-9.7,12
		c-2.6,6.6-4.4,16.2-4.4,30.7c0,3.7,0.1,7.8,0.4,12.3c0.2,2.7,2.4,4.8,5.1,4.8c0.1,0,0.2,0,0.3,0c2.8-0.2,5-2.6,4.8-5.4
		c-0.3-4.3-0.4-8.1-0.4-11.6c0-15.5,2.2-24.2,4.5-28.7v80.8c0,4.4,3.5,7.9,7.9,7.9c4.4,0,7.9-3.5,7.9-7.9V1323h3v42.6
		c0,4.4,3.5,7.9,7.9,7.9c4.4,0,7.9-3.5,7.9-7.9l0-80.8c0.4,0.8,0.8,1.7,1.1,2.7c1.8,5,3.3,13.2,3.3,26c0,3.5-0.1,7.4-0.4,11.7
		c-0.2,2.8,2,5.2,4.8,5.4C194.8,1330.6,194.9,1330.6,195,1330.6L195,1330.6z"/>
	<path class="st1" d="M182.9,1251.3c0,7.9-6.4,14.4-14.4,14.4c-7.9,0-14.4-6.4-14.4-14.4c0-7.9,6.4-14.4,14.4-14.4
		C176.5,1237,182.9,1243.4,182.9,1251.3"/>
</g>
<g>
	<path class="st1" d="M283.9,1330.6c2.7,0,4.9-2.1,5.1-4.8c0.3-4.4,0.4-8.5,0.4-12.2c0-19.3-3.1-30-7.3-36.4
		c-2.1-3.2-4.6-5.2-6.8-6.4c-2.1-1.1-4-1.3-5.2-1.4c-0.1,0-0.2,0-0.3,0H245c-0.1,0-0.2,0-0.3,0c-1.2,0-3,0.3-5.2,1.4
		c-3.4,1.7-7.1,5.4-9.7,12c-2.6,6.6-4.4,16.2-4.4,30.7c0,3.7,0.1,7.8,0.4,12.3c0.2,2.7,2.4,4.8,5.1,4.8c0.1,0,0.2,0,0.3,0
		c2.8-0.2,5-2.6,4.8-5.4c-0.3-4.3-0.4-8.1-0.4-11.6c0-15.5,2.2-24.2,4.5-28.7v80.8c0,4.4,3.5,7.9,7.9,7.9c4.4,0,7.9-3.5,7.9-7.9
		V1323h3v42.6c0,4.4,3.5,7.9,7.9,7.9c4.4,0,7.9-3.5,7.9-7.9l0-80.8c0.4,0.8,0.8,1.7,1.1,2.7c1.8,5,3.3,13.2,3.3,26
		c0,3.5-0.1,7.4-0.4,11.7c-0.2,2.8,2,5.2,4.8,5.4C283.7,1330.6,283.8,1330.6,283.9,1330.6L283.9,1330.6z"/>
	<path class="st1" d="M271.8,1251.3c0,7.9-6.4,14.4-14.4,14.4c-7.9,0-14.4-6.4-14.4-14.4c0-7.9,6.4-14.4,14.4-14.4
		C265.3,1237,271.8,1243.4,271.8,1251.3"/>
</g>
<g>
	<path class="st1" d="M372.8,1330.6c2.7,0,4.9-2.1,5.1-4.8c0.3-4.4,0.4-8.5,0.4-12.2c0-19.3-3.1-30-7.3-36.4
		c-2.1-3.2-4.6-5.2-6.8-6.4c-2.1-1.1-4-1.3-5.2-1.4c-0.1,0-0.2,0-0.3,0h-24.7c-0.1,0-0.2,0-0.3,0c-1.2,0-3,0.3-5.2,1.4
		c-3.4,1.7-7.1,5.4-9.7,12c-2.6,6.6-4.4,16.2-4.4,30.7c0,3.7,0.1,7.8,0.4,12.3c0.2,2.7,2.4,4.8,5.1,4.8c0.1,0,0.2,0,0.3,0
		c2.8-0.2,5-2.6,4.8-5.4c-0.3-4.3-0.4-8.1-0.4-11.6c0-15.5,2.2-24.2,4.5-28.7v80.8c0,4.4,3.5,7.9,7.9,7.9c4.4,0,7.9-3.5,7.9-7.9
		V1323h3v42.6c0,4.4,3.5,7.9,7.9,7.9c4.4,0,7.9-3.5,7.9-7.9l0-80.8c0.4,0.8,0.8,1.7,1.1,2.7c1.8,5,3.3,13.2,3.3,26
		c0,3.5-0.1,7.4-0.4,11.7c-0.2,2.8,2,5.2,4.8,5.4C372.6,1330.6,372.7,1330.6,372.8,1330.6L372.8,1330.6z"/>
	<path class="st1" d="M360.7,1251.3c0,7.9-6.4,14.4-14.4,14.4c-7.9,0-14.4-6.4-14.4-14.4c0-7.9,6.4-14.4,14.4-14.4
		C354.2,1237,360.7,1243.4,360.7,1251.3"/>
</g>
<g>
	<path class="st1" d="M461.6,1330.6c2.7,0,4.9-2.1,5.1-4.8c0.3-4.4,0.4-8.5,0.4-12.2c0-19.3-3.1-30-7.3-36.4
		c-2.1-3.2-4.6-5.2-6.8-6.4c-2.1-1.1-4-1.3-5.2-1.4c-0.1,0-0.2,0-0.3,0h-24.7c-0.1,0-0.2,0-0.3,0c-1.2,0-3,0.3-5.2,1.4
		c-3.4,1.7-7.1,5.4-9.7,12c-2.6,6.6-4.4,16.2-4.4,30.7c0,3.7,0.1,7.8,0.4,12.3c0.2,2.7,2.4,4.8,5.1,4.8c0.1,0,0.2,0,0.3,0
		c2.8-0.2,5-2.6,4.8-5.4c-0.3-4.3-0.4-8.1-0.4-11.6c0-15.5,2.2-24.2,4.5-28.7v80.8c0,4.4,3.5,7.9,7.9,7.9c4.4,0,7.9-3.5,7.9-7.9
		V1323h3v42.6c0,4.4,3.5,7.9,7.9,7.9c4.4,0,7.9-3.5,7.9-7.9l0-80.8c0.4,0.8,0.8,1.7,1.1,2.7c1.8,5,3.3,13.2,3.3,26
		c0,3.5-0.1,7.4-0.4,11.7c-0.2,2.8,2,5.2,4.8,5.4C461.4,1330.6,461.5,1330.6,461.6,1330.6L461.6,1330.6z"/>
	<path class="st1" d="M449.5,1251.3c0,7.9-6.4,14.4-14.4,14.4c-7.9,0-14.4-6.4-14.4-14.4c0-7.9,6.4-14.4,14.4-14.4
		C443.1,1237,449.5,1243.4,449.5,1251.3"/>
</g>
<g>
	<path class="st22" d="M550.5,1330.6c2.7,0,4.9-2.1,5.1-4.8c0.3-4.4,0.4-8.5,0.4-12.2c0-19.3-3.1-30-7.3-36.4
		c-2.1-3.2-4.6-5.2-6.8-6.4c-2.1-1.1-4-1.3-5.2-1.4c-0.1,0-0.2,0-0.3,0h-24.7c-0.1,0-0.2,0-0.3,0c-1.2,0-3,0.3-5.2,1.4
		c-3.4,1.7-7.1,5.4-9.7,12c-2.6,6.6-4.4,16.2-4.4,30.7c0,3.7,0.1,7.8,0.4,12.3c0.2,2.7,2.4,4.8,5.1,4.8c0.1,0,0.2,0,0.3,0
		c2.8-0.2,5-2.6,4.8-5.4c-0.3-4.3-0.4-8.1-0.4-11.6c0-15.5,2.2-24.2,4.5-28.7v80.8c0,4.4,3.5,7.9,7.9,7.9c4.4,0,7.9-3.5,7.9-7.9
		V1323h3v42.6c0,4.4,3.5,7.9,7.9,7.9c4.4,0,7.9-3.5,7.9-7.9l0-80.8c0.4,0.8,0.8,1.7,1.1,2.7c1.8,5,3.3,13.2,3.3,26
		c0,3.5-0.1,7.4-0.4,11.7c-0.2,2.8,2,5.2,4.8,5.4C550.3,1330.6,550.4,1330.6,550.5,1330.6L550.5,1330.6z"/>
	<path class="st22" d="M538.4,1251.3c0,7.9-6.4,14.4-14.4,14.4c-7.9,0-14.4-6.4-14.4-14.4c0-7.9,6.4-14.4,14.4-14.4
		C532,1237,538.4,1243.4,538.4,1251.3"/>
</g>
<g>
	<path class="st1" d="M195,1490.3c2.7,0,4.9-2.1,5.1-4.8c0.3-4.4,0.4-8.5,0.4-12.2c0-19.3-3.1-30-7.3-36.4c-2.1-3.2-4.6-5.2-6.8-6.4
		c-2.1-1.1-4-1.3-5.2-1.4c-0.1,0-0.2,0-0.3,0h-24.7c-0.1,0-0.2,0-0.3,0c-1.2,0-3,0.3-5.2,1.4c-3.4,1.7-7.1,5.4-9.7,12
		c-2.6,6.6-4.4,16.2-4.4,30.7c0,3.7,0.1,7.8,0.4,12.3c0.2,2.7,2.4,4.8,5.1,4.8c0.1,0,0.2,0,0.3,0c2.8-0.2,5-2.6,4.8-5.4
		c-0.3-4.3-0.4-8.1-0.4-11.6c0-15.5,2.2-24.2,4.5-28.7v80.8c0,4.4,3.5,7.9,7.9,7.9c4.4,0,7.9-3.5,7.9-7.9v-42.6h3v42.6
		c0,4.4,3.5,7.9,7.9,7.9c4.4,0,7.9-3.5,7.9-7.9l0-80.8c0.4,0.8,0.8,1.7,1.1,2.7c1.8,5,3.3,13.2,3.3,26c0,3.5-0.1,7.4-0.4,11.7
		c-0.2,2.8,2,5.2,4.8,5.4C194.8,1490.3,194.9,1490.3,195,1490.3L195,1490.3z"/>
	<path class="st1" d="M182.9,1411.1c0,7.9-6.4,14.4-14.4,14.4c-7.9,0-14.4-6.4-14.4-14.4c0-7.9,6.4-14.4,14.4-14.4
		C176.5,1396.7,182.9,1403.1,182.9,1411.1"/>
</g>
<g>
	<path class="st1" d="M283.9,1490.3c2.7,0,4.9-2.1,5.1-4.8c0.3-4.4,0.4-8.5,0.4-12.2c0-19.3-3.1-30-7.3-36.4
		c-2.1-3.2-4.6-5.2-6.8-6.4c-2.1-1.1-4-1.3-5.2-1.4c-0.1,0-0.2,0-0.3,0H245c-0.1,0-0.2,0-0.3,0c-1.2,0-3,0.3-5.2,1.4
		c-3.4,1.7-7.1,5.4-9.7,12c-2.6,6.6-4.4,16.2-4.4,30.7c0,3.7,0.1,7.8,0.4,12.3c0.2,2.7,2.4,4.8,5.1,4.8c0.1,0,0.2,0,0.3,0
		c2.8-0.2,5-2.6,4.8-5.4c-0.3-4.3-0.4-8.1-0.4-11.6c0-15.5,2.2-24.2,4.5-28.7v80.8c0,4.4,3.5,7.9,7.9,7.9c4.4,0,7.9-3.5,7.9-7.9
		v-42.6h3v42.6c0,4.4,3.5,7.9,7.9,7.9c4.4,0,7.9-3.5,7.9-7.9l0-80.8c0.4,0.8,0.8,1.7,1.1,2.7c1.8,5,3.3,13.2,3.3,26
		c0,3.5-0.1,7.4-0.4,11.7c-0.2,2.8,2,5.2,4.8,5.4C283.7,1490.3,283.8,1490.3,283.9,1490.3L283.9,1490.3z"/>
	<path class="st1" d="M271.8,1411.1c0,7.9-6.4,14.4-14.4,14.4c-7.9,0-14.4-6.4-14.4-14.4c0-7.9,6.4-14.4,14.4-14.4
		C265.3,1396.7,271.8,1403.1,271.8,1411.1"/>
</g>
<g>
	<path class="st1" d="M372.8,1490.3c2.7,0,4.9-2.1,5.1-4.8c0.3-4.4,0.4-8.5,0.4-12.2c0-19.3-3.1-30-7.3-36.4
		c-2.1-3.2-4.6-5.2-6.8-6.4c-2.1-1.1-4-1.3-5.2-1.4c-0.1,0-0.2,0-0.3,0h-24.7c-0.1,0-0.2,0-0.3,0c-1.2,0-3,0.3-5.2,1.4
		c-3.4,1.7-7.1,5.4-9.7,12c-2.6,6.6-4.4,16.2-4.4,30.7c0,3.7,0.1,7.8,0.4,12.3c0.2,2.7,2.4,4.8,5.1,4.8c0.1,0,0.2,0,0.3,0
		c2.8-0.2,5-2.6,4.8-5.4c-0.3-4.3-0.4-8.1-0.4-11.6c0-15.5,2.2-24.2,4.5-28.7v80.8c0,4.4,3.5,7.9,7.9,7.9c4.4,0,7.9-3.5,7.9-7.9
		v-42.6h3v42.6c0,4.4,3.5,7.9,7.9,7.9c4.4,0,7.9-3.5,7.9-7.9l0-80.8c0.4,0.8,0.8,1.7,1.1,2.7c1.8,5,3.3,13.2,3.3,26
		c0,3.5-0.1,7.4-0.4,11.7c-0.2,2.8,2,5.2,4.8,5.4C372.6,1490.3,372.7,1490.3,372.8,1490.3L372.8,1490.3z"/>
	<path class="st1" d="M360.7,1411.1c0,7.9-6.4,14.4-14.4,14.4c-7.9,0-14.4-6.4-14.4-14.4c0-7.9,6.4-14.4,14.4-14.4
		C354.2,1396.7,360.7,1403.1,360.7,1411.1"/>
</g>
<g>
	<path class="st1" d="M461.6,1490.3c2.7,0,4.9-2.1,5.1-4.8c0.3-4.4,0.4-8.5,0.4-12.2c0-19.3-3.1-30-7.3-36.4
		c-2.1-3.2-4.6-5.2-6.8-6.4c-2.1-1.1-4-1.3-5.2-1.4c-0.1,0-0.2,0-0.3,0h-24.7c-0.1,0-0.2,0-0.3,0c-1.2,0-3,0.3-5.2,1.4
		c-3.4,1.7-7.1,5.4-9.7,12c-2.6,6.6-4.4,16.2-4.4,30.7c0,3.7,0.1,7.8,0.4,12.3c0.2,2.7,2.4,4.8,5.1,4.8c0.1,0,0.2,0,0.3,0
		c2.8-0.2,5-2.6,4.8-5.4c-0.3-4.3-0.4-8.1-0.4-11.6c0-15.5,2.2-24.2,4.5-28.7v80.8c0,4.4,3.5,7.9,7.9,7.9c4.4,0,7.9-3.5,7.9-7.9
		v-42.6h3v42.6c0,4.4,3.5,7.9,7.9,7.9c4.4,0,7.9-3.5,7.9-7.9l0-80.8c0.4,0.8,0.8,1.7,1.1,2.7c1.8,5,3.3,13.2,3.3,26
		c0,3.5-0.1,7.4-0.4,11.7c-0.2,2.8,2,5.2,4.8,5.4C461.4,1490.3,461.5,1490.3,461.6,1490.3L461.6,1490.3z"/>
	<path class="st1" d="M449.5,1411.1c0,7.9-6.4,14.4-14.4,14.4c-7.9,0-14.4-6.4-14.4-14.4c0-7.9,6.4-14.4,14.4-14.4
		C443.1,1396.7,449.5,1403.1,449.5,1411.1"/>
</g>
<g>
	<path class="st25" d="M550.5,1490.3c2.7,0,4.9-2.1,5.1-4.8c0.3-4.4,0.4-8.5,0.4-12.2c0-19.3-3.1-30-7.3-36.4
		c-2.1-3.2-4.6-5.2-6.8-6.4c-2.1-1.1-4-1.3-5.2-1.4c-0.1,0-0.2,0-0.3,0h-24.7c-0.1,0-0.2,0-0.3,0c-1.2,0-3,0.3-5.2,1.4
		c-3.4,1.7-7.1,5.4-9.7,12c-2.6,6.6-4.4,16.2-4.4,30.7c0,3.7,0.1,7.8,0.4,12.3c0.2,2.7,2.4,4.8,5.1,4.8c0.1,0,0.2,0,0.3,0
		c2.8-0.2,5-2.6,4.8-5.4c-0.3-4.3-0.4-8.1-0.4-11.6c0-15.5,2.2-24.2,4.5-28.7v80.8c0,4.4,3.5,7.9,7.9,7.9c4.4,0,7.9-3.5,7.9-7.9
		v-42.6h3v42.6c0,4.4,3.5,7.9,7.9,7.9c4.4,0,7.9-3.5,7.9-7.9l0-80.8c0.4,0.8,0.8,1.7,1.1,2.7c1.8,5,3.3,13.2,3.3,26
		c0,3.5-0.1,7.4-0.4,11.7c-0.2,2.8,2,5.2,4.8,5.4C550.3,1490.3,550.4,1490.3,550.5,1490.3L550.5,1490.3z"/>
	<path class="st25" d="M538.4,1411.1c0,7.9-6.4,14.4-14.4,14.4c-7.9,0-14.4-6.4-14.4-14.4c0-7.9,6.4-14.4,14.4-14.4
		C532,1396.7,538.4,1403.1,538.4,1411.1"/>
</g>
<g>
	<path class="st1" d="M195,1650.1c2.7,0,4.9-2.1,5.1-4.8c0.3-4.4,0.4-8.5,0.4-12.2c0-19.3-3.1-30-7.3-36.4c-2.1-3.2-4.6-5.2-6.8-6.4
		c-2.1-1.1-4-1.3-5.2-1.4c-0.1,0-0.2,0-0.3,0h-24.7c-0.1,0-0.2,0-0.3,0c-1.2,0-3,0.3-5.2,1.4c-3.4,1.7-7.1,5.4-9.7,12
		c-2.6,6.6-4.4,16.2-4.4,30.7c0,3.7,0.1,7.8,0.4,12.3c0.2,2.7,2.4,4.8,5.1,4.8c0.1,0,0.2,0,0.3,0c2.8-0.2,5-2.6,4.8-5.4
		c-0.3-4.3-0.4-8.1-0.4-11.6c0-15.5,2.2-24.2,4.5-28.7v80.8c0,4.4,3.5,7.9,7.9,7.9c4.4,0,7.9-3.5,7.9-7.9v-42.6h3v42.6
		c0,4.4,3.5,7.9,7.9,7.9c4.4,0,7.9-3.5,7.9-7.9l0-80.8c0.4,0.8,0.8,1.7,1.1,2.7c1.8,5,3.3,13.2,3.3,26c0,3.5-0.1,7.4-0.4,11.7
		c-0.2,2.8,2,5.2,4.8,5.4C194.8,1650.1,194.9,1650.1,195,1650.1L195,1650.1z"/>
	<path class="st1" d="M182.9,1570.8c0,7.9-6.4,14.4-14.4,14.4c-7.9,0-14.4-6.4-14.4-14.4c0-7.9,6.4-14.4,14.4-14.4
		C176.5,1556.4,182.9,1562.9,182.9,1570.8"/>
</g>
<g>
	<path class="st1" d="M283.9,1650.1c2.7,0,4.9-2.1,5.1-4.8c0.3-4.4,0.4-8.5,0.4-12.2c0-19.3-3.1-30-7.3-36.4
		c-2.1-3.2-4.6-5.2-6.8-6.4c-2.1-1.1-4-1.3-5.2-1.4c-0.1,0-0.2,0-0.3,0H245c-0.1,0-0.2,0-0.3,0c-1.2,0-3,0.3-5.2,1.4
		c-3.4,1.7-7.1,5.4-9.7,12c-2.6,6.6-4.4,16.2-4.4,30.7c0,3.7,0.1,7.8,0.4,12.3c0.2,2.7,2.4,4.8,5.1,4.8c0.1,0,0.2,0,0.3,0
		c2.8-0.2,5-2.6,4.8-5.4c-0.3-4.3-0.4-8.1-0.4-11.6c0-15.5,2.2-24.2,4.5-28.7v80.8c0,4.4,3.5,7.9,7.9,7.9c4.4,0,7.9-3.5,7.9-7.9
		v-42.6h3v42.6c0,4.4,3.5,7.9,7.9,7.9c4.4,0,7.9-3.5,7.9-7.9l0-80.8c0.4,0.8,0.8,1.7,1.1,2.7c1.8,5,3.3,13.2,3.3,26
		c0,3.5-0.1,7.4-0.4,11.7c-0.2,2.8,2,5.2,4.8,5.4C283.7,1650.1,283.8,1650.1,283.9,1650.1L283.9,1650.1z"/>
	<path class="st1" d="M271.8,1570.8c0,7.9-6.4,14.4-14.4,14.4c-7.9,0-14.4-6.4-14.4-14.4c0-7.9,6.4-14.4,14.4-14.4
		C265.3,1556.4,271.8,1562.9,271.8,1570.8"/>
</g>
<g>
	<path class="st1" d="M172.3,2053c1.3,0,2.5-1,2.6-2.4c0.1-2.2,0.2-4.3,0.2-6.1c0-9.6-1.6-15-3.7-18.2c-1.1-1.6-2.3-2.6-3.4-3.2
		c-1.1-0.5-2-0.7-2.6-0.7c0,0-0.1,0-0.1,0h-12.4c0,0-0.1,0-0.1,0c-0.6,0-1.5,0.1-2.6,0.7c-1.7,0.9-3.6,2.7-4.9,6
		c-1.3,3.3-2.2,8.1-2.2,15.4c0,1.9,0.1,3.9,0.2,6.1c0.1,1.4,1.2,2.4,2.6,2.4c0.1,0,0.1,0,0.2,0c1.4-0.1,2.5-1.3,2.4-2.7
		c-0.1-2.1-0.2-4.1-0.2-5.8c0-7.7,1.1-12.1,2.2-14.4v40.4c0,2.2,1.8,4,4,4c2.2,0,4-1.8,4-4v-21.3h1.5v21.3c0,2.2,1.8,4,4,4
		c2.2,0,4-1.8,4-4l0-40.4c0.2,0.4,0.4,0.8,0.6,1.4c0.9,2.5,1.7,6.6,1.7,13c0,1.8-0.1,3.7-0.2,5.8c-0.1,1.4,1,2.6,2.4,2.7
		C172.2,2053,172.3,2053,172.3,2053L172.3,2053z"/>
	<path class="st1" d="M166.3,2013.4c0,4-3.2,7.2-7.2,7.2c-4,0-7.2-3.2-7.2-7.2c0-4,3.2-7.2,7.2-7.2
		C163.1,2006.2,166.3,2009.4,166.3,2013.4"/>
</g>
<g>
	<path class="st1" d="M216.8,2053c1.3,0,2.5-1,2.6-2.4c0.1-2.2,0.2-4.3,0.2-6.1c0-9.6-1.6-15-3.7-18.2c-1.1-1.6-2.3-2.6-3.4-3.2
		c-1.1-0.5-2-0.7-2.6-0.7c0,0-0.1,0-0.1,0h-12.4c0,0-0.1,0-0.1,0c-0.6,0-1.5,0.1-2.6,0.7c-1.7,0.9-3.6,2.7-4.9,6
		c-1.3,3.3-2.2,8.1-2.2,15.4c0,1.9,0.1,3.9,0.2,6.1c0.1,1.4,1.2,2.4,2.6,2.4c0.1,0,0.1,0,0.2,0c1.4-0.1,2.5-1.3,2.4-2.7
		c-0.1-2.1-0.2-4.1-0.2-5.8c0-7.7,1.1-12.1,2.2-14.4v40.4c0,2.2,1.8,4,4,4c2.2,0,4-1.8,4-4v-21.3h1.5v21.3c0,2.2,1.8,4,4,4
		c2.2,0,4-1.8,4-4l0-40.4c0.2,0.4,0.4,0.8,0.6,1.4c0.9,2.5,1.7,6.6,1.7,13c0,1.8-0.1,3.7-0.2,5.8c-0.1,1.4,1,2.6,2.4,2.7
		C216.7,2053,216.7,2053,216.8,2053L216.8,2053z"/>
	<path class="st1" d="M210.7,2013.4c0,4-3.2,7.2-7.2,7.2c-4,0-7.2-3.2-7.2-7.2c0-4,3.2-7.2,7.2-7.2
		C207.5,2006.2,210.7,2009.4,210.7,2013.4"/>
</g>
<g>
	<path class="st1" d="M337.3,2053c1.3,0,2.5-1,2.6-2.4c0.1-2.2,0.2-4.3,0.2-6.1c0-9.6-1.6-15-3.7-18.2c-1.1-1.6-2.3-2.6-3.4-3.2
		c-1.1-0.5-2-0.7-2.6-0.7c0,0-0.1,0-0.1,0h-12.4c0,0-0.1,0-0.1,0c-0.6,0-1.5,0.1-2.6,0.7c-1.7,0.9-3.6,2.7-4.9,6
		c-1.3,3.3-2.2,8.1-2.2,15.4c0,1.9,0.1,3.9,0.2,6.1c0.1,1.4,1.2,2.4,2.6,2.4c0.1,0,0.1,0,0.2,0c1.4-0.1,2.5-1.3,2.4-2.7
		c-0.1-2.1-0.2-4.1-0.2-5.8c0-7.7,1.1-12.1,2.2-14.4v40.4c0,2.2,1.8,4,4,4c2.2,0,4-1.8,4-4v-21.3h1.5v21.3c0,2.2,1.8,4,4,4
		c2.2,0,4-1.8,4-4l0-40.4c0.2,0.4,0.4,0.8,0.6,1.4c0.9,2.5,1.7,6.6,1.7,13c0,1.8-0.1,3.7-0.2,5.8c-0.1,1.4,1,2.6,2.4,2.7
		C337.2,2053,337.2,2053,337.3,2053L337.3,2053z"/>
	<path class="st1" d="M331.2,2013.4c0,4-3.2,7.2-7.2,7.2c-4,0-7.2-3.2-7.2-7.2c0-4,3.2-7.2,7.2-7.2
		C328,2006.2,331.2,2009.4,331.2,2013.4"/>
</g>
<g>
	<path class="st1" d="M381.7,2053c1.3,0,2.5-1,2.6-2.4c0.1-2.2,0.2-4.3,0.2-6.1c0-9.6-1.6-15-3.7-18.2c-1.1-1.6-2.3-2.6-3.4-3.2
		c-1.1-0.5-2-0.7-2.6-0.7c0,0-0.1,0-0.1,0h-12.4c0,0-0.1,0-0.1,0c-0.6,0-1.5,0.1-2.6,0.7c-1.7,0.9-3.6,2.7-4.9,6
		c-1.3,3.3-2.2,8.1-2.2,15.4c0,1.9,0.1,3.9,0.2,6.1c0.1,1.4,1.2,2.4,2.6,2.4c0.1,0,0.1,0,0.2,0c1.4-0.1,2.5-1.3,2.4-2.7
		c-0.1-2.1-0.2-4.1-0.2-5.8c0-7.7,1.1-12.1,2.2-14.4v40.4c0,2.2,1.8,4,4,4c2.2,0,4-1.8,4-4v-21.3h1.5v21.3c0,2.2,1.8,4,4,4
		c2.2,0,4-1.8,4-4l0-40.4c0.2,0.4,0.4,0.8,0.6,1.4c0.9,2.5,1.7,6.6,1.7,13c0,1.8-0.1,3.7-0.2,5.8c-0.1,1.4,1,2.6,2.4,2.7
		C381.6,2053,381.7,2053,381.7,2053L381.7,2053z"/>
	<path class="st1" d="M375.7,2013.4c0,4-3.2,7.2-7.2,7.2c-4,0-7.2-3.2-7.2-7.2c0-4,3.2-7.2,7.2-7.2
		C372.5,2006.2,375.7,2009.4,375.7,2013.4"/>
</g>
<g>
	<path class="st29" d="M426.1,2053c1.3,0,2.5-1,2.6-2.4c0.1-2.2,0.2-4.3,0.2-6.1c0-9.6-1.6-15-3.7-18.2c-1.1-1.6-2.3-2.6-3.4-3.2
		c-1.1-0.5-2-0.7-2.6-0.7c0,0-0.1,0-0.1,0h-12.4c0,0-0.1,0-0.1,0c-0.6,0-1.5,0.1-2.6,0.7c-1.7,0.9-3.6,2.7-4.9,6
		c-1.3,3.3-2.2,8.1-2.2,15.4c0,1.9,0.1,3.9,0.2,6.1c0.1,1.4,1.2,2.4,2.6,2.4c0.1,0,0.1,0,0.2,0c1.4-0.1,2.5-1.3,2.4-2.7
		c-0.1-2.1-0.2-4.1-0.2-5.8c0-7.7,1.1-12.1,2.2-14.4v40.4c0,2.2,1.8,4,4,4c2.2,0,4-1.8,4-4v-21.3h1.5v21.3c0,2.2,1.8,4,4,4
		c2.2,0,4-1.8,4-4l0-40.4c0.2,0.4,0.4,0.8,0.6,1.4c0.9,2.5,1.7,6.6,1.7,13c0,1.8-0.1,3.7-0.2,5.8c-0.1,1.4,1,2.6,2.4,2.7
		C426,2053,426,2053,426.1,2053L426.1,2053z"/>
	<path class="st29" d="M420,2013.4c0,4-3.2,7.2-7.2,7.2c-4,0-7.2-3.2-7.2-7.2c0-4,3.2-7.2,7.2-7.2
		C416.8,2006.2,420,2009.4,420,2013.4"/>
</g>
<g>
	<path class="st1" d="M527.2,2053c1.3,0,2.5-1,2.6-2.4c0.1-2.2,0.2-4.3,0.2-6.1c0-9.6-1.6-15-3.7-18.2c-1.1-1.6-2.3-2.6-3.4-3.2
		c-1.1-0.5-2-0.7-2.6-0.7c0,0-0.1,0-0.1,0h-12.4c0,0-0.1,0-0.1,0c-0.6,0-1.5,0.1-2.6,0.7c-1.7,0.9-3.6,2.7-4.9,6
		c-1.3,3.3-2.2,8.1-2.2,15.4c0,1.9,0.1,3.9,0.2,6.1c0.1,1.4,1.2,2.4,2.6,2.4c0.1,0,0.1,0,0.2,0c1.4-0.1,2.5-1.3,2.4-2.7
		c-0.1-2.1-0.2-4.1-0.2-5.8c0-7.7,1.1-12.1,2.2-14.4v40.4c0,2.2,1.8,4,4,4c2.2,0,4-1.8,4-4v-21.3h1.5v21.3c0,2.2,1.8,4,4,4
		c2.2,0,4-1.8,4-4l0-40.4c0.2,0.4,0.4,0.8,0.6,1.4c0.9,2.5,1.7,6.6,1.7,13c0,1.8-0.1,3.7-0.2,5.8c-0.1,1.4,1,2.6,2.4,2.7
		C527.1,2053,527.2,2053,527.2,2053L527.2,2053z"/>
	<path class="st1" d="M521.2,2013.4c0,4-3.2,7.2-7.2,7.2c-4,0-7.2-3.2-7.2-7.2c0-4,3.2-7.2,7.2-7.2
		C518,2006.2,521.2,2009.4,521.2,2013.4"/>
</g>
<g>
	<path class="st1" d="M571.7,2053c1.3,0,2.5-1,2.6-2.4c0.1-2.2,0.2-4.3,0.2-6.1c0-9.6-1.6-15-3.7-18.2c-1.1-1.6-2.3-2.6-3.4-3.2
		c-1.1-0.5-2-0.7-2.6-0.7c0,0-0.1,0-0.1,0h-12.4c0,0-0.1,0-0.1,0c-0.6,0-1.5,0.1-2.6,0.7c-1.7,0.9-3.6,2.7-4.9,6
		c-1.3,3.3-2.2,8.1-2.2,15.4c0,1.9,0.1,3.9,0.2,6.1c0.1,1.4,1.2,2.4,2.6,2.4c0.1,0,0.1,0,0.2,0c1.4-0.1,2.5-1.3,2.4-2.7
		c-0.1-2.1-0.2-4.1-0.2-5.8c0-7.7,1.1-12.1,2.2-14.4v40.4c0,2.2,1.8,4,4,4c2.2,0,4-1.8,4-4v-21.3h1.5v21.3c0,2.2,1.8,4,4,4
		c2.2,0,4-1.8,4-4l0-40.4c0.2,0.4,0.4,0.8,0.6,1.4c0.9,2.5,1.7,6.6,1.7,13c0,1.8-0.1,3.7-0.2,5.8c-0.1,1.4,1,2.6,2.4,2.7
		C571.6,2053,571.6,2053,571.7,2053L571.7,2053z"/>
	<path class="st1" d="M565.6,2013.4c0,4-3.2,7.2-7.2,7.2c-4,0-7.2-3.2-7.2-7.2c0-4,3.2-7.2,7.2-7.2
		C562.4,2006.2,565.6,2009.4,565.6,2013.4"/>
</g>
<g>
	<path class="st1" d="M714.5,2065.5c1.3,0,2.5-1,2.6-2.4c0.1-2.2,0.2-4.3,0.2-6.1c0-9.6-1.6-15-3.7-18.2c-1.1-1.6-2.3-2.6-3.4-3.2
		c-1.1-0.5-2-0.7-2.6-0.7c0,0-0.1,0-0.1,0h-12.4c0,0-0.1,0-0.1,0c-0.6,0-1.5,0.1-2.6,0.7c-1.7,0.9-3.6,2.7-4.9,6
		c-1.3,3.3-2.2,8.1-2.2,15.4c0,1.9,0.1,3.9,0.2,6.1c0.1,1.4,1.2,2.4,2.6,2.4c0.1,0,0.1,0,0.2,0c1.4-0.1,2.5-1.3,2.4-2.7
		c-0.1-2.1-0.2-4.1-0.2-5.8c0-7.7,1.1-12.1,2.2-14.4v40.4c0,2.2,1.8,4,4,4c2.2,0,4-1.8,4-4v-21.3h1.5v21.3c0,2.2,1.8,4,4,4
		c2.2,0,4-1.8,4-4l0-40.4c0.2,0.4,0.4,0.8,0.6,1.4c0.9,2.5,1.7,6.6,1.7,13c0,1.8-0.1,3.7-0.2,5.8c-0.1,1.4,1,2.6,2.4,2.7
		C714.4,2065.5,714.4,2065.5,714.5,2065.5L714.5,2065.5z"/>
	<path class="st1" d="M708.4,2025.9c0,4-3.2,7.2-7.2,7.2c-4,0-7.2-3.2-7.2-7.2c0-4,3.2-7.2,7.2-7.2
		C705.2,2018.7,708.4,2021.9,708.4,2025.9"/>
</g>
<g>
	<path class="st1" d="M758.9,2065.5c1.3,0,2.5-1,2.6-2.4c0.1-2.2,0.2-4.3,0.2-6.1c0-9.6-1.6-15-3.7-18.2c-1.1-1.6-2.3-2.6-3.4-3.2
		c-1.1-0.5-2-0.7-2.6-0.7c0,0-0.1,0-0.1,0h-12.4c0,0-0.1,0-0.1,0c-0.6,0-1.5,0.1-2.6,0.7c-1.7,0.9-3.6,2.7-4.9,6
		c-1.3,3.3-2.2,8.1-2.2,15.4c0,1.9,0.1,3.9,0.2,6.1c0.1,1.4,1.2,2.4,2.6,2.4c0.1,0,0.1,0,0.2,0c1.4-0.1,2.5-1.3,2.4-2.7
		c-0.1-2.1-0.2-4.1-0.2-5.8c0-7.7,1.1-12.1,2.2-14.4v40.4c0,2.2,1.8,4,4,4c2.2,0,4-1.8,4-4v-21.3h1.5v21.3c0,2.2,1.8,4,4,4
		c2.2,0,4-1.8,4-4l0-40.4c0.2,0.4,0.4,0.8,0.6,1.4c0.9,2.5,1.7,6.6,1.7,13c0,1.8-0.1,3.7-0.2,5.8c-0.1,1.4,1,2.6,2.4,2.7
		C758.8,2065.5,758.9,2065.5,758.9,2065.5L758.9,2065.5z"/>
	<path class="st1" d="M752.9,2025.9c0,4-3.2,7.2-7.2,7.2c-4,0-7.2-3.2-7.2-7.2c0-4,3.2-7.2,7.2-7.2
		C749.6,2018.7,752.9,2021.9,752.9,2025.9"/>
</g>
<g>
	<path class="st1" d="M804.8,2065.5c1.3,0,2.5-1,2.6-2.4c0.1-2.2,0.2-4.3,0.2-6.1c0-9.6-1.6-15-3.7-18.2c-1.1-1.6-2.3-2.6-3.4-3.2
		c-1.1-0.5-2-0.7-2.6-0.7c0,0-0.1,0-0.1,0h-12.4c0,0-0.1,0-0.1,0c-0.6,0-1.5,0.1-2.6,0.7c-1.7,0.9-3.6,2.7-4.9,6
		c-1.3,3.3-2.2,8.1-2.2,15.4c0,1.9,0.1,3.9,0.2,6.1c0.1,1.4,1.2,2.4,2.6,2.4c0.1,0,0.1,0,0.2,0c1.4-0.1,2.5-1.3,2.4-2.7
		c-0.1-2.1-0.2-4.1-0.2-5.8c0-7.7,1.1-12.1,2.2-14.4v40.4c0,2.2,1.8,4,4,4c2.2,0,4-1.8,4-4v-21.3h1.5v21.3c0,2.2,1.8,4,4,4
		c2.2,0,4-1.8,4-4l0-40.4c0.2,0.4,0.4,0.8,0.6,1.4c0.9,2.5,1.7,6.6,1.7,13c0,1.8-0.1,3.7-0.2,5.8c-0.1,1.4,1,2.6,2.4,2.7
		C804.7,2065.5,804.8,2065.5,804.8,2065.5L804.8,2065.5z"/>
	<path class="st1" d="M798.8,2025.9c0,4-3.2,7.2-7.2,7.2c-4,0-7.2-3.2-7.2-7.2c0-4,3.2-7.2,7.2-7.2
		C795.6,2018.7,798.8,2021.9,798.8,2025.9"/>
</g>
<g>
	<path class="st1" d="M849.3,2065.5c1.3,0,2.5-1,2.6-2.4c0.1-2.2,0.2-4.3,0.2-6.1c0-9.6-1.6-15-3.7-18.2c-1.1-1.6-2.3-2.6-3.4-3.2
		c-1.1-0.5-2-0.7-2.6-0.7c0,0-0.1,0-0.1,0h-12.4c0,0-0.1,0-0.1,0c-0.6,0-1.5,0.1-2.6,0.7c-1.7,0.9-3.6,2.7-4.9,6
		c-1.3,3.3-2.2,8.1-2.2,15.4c0,1.9,0.1,3.9,0.2,6.1c0.1,1.4,1.2,2.4,2.6,2.4c0.1,0,0.1,0,0.2,0c1.4-0.1,2.5-1.3,2.4-2.7
		c-0.1-2.1-0.2-4.1-0.2-5.8c0-7.7,1.1-12.1,2.2-14.4v40.4c0,2.2,1.8,4,4,4c2.2,0,4-1.8,4-4v-21.3h1.5v21.3c0,2.2,1.8,4,4,4
		c2.2,0,4-1.8,4-4l0-40.4c0.2,0.4,0.4,0.8,0.6,1.4c0.9,2.5,1.7,6.6,1.7,13c0,1.8-0.1,3.7-0.2,5.8c-0.1,1.4,1,2.6,2.4,2.7
		C849.2,2065.5,849.2,2065.5,849.3,2065.5L849.3,2065.5z"/>
	<path class="st1" d="M843.2,2025.9c0,4-3.2,7.2-7.2,7.2c-4,0-7.2-3.2-7.2-7.2c0-4,3.2-7.2,7.2-7.2
		C840,2018.7,843.2,2021.9,843.2,2025.9"/>
</g>
<g class="st30">
	<path class="st1" d="M730.2,2057.4c1.3,0,2.5-1,2.6-2.4c0.1-2.2,0.2-4.3,0.2-6.1c0-9.6-1.6-15-3.7-18.2c-1.1-1.6-2.3-2.6-3.4-3.2
		c-1.1-0.5-2-0.7-2.6-0.7c0,0-0.1,0-0.1,0h-12.4c0,0-0.1,0-0.1,0c-0.6,0-1.5,0.1-2.6,0.7c-1.7,0.9-3.6,2.7-4.9,6
		c-1.3,3.3-2.2,8.1-2.2,15.4c0,1.9,0.1,3.9,0.2,6.1c0.1,1.4,1.2,2.4,2.6,2.4c0.1,0,0.1,0,0.2,0c1.4-0.1,2.5-1.3,2.4-2.7
		c-0.1-2.1-0.2-4.1-0.2-5.8c0-7.7,1.1-12.1,2.2-14.4v40.4c0,2.2,1.8,4,4,4c2.2,0,4-1.8,4-4v-21.3h1.5v21.3c0,2.2,1.8,4,4,4
		c2.2,0,4-1.8,4-4l0-40.4c0.2,0.4,0.4,0.8,0.6,1.4c0.9,2.5,1.7,6.6,1.7,13c0,1.8-0.1,3.7-0.2,5.8c-0.1,1.4,1,2.6,2.4,2.7
		C730.1,2057.4,730.2,2057.4,730.2,2057.4L730.2,2057.4z"/>
	<path class="st1" d="M724.2,2017.8c0,4-3.2,7.2-7.2,7.2c-4,0-7.2-3.2-7.2-7.2c0-4,3.2-7.2,7.2-7.2
		C721,2010.6,724.2,2013.8,724.2,2017.8"/>
</g>
<g class="st30">
	<path class="st1" d="M774.7,2057.4c1.3,0,2.5-1,2.6-2.4c0.1-2.2,0.2-4.3,0.2-6.1c0-9.6-1.6-15-3.7-18.2c-1.1-1.6-2.3-2.6-3.4-3.2
		c-1.1-0.5-2-0.7-2.6-0.7c0,0-0.1,0-0.1,0h-12.4c0,0-0.1,0-0.1,0c-0.6,0-1.5,0.1-2.6,0.7c-1.7,0.9-3.6,2.7-4.9,6
		c-1.3,3.3-2.2,8.1-2.2,15.4c0,1.9,0.1,3.9,0.2,6.1c0.1,1.4,1.2,2.4,2.6,2.4c0.1,0,0.1,0,0.2,0c1.4-0.1,2.5-1.3,2.4-2.7
		c-0.1-2.1-0.2-4.1-0.2-5.8c0-7.7,1.1-12.1,2.2-14.4v40.4c0,2.2,1.8,4,4,4c2.2,0,4-1.8,4-4v-21.3h1.5v21.3c0,2.2,1.8,4,4,4
		c2.2,0,4-1.8,4-4l0-40.4c0.2,0.4,0.4,0.8,0.6,1.4c0.9,2.5,1.7,6.6,1.7,13c0,1.8-0.1,3.7-0.2,5.8c-0.1,1.4,1,2.6,2.4,2.7
		C774.6,2057.4,774.6,2057.4,774.7,2057.4L774.7,2057.4z"/>
	<path class="st1" d="M768.6,2017.8c0,4-3.2,7.2-7.2,7.2c-4,0-7.2-3.2-7.2-7.2c0-4,3.2-7.2,7.2-7.2
		C765.4,2010.6,768.6,2013.8,768.6,2017.8"/>
</g>
<g class="st30">
	<path class="st1" d="M820.6,2057.4c1.3,0,2.5-1,2.6-2.4c0.1-2.2,0.2-4.3,0.2-6.1c0-9.6-1.6-15-3.7-18.2c-1.1-1.6-2.3-2.6-3.4-3.2
		c-1.1-0.5-2-0.7-2.6-0.7c0,0-0.1,0-0.1,0h-12.4c0,0-0.1,0-0.1,0c-0.6,0-1.5,0.1-2.6,0.7c-1.7,0.9-3.6,2.7-4.9,6
		c-1.3,3.3-2.2,8.1-2.2,15.4c0,1.9,0.1,3.9,0.2,6.1c0.1,1.4,1.2,2.4,2.6,2.4c0.1,0,0.1,0,0.2,0c1.4-0.1,2.5-1.3,2.4-2.7
		c-0.1-2.1-0.2-4.1-0.2-5.8c0-7.7,1.1-12.1,2.2-14.4v40.4c0,2.2,1.8,4,4,4c2.2,0,4-1.8,4-4v-21.3h1.5v21.3c0,2.2,1.8,4,4,4
		c2.2,0,4-1.8,4-4l0-40.4c0.2,0.4,0.4,0.8,0.6,1.4c0.9,2.5,1.7,6.6,1.7,13c0,1.8-0.1,3.7-0.2,5.8c-0.1,1.4,1,2.6,2.4,2.7
		C820.5,2057.4,820.6,2057.4,820.6,2057.4L820.6,2057.4z"/>
	<path class="st1" d="M814.5,2017.8c0,4-3.2,7.2-7.2,7.2c-4,0-7.2-3.2-7.2-7.2c0-4,3.2-7.2,7.2-7.2
		C811.3,2010.6,814.5,2013.8,814.5,2017.8"/>
</g>
<g class="st30">
	<path class="st1" d="M865,2057.4c1.3,0,2.5-1,2.6-2.4c0.1-2.2,0.2-4.3,0.2-6.1c0-9.6-1.6-15-3.7-18.2c-1.1-1.6-2.3-2.6-3.4-3.2
		c-1.1-0.5-2-0.7-2.6-0.7c0,0-0.1,0-0.1,0h-12.4c0,0-0.1,0-0.1,0c-0.6,0-1.5,0.1-2.6,0.7c-1.7,0.9-3.6,2.7-4.9,6
		c-1.3,3.3-2.2,8.1-2.2,15.4c0,1.9,0.1,3.9,0.2,6.1c0.1,1.4,1.2,2.4,2.6,2.4c0.1,0,0.1,0,0.2,0c1.4-0.1,2.5-1.3,2.4-2.7
		c-0.1-2.1-0.2-4.1-0.2-5.8c0-7.7,1.1-12.1,2.2-14.4v40.4c0,2.2,1.8,4,4,4c2.2,0,4-1.8,4-4v-21.3h1.5v21.3c0,2.2,1.8,4,4,4
		c2.2,0,4-1.8,4-4l0-40.4c0.2,0.4,0.4,0.8,0.6,1.4c0.9,2.5,1.7,6.6,1.7,13c0,1.8-0.1,3.7-0.2,5.8c-0.1,1.4,1,2.6,2.4,2.7
		C864.9,2057.4,865,2057.4,865,2057.4L865,2057.4z"/>
	<path class="st1" d="M859,2017.8c0,4-3.2,7.2-7.2,7.2c-4,0-7.2-3.2-7.2-7.2c0-4,3.2-7.2,7.2-7.2
		C855.8,2010.6,859,2013.8,859,2017.8"/>
</g>
<g class="st0">
	<path class="st1" d="M746,2047.6c1.3,0,2.5-1,2.6-2.4c0.1-2.2,0.2-4.3,0.2-6.1c0-9.6-1.6-15-3.7-18.2c-1.1-1.6-2.3-2.6-3.4-3.2
		c-1.1-0.5-2-0.7-2.6-0.7c0,0-0.1,0-0.1,0h-12.4c0,0-0.1,0-0.1,0c-0.6,0-1.5,0.1-2.6,0.7c-1.7,0.9-3.6,2.7-4.9,6
		c-1.3,3.3-2.2,8.1-2.2,15.4c0,1.9,0.1,3.9,0.2,6.1c0.1,1.4,1.2,2.4,2.6,2.4c0.1,0,0.1,0,0.2,0c1.4-0.1,2.5-1.3,2.4-2.7
		c-0.1-2.1-0.2-4.1-0.2-5.8c0-7.7,1.1-12.1,2.2-14.4v40.4c0,2.2,1.8,4,4,4c2.2,0,4-1.8,4-4v-21.3h1.5v21.3c0,2.2,1.8,4,4,4
		c2.2,0,4-1.8,4-4l0-40.4c0.2,0.4,0.4,0.8,0.6,1.4c0.9,2.5,1.7,6.6,1.7,13c0,1.8-0.1,3.7-0.2,5.8c-0.1,1.4,1,2.6,2.4,2.7
		C745.9,2047.6,746,2047.6,746,2047.6L746,2047.6z"/>
	<path class="st1" d="M740,2008c0,4-3.2,7.2-7.2,7.2c-4,0-7.2-3.2-7.2-7.2c0-4,3.2-7.2,7.2-7.2C736.7,2000.8,740,2004,740,2008"/>
</g>
<g class="st0">
	<path class="st1" d="M790.5,2047.6c1.3,0,2.5-1,2.6-2.4c0.1-2.2,0.2-4.3,0.2-6.1c0-9.6-1.6-15-3.7-18.2c-1.1-1.6-2.3-2.6-3.4-3.2
		c-1.1-0.5-2-0.7-2.6-0.7c0,0-0.1,0-0.1,0H771c0,0-0.1,0-0.1,0c-0.6,0-1.5,0.1-2.6,0.7c-1.7,0.9-3.6,2.7-4.9,6
		c-1.3,3.3-2.2,8.1-2.2,15.4c0,1.9,0.1,3.9,0.2,6.1c0.1,1.4,1.2,2.4,2.6,2.4c0.1,0,0.1,0,0.2,0c1.4-0.1,2.5-1.3,2.4-2.7
		c-0.1-2.1-0.2-4.1-0.2-5.8c0-7.7,1.1-12.1,2.2-14.4v40.4c0,2.2,1.8,4,4,4c2.2,0,4-1.8,4-4v-21.3h1.5v21.3c0,2.2,1.8,4,4,4
		c2.2,0,4-1.8,4-4l0-40.4c0.2,0.4,0.4,0.8,0.6,1.4c0.9,2.5,1.7,6.6,1.7,13c0,1.8-0.1,3.7-0.2,5.8c-0.1,1.4,1,2.6,2.4,2.7
		C790.3,2047.6,790.4,2047.6,790.5,2047.6L790.5,2047.6z"/>
	<path class="st1" d="M784.4,2008c0,4-3.2,7.2-7.2,7.2c-4,0-7.2-3.2-7.2-7.2c0-4,3.2-7.2,7.2-7.2
		C781.2,2000.8,784.4,2004,784.4,2008"/>
</g>
<g class="st0">
	<path class="st1" d="M836.4,2047.6c1.3,0,2.5-1,2.6-2.4c0.1-2.2,0.2-4.3,0.2-6.1c0-9.6-1.6-15-3.7-18.2c-1.1-1.6-2.3-2.6-3.4-3.2
		c-1.1-0.5-2-0.7-2.6-0.7c0,0-0.1,0-0.1,0h-12.4c0,0-0.1,0-0.1,0c-0.6,0-1.5,0.1-2.6,0.7c-1.7,0.9-3.6,2.7-4.9,6
		c-1.3,3.3-2.2,8.1-2.2,15.4c0,1.9,0.1,3.9,0.2,6.1c0.1,1.4,1.2,2.4,2.6,2.4c0.1,0,0.1,0,0.2,0c1.4-0.1,2.5-1.3,2.4-2.7
		c-0.1-2.1-0.2-4.1-0.2-5.8c0-7.7,1.1-12.1,2.2-14.4v40.4c0,2.2,1.8,4,4,4c2.2,0,4-1.8,4-4v-21.3h1.5v21.3c0,2.2,1.8,4,4,4
		c2.2,0,4-1.8,4-4l0-40.4c0.2,0.4,0.4,0.8,0.6,1.4c0.9,2.5,1.7,6.6,1.7,13c0,1.8-0.1,3.7-0.2,5.8c-0.1,1.4,1,2.6,2.4,2.7
		C836.3,2047.6,836.3,2047.6,836.4,2047.6L836.4,2047.6z"/>
	<path class="st1" d="M830.3,2008c0,4-3.2,7.2-7.2,7.2c-4,0-7.2-3.2-7.2-7.2c0-4,3.2-7.2,7.2-7.2
		C827.1,2000.8,830.3,2004,830.3,2008"/>
</g>
<g class="st0">
	<path class="st1" d="M880.8,2047.6c1.3,0,2.5-1,2.6-2.4c0.1-2.2,0.2-4.3,0.2-6.1c0-9.6-1.6-15-3.7-18.2c-1.1-1.6-2.3-2.6-3.4-3.2
		c-1.1-0.5-2-0.7-2.6-0.7c0,0-0.1,0-0.1,0h-12.4c0,0-0.1,0-0.1,0c-0.6,0-1.5,0.1-2.6,0.7c-1.7,0.9-3.6,2.7-4.9,6
		c-1.3,3.3-2.2,8.1-2.2,15.4c0,1.9,0.1,3.9,0.2,6.1c0.1,1.4,1.2,2.4,2.6,2.4c0.1,0,0.1,0,0.2,0c1.4-0.1,2.5-1.3,2.4-2.7
		c-0.1-2.1-0.2-4.1-0.2-5.8c0-7.7,1.1-12.1,2.2-14.4v40.4c0,2.2,1.8,4,4,4c2.2,0,4-1.8,4-4v-21.3h1.5v21.3c0,2.2,1.8,4,4,4
		c2.2,0,4-1.8,4-4l0-40.4c0.2,0.4,0.4,0.8,0.6,1.4c0.9,2.5,1.7,6.6,1.7,13c0,1.8-0.1,3.7-0.2,5.8c-0.1,1.4,1,2.6,2.4,2.7
		C880.7,2047.6,880.8,2047.6,880.8,2047.6L880.8,2047.6z"/>
	<path class="st1" d="M874.8,2008c0,4-3.2,7.2-7.2,7.2c-4,0-7.2-3.2-7.2-7.2c0-4,3.2-7.2,7.2-7.2
		C871.5,2000.8,874.8,2004,874.8,2008"/>
</g>
<g>
	<path class="st1" d="M372.8,1650.1c2.7,0,4.9-2.1,5.1-4.8c0.3-4.4,0.4-8.5,0.4-12.2c0-19.3-3.1-30-7.3-36.4
		c-2.1-3.2-4.6-5.2-6.8-6.4c-2.1-1.1-4-1.3-5.2-1.4c-0.1,0-0.2,0-0.3,0h-24.7c-0.1,0-0.2,0-0.3,0c-1.2,0-3,0.3-5.2,1.4
		c-3.4,1.7-7.1,5.4-9.7,12c-2.6,6.6-4.4,16.2-4.4,30.7c0,3.7,0.1,7.8,0.4,12.3c0.2,2.7,2.4,4.8,5.1,4.8c0.1,0,0.2,0,0.3,0
		c2.8-0.2,5-2.6,4.8-5.4c-0.3-4.3-0.4-8.1-0.4-11.6c0-15.5,2.2-24.2,4.5-28.7v80.8c0,4.4,3.5,7.9,7.9,7.9c4.4,0,7.9-3.5,7.9-7.9
		v-42.6h3v42.6c0,4.4,3.5,7.9,7.9,7.9c4.4,0,7.9-3.5,7.9-7.9l0-80.8c0.4,0.8,0.8,1.7,1.1,2.7c1.8,5,3.3,13.2,3.3,26
		c0,3.5-0.1,7.4-0.4,11.7c-0.2,2.8,2,5.2,4.8,5.4C372.6,1650.1,372.7,1650.1,372.8,1650.1L372.8,1650.1z"/>
	<path class="st1" d="M360.7,1570.8c0,7.9-6.4,14.4-14.4,14.4c-7.9,0-14.4-6.4-14.4-14.4c0-7.9,6.4-14.4,14.4-14.4
		C354.2,1556.4,360.7,1562.9,360.7,1570.8"/>
</g>
<g>
	<path class="st1" d="M461.6,1650.1c2.7,0,4.9-2.1,5.1-4.8c0.3-4.4,0.4-8.5,0.4-12.2c0-19.3-3.1-30-7.3-36.4
		c-2.1-3.2-4.6-5.2-6.8-6.4c-2.1-1.1-4-1.3-5.2-1.4c-0.1,0-0.2,0-0.3,0h-24.7c-0.1,0-0.2,0-0.3,0c-1.2,0-3,0.3-5.2,1.4
		c-3.4,1.7-7.1,5.4-9.7,12c-2.6,6.6-4.4,16.2-4.4,30.7c0,3.7,0.1,7.8,0.4,12.3c0.2,2.7,2.4,4.8,5.1,4.8c0.1,0,0.2,0,0.3,0
		c2.8-0.2,5-2.6,4.8-5.4c-0.3-4.3-0.4-8.1-0.4-11.6c0-15.5,2.2-24.2,4.5-28.7v80.8c0,4.4,3.5,7.9,7.9,7.9c4.4,0,7.9-3.5,7.9-7.9
		v-42.6h3v42.6c0,4.4,3.5,7.9,7.9,7.9c4.4,0,7.9-3.5,7.9-7.9l0-80.8c0.4,0.8,0.8,1.7,1.1,2.7c1.8,5,3.3,13.2,3.3,26
		c0,3.5-0.1,7.4-0.4,11.7c-0.2,2.8,2,5.2,4.8,5.4C461.4,1650.1,461.5,1650.1,461.6,1650.1L461.6,1650.1z"/>
	<path class="st1" d="M449.5,1570.8c0,7.9-6.4,14.4-14.4,14.4c-7.9,0-14.4-6.4-14.4-14.4c0-7.9,6.4-14.4,14.4-14.4
		C443.1,1556.4,449.5,1562.9,449.5,1570.8"/>
</g>
<g>
	<path class="st25" d="M550.5,1650.1c2.7,0,4.9-2.1,5.1-4.8c0.3-4.4,0.4-8.5,0.4-12.2c0-19.3-3.1-30-7.3-36.4
		c-2.1-3.2-4.6-5.2-6.8-6.4c-2.1-1.1-4-1.3-5.2-1.4c-0.1,0-0.2,0-0.3,0h-24.7c-0.1,0-0.2,0-0.3,0c-1.2,0-3,0.3-5.2,1.4
		c-3.4,1.7-7.1,5.4-9.7,12c-2.6,6.6-4.4,16.2-4.4,30.7c0,3.7,0.1,7.8,0.4,12.3c0.2,2.7,2.4,4.8,5.1,4.8c0.1,0,0.2,0,0.3,0
		c2.8-0.2,5-2.6,4.8-5.4c-0.3-4.3-0.4-8.1-0.4-11.6c0-15.5,2.2-24.2,4.5-28.7v80.8c0,4.4,3.5,7.9,7.9,7.9c4.4,0,7.9-3.5,7.9-7.9
		v-42.6h3v42.6c0,4.4,3.5,7.9,7.9,7.9c4.4,0,7.9-3.5,7.9-7.9l0-80.8c0.4,0.8,0.8,1.7,1.1,2.7c1.8,5,3.3,13.2,3.3,26
		c0,3.5-0.1,7.4-0.4,11.7c-0.2,2.8,2,5.2,4.8,5.4C550.3,1650.1,550.4,1650.1,550.5,1650.1L550.5,1650.1z"/>
	<path class="st25" d="M538.4,1570.8c0,7.9-6.4,14.4-14.4,14.4c-7.9,0-14.4-6.4-14.4-14.4c0-7.9,6.4-14.4,14.4-14.4
		C532,1556.4,538.4,1562.9,538.4,1570.8"/>
</g>
<polyline class="st28" points="95.9,588.5 214.6,588.5 214.6,430.8 631.2,430.8 "/>
<line class="st28" x1="631.2" y1="588.5" x2="214.6" y2="588.5"/>
<polyline class="st28" points="95.9,905.5 214.6,905.5 214.6,748.4 631.2,748.4 "/>
<polyline class="st28" points="95.9,1064.1 479.4,1064.1 479.4,905.5 631.2,905.5 "/>
<line class="st31" x1="631.2" y1="1064.1" x2="479.4" y2="1064.1"/>
<polyline class="st28" points="479.4,1077.2 479.4,1225.8 631.2,1225.8 "/>
<polyline class="st28" points="479.4,1238.8 479.4,1387.4 631.2,1387.4 "/>
<path class="st10" d="M791.2,1496.6H631.2v-21.4c0-4.2,3.4-7.7,7.7-7.7h129.7c6.3,0,12.2,2.7,16.4,7.4L791.2,1496.6z"/>
<text transform="matrix(1 0 0 1 654.6436 1529.8153)" class="st19 st23 st24">Hallan cadáver</text>
<text transform="matrix(1 0 0 1 649.7803 1491.3612)"><tspan x="0" y="0" class="st19 st23 st26">Día 62  </tspan><tspan x="73.9" y="0" class="st19 st27 st26">13/11</tspan></text>
<polyline class="st28" points="479.4,1396.7 479.4,1545.3 631.2,1545.3 "/>
<path class="st10" d="M791.2,1665.1H631.2v-21.4c0-4.2,3.4-7.7,7.7-7.7h129.7c6.3,0,12.2,2.7,16.4,7.4L791.2,1665.1z"/>
<text transform="matrix(1 0 0 1 654.6436 1698.3524)" class="st19 st23 st24">Hallan cadáver</text>
<text transform="matrix(1 0 0 1 649.7803 1659.8973)"><tspan x="0" y="0" class="st19 st23 st26">Día 63  </tspan><tspan x="74.1" y="0" class="st19 st27 st26">14/11</tspan></text>
<path class="st9" d="M927.4,1968H129c-7.6,0-13.7-6.2-13.7-13.7v-37h813c5,0,9.1,4.1,9.1,9.1v31.7
	C937.3,1963.5,932.9,1968,927.4,1968z"/>
<path class="st10" d="M275.3,1916.5H115.2v-21.4c0-4.2,3.4-7.7,7.7-7.7h129.7c6.3,0,12.2,2.7,16.4,7.4L275.3,1916.5z"/>
<text transform="matrix(1 0 0 1 138.6924 1949.7391)" class="st19 st23 st24">Hazaña en busca de ayuda</text>
<text transform="matrix(1 0 0 1 133.8291 1911.2841)"><tspan x="0" y="0" class="st19 st23 st26">Día 61  </tspan><tspan x="72.8" y="0" class="st19 st27 st26">12/12</tspan></text>
<text transform="matrix(1 0 0 1 137.8327 2110.3801)"><tspan x="0" y="0" class="st10 st23 st32">Parrado, Caneza y</tspan><tspan x="0" y="22.1" class="st10 st23 st32">Vizintín parten en</tspan><tspan x="0" y="44.2" class="st10 st23 st32">busca de ayuda</tspan></text>
<text transform="matrix(1 0 0 1 308.0659 2110.3801)"><tspan x="0" y="0" class="st10 st23 st32">Parrado y Caneza se</tspan><tspan x="0" y="22.1" class="st10 st23 st32">encuentran con el</tspan><tspan x="0" y="44.2" class="st10 st23 st32">arriero Sergio</tspan></text>
<text transform="matrix(1 0 0 1 488.2296 2110.3801)"><tspan x="0" y="0" class="st10 st23 st32">Parrado y Caneza  </tspan><tspan x="0" y="22.1" class="st10 st23 st32">son rescatados</tspan></text>
<text transform="matrix(1 0 0 1 672.8445 2110.3801)"><tspan x="0" y="0" class="st10 st23 st32">Los sobrevivientes son</tspan><tspan x="0" y="22.1" class="st10 st23 st32">rescatados en 2 tandas</tspan></text>
<path class="st10" d="M450.5,1916.5H290.4v-21.4c0-4.2,3.4-7.7,7.7-7.7h129.7c6.3,0,12.2,2.7,16.4,7.4L450.5,1916.5z"/>
<text transform="matrix(1 0 0 1 308.986 1911.2841)"><tspan x="0" y="0" class="st19 st23 st26">Día 69  </tspan><tspan x="75.1" y="0" class="st19 st27 st26">20/12</tspan></text>
<path class="st10" d="M628.4,1916.5H468.3v-21.4c0-4.2,3.4-7.7,7.7-7.7h129.7c6.3,0,12.2,2.7,16.4,7.4L628.4,1916.5z"/>
<text transform="matrix(1 0 0 1 486.9436 1911.2841)"><tspan x="0" y="0" class="st19 st23 st26">Día 70  </tspan><tspan x="73.5" y="0" class="st19 st27 st26">20/12</tspan></text>
<path class="st10" d="M923.3,1916.5h-279v-21.4c0-4.2,6-7.7,13.3-7.7h226.1c5,0,9.9,0.6,14.4,1.6c8.1,1.9,14.9,7.4,18.7,14.8
	L923.3,1916.5z"/>
<text transform="matrix(1 0 0 1 662.8366 1911.2841)"><tspan x="0" y="0" class="st19 st23 st26">Día 71 y 72  </tspan><tspan x="114.7" y="0" class="st19 st27 st26">22 y 23/12</tspan></text>
<polyline class="st28" points="479.4,1559.3 479.4,1707.9 631.2,1707.9 "/>
<polyline class="st28" points="459.7,1707.9 125.8,1707.9 125.8,1887.4 "/>
<line class="st28" x1="125.8" y1="1968.6" x2="125.8" y2="2155"/>
<line class="st28" x1="292.8" y1="1968.6" x2="292.8" y2="2155"/>
<line class="st28" x1="468.3" y1="1968.6" x2="468.3" y2="2155"/>
<line class="st28" x1="649.8" y1="1968.6" x2="649.8" y2="2155"/>
</svg>
