<?xml version="1.0" encoding="utf-8"?>
<!-- Generator: Adobe Illustrator 24.3.0, SVG Export Plug-In . SVG Version: 6.00 Build 0)  -->
<svg version="1.1" id="Capa_1" xmlns="http://www.w3.org/2000/svg" xmlns:xlink="http://www.w3.org/1999/xlink" x="0px" y="0px"
	 viewBox="0 0 1080 1114.3" style="enable-background:new 0 0 1080 1114.3;" xml:space="preserve">
<style type="text/css">
	.st0{opacity:0.21;}
	.st1{fill:#7D9AB7;}
	.st2{fill:none;stroke:#FFFFFF;stroke-width:2.8886;stroke-miterlimit:10;}
	.st3{opacity:0.18;fill:#C64832;}
	.st4{fill:none;stroke:#515151;stroke-width:2.5275;stroke-miterlimit:10;}
	.st5{fill:none;stroke:#515151;stroke-width:2.5275;stroke-miterlimit:10;stroke-dasharray:6.7269,6.7269;}
	.st6{fill:none;stroke:#515151;stroke-width:2.5275;stroke-miterlimit:10;stroke-dasharray:7.2408,7.2408;}
	.st7{fill:none;stroke:#C64832;stroke-width:2.1664;stroke-miterlimit:10;stroke-dasharray:7.2001;}
	.st8{fill:none;stroke:#C64832;stroke-width:2.5275;stroke-miterlimit:10;}
	.st9{fill:#C64832;}
	.st10{fill:#1C1C1F;}
	.st11{fill:none;stroke:#C64832;stroke-width:2.1664;stroke-miterlimit:10;stroke-dasharray:1.0832,3.6107;}
	.st12{fill:none;stroke:#C64832;stroke-width:2.1664;stroke-miterlimit:10;stroke-dasharray:7.0933,7.0933;}
	.st13{fill:none;stroke:#515151;stroke-width:2.5275;stroke-miterlimit:10;stroke-dasharray:7.2214;}
	.st14{fill:#262626;}
	.st15{fill:none;stroke:#211915;stroke-width:2.1664;stroke-miterlimit:10;stroke-dasharray:1.0832,3.6107;}
	.st16{fill:#494949;}
	.st17{opacity:0.4;fill:#262626;}
	.st18{opacity:0.43;fill:#262626;}
	.st19{fill:#FFFFFF;}
	.st20{opacity:0.43;fill:#C64832;}
	.st21{fill:#211915;}
	.st22{fill:#B0BFB2;}
	.st23{fill:#C4C9D1;}
	.st24{fill:none;stroke:#211915;stroke-width:4.1268;stroke-miterlimit:10;stroke-dasharray:1.7686,5.8954;}
	.st25{fill:#A38051;}
	.st26{opacity:0.45;}
	.st27{fill:none;stroke:#211915;stroke-width:3.5373;stroke-miterlimit:10;stroke-dasharray:1.7686,5.8954;}
	.st28{font-family:'FiraSansCondensed-Bold';}
	.st29{font-size:18.8979px;}
	.st30{font-family:'FiraSansCondensed-Light';}
	.st31{font-size:17.3231px;}
	.st32{font-size:37.7958px;}
	.st33{font-family:'FiraSansCondensed-Medium';}
	.st34{fill:none;}
	.st35{fill:none;stroke:#000000;stroke-width:1.8359;stroke-miterlimit:10;}
	.st36{font-size:22.0311px;}
</style>
<image style="overflow:visible;" width="554" height="513" xlink:href="ojo.png"  transform="matrix(0.5677 0 0 0.5677 346.8114 395.9054)">
</image>
<rect x="804" y="956.3" class="st14" width="230.7" height="19.9"/>
<path class="st23" d="M512.7,313.9c23.1,0.2,46,3.8,68,10.8l-35,107.8c-10.7-3.3-21.8-5.1-32.9-5.2V313.9z"/>
<path class="st23" d="M583.6,325.7c21.9,7.3,42.6,17.8,61.3,31.2l-66.7,91.7c-9.1-6.4-19.1-11.5-29.7-15.1L583.6,325.7z"/>
<path class="st22" d="M647.5,358.8c18.6,13.7,35,30.1,48.7,48.7l-91.7,66.7c-6.7-8.9-14.6-16.9-23.6-23.6L647.5,358.8z"/>
<path class="st22" d="M698,410c13.4,18.8,24,39.4,31.2,61.3l-107.8,35c-3.6-10.6-8.7-20.6-15.1-29.7L698,410z"/>
<path class="st9" d="M730.2,474.3c38,119.9-27.3,248.1-146.6,287.7l-35-107.8c59.8-20.3,92.5-84.5,73.8-144.8L730.2,474.3z"/>
<path class="st22" d="M580.6,763c-22,7-44.9,10.6-68,10.8V660.4c11.2-0.2,22.3-1.9,32.9-5.2L580.6,763z"/>
<path class="st22" d="M509.5,773.8c-23.1-0.2-46-3.8-68-10.8l35-107.8c10.7,3.3,21.8,5.1,32.9,5.2V773.8z"/>
<path class="st9" d="M438.5,762c-45.1-15-84.4-43.5-112.5-81.8l91.7-66.7c14.1,18.9,33.6,33,55.8,40.6L438.5,762z"/>
<path class="st23" d="M324.2,677.7c-13.4-18.8-24-39.4-31.2-61.3l107.8-35c3.6,10.6,8.7,20.6,15.1,29.7L324.2,677.7z"/>
<path class="st22" d="M291.9,613.4c-7-22-10.6-44.9-10.8-68h113.4c0.2,11.2,1.9,22.3,5.2,32.9L291.9,613.4z"/>
<path class="st22" d="M281.2,542.3c0.2-23.1,3.8-46,10.8-68l107.8,35c-3.3,10.7-5.1,21.8-5.2,32.9H281.2z"/>
<path class="st22" d="M292.9,471.3c7.3-21.9,17.8-42.6,31.2-61.3l91.7,66.7c-6.4,9.1-11.5,19.1-15.1,29.7L292.9,471.3z"/>
<path class="st9" d="M326,407.4c28.2-38.2,67.5-66.8,112.5-81.8l35,107.8c-22.3,7.6-41.8,21.7-55.8,40.6L326,407.4z"/>
<path class="st23" d="M441.5,324.7c22-7,44.9-10.6,68-10.8v113.4c-11.2,0.2-22.3,1.9-32.9,5.2L441.5,324.7z"/>
<path class="st23" d="M512.7,197.4c35.3,0.2,70.4,5.7,104,16.5l-35,107.8c-22.3-7.1-45.5-10.8-68.9-10.9V197.4z"/>
<path class="st23" d="M619.6,214.8c33.5,11.1,65.2,27.2,93.8,47.8l-66.6,91.7c-19-13.6-40-24.3-62.2-31.7L619.6,214.8z"/>
<path class="st22" d="M716,264.5c28.5,20.9,53.6,46,74.4,74.4l-91.7,66.6c-13.9-18.8-30.5-35.5-49.4-49.4L716,264.5z"/>
<path class="st22" d="M792.3,341.5c20.6,28.7,36.7,60.3,47.8,93.8l-107.8,35c-7.4-22.2-18.1-43.2-31.7-62.2L792.3,341.5z"/>
<path class="st9" d="M841.1,438.3c45.4,141.9-5,296.8-125.1,384.9l-66.6-91.7c80.4-59.2,114.1-163,83.9-258.2L841.1,438.3z"/>
<path class="st9" d="M713.5,825c-28.7,20.6-60.3,36.7-93.8,47.8l-35-107.8c22.2-7.4,43.2-18.1,62.2-31.7L713.5,825z"/>
<path class="st22" d="M616.7,873.8c-33.6,10.8-68.7,16.3-104,16.5V776.9c23.4-0.2,46.6-3.8,68.9-10.9L616.7,873.8z"/>
<path class="st22" d="M509.5,890.3c-35.3-0.2-70.4-5.7-104-16.5l35-107.8c22.3,7.1,45.5,10.8,68.9,10.9V890.3z"/>
<path class="st9" d="M402.5,872.8c-33.5-11.1-65.2-27.2-93.8-47.8l66.6-91.7c19,13.6,40,24.3,62.2,31.7L402.5,872.8z"/>
<path class="st9" d="M306.2,823.2c-28.5-20.9-53.6-46-74.4-74.4l91.7-66.6c13.9,18.8,30.5,35.5,49.4,49.4L306.2,823.2z"/>
<path class="st23" d="M229.9,746.2c-20.6-28.7-36.7-60.3-47.8-93.8l107.8-35c7.4,22.2,18.1,43.2,31.7,62.2L229.9,746.2z"/>
<path class="st22" d="M181.1,649.4c-10.8-33.6-16.3-68.7-16.5-104H278c0.2,23.4,3.8,46.6,10.9,68.9L181.1,649.4z"/>
<path class="st22" d="M164.6,542.3c0.2-35.3,5.7-70.4,16.5-104l107.8,35c-7.1,22.3-10.8,45.5-10.9,68.9H164.6z"/>
<path class="st22" d="M182.1,435.3c11.1-33.5,27.2-65.2,47.8-93.8l91.7,66.6c-13.6,19-24.3,40-31.7,62.2L182.1,435.3z"/>
<path class="st9" d="M231.7,338.9c20.9-28.5,46-53.6,74.4-74.4l66.6,91.7c-18.8,13.9-35.5,30.5-49.4,49.4L231.7,338.9z"/>
<path class="st9" d="M308.7,262.6c28.7-20.6,60.3-36.7,93.8-47.8l35,107.8c-22.2,7.4-43.2,18.1-62.2,31.7L308.7,262.6z"/>
<path class="st23" d="M405.5,213.8c33.6-10.8,68.7-16.3,104-16.5v113.4c-23.4,0.2-46.6,3.8-68.9,10.9L405.5,213.8z"/>
<path class="st23" d="M512.7,80.8c47.5,0.2,94.7,7.6,140,22.2l-35,107.8c-33.9-10.9-69.3-16.5-105-16.6V80.8z"/>
<path class="st23" d="M655.7,104c45.2,14.8,87.8,36.5,126.3,64.4l-66.6,91.7c-28.9-20.8-60.9-37.1-94.7-48.2L655.7,104z"/>
<path class="st9" d="M951.9,402.3c29.6,92.1,29.6,191.1,0,283.2l-107.8-35c22.2-69.3,22.2-143.8,0-213.1L951.9,402.3z"/>
<path class="st9" d="M950.9,688.4c-14.8,45.2-36.5,87.8-64.4,126.3l-91.7-66.6c20.8-28.9,37.1-60.9,48.2-94.7L950.9,688.4z"/>
<path class="st9" d="M884.7,817.2c-28.1,38.4-61.9,72.2-100.2,100.2l-66.6-91.7c28.7-21.1,54.1-46.4,75.1-75.1L884.7,817.2z"/>
<path class="st9" d="M782,919.3c-38.5,27.8-81.1,49.5-126.3,64.4l-35-107.8c33.8-11.2,65.8-27.4,94.7-48.2L782,919.3z"/>
<path class="st9" d="M366.5,983.7c-45.2-14.8-87.8-36.5-126.3-64.4l66.6-91.7c28.9,20.8,60.9,37.1,94.7,48.2L366.5,983.7z"/>
<path class="st9" d="M237.7,917.5c-38.4-28.1-72.2-61.9-100.2-100.2l91.7-66.6c21.1,28.7,46.4,54.1,75.1,75.1L237.7,917.5z"/>
<path class="st23" d="M135.6,814.7c-27.8-38.5-49.5-81.1-64.4-126.3l107.8-35c11.2,33.8,27.4,65.8,48.2,94.7L135.6,814.7z"/>
<path class="st9" d="M137.4,270.4c28.1-38.4,61.9-72.2,100.2-100.2l66.6,91.7c-28.7,21.1-54.1,46.4-75.1,75.1L137.4,270.4z"/>
<path class="st9" d="M240.2,168.3c38.5-27.8,81.1-49.5,126.3-64.4l35,107.8c-33.8,11.2-65.8,27.4-94.7,48.2L240.2,168.3z"/>
<path class="st23" d="M369.5,103c45.3-14.5,92.5-22,140-22.2v113.4c-35.6,0.2-71,5.8-105,16.6L369.5,103z"/>
<g id="labels" transform="translate(412.5,303)">
	<text transform="matrix(0.1564 -0.9877 0.9877 0.1564 126.8824 102.4583)" class="st14 st28 st29">Argentina</text>
	<text transform="matrix(0.454 -0.891 0.891 0.454 168.4602 117.5779)" class="st14 st28 st29">Colombia</text>
	<text transform="matrix(0.7071 -0.7071 0.7071 0.7071 207.4544 140.8702)" class="st14 st28 st29">Islandia</text>
	<text transform="matrix(0.891 -0.454 0.454 0.891 231.0688 180.3989)" class="st14 st28 st29">Ecuador</text>
	<text transform="matrix(0.891 0.454 -0.454 0.891 233.9373 316.868)" class="st19 st28 st29">Brasil</text>
	<text transform="matrix(0.1564 0.9877 -0.9877 0.1564 115.808 389.839)" class="st14 st28 st29">Mexico</text>
	<text transform="matrix(0.1564 -0.9877 0.9877 0.1564 73.5609 439.1108)" class="st14 st28 st29">Nigeria</text>
	<text transform="matrix(0.5878 -0.809 0.809 0.5878 -14.4974 407.1977)" class="st19 st28 st29">Francia</text>
	<text transform="matrix(0.891 -0.454 0.454 0.891 -83.5439 340.7021)" class="st14 st28 st29">Myanmar</text>
	<text transform="matrix(0.9877 -0.1564 0.1564 0.9877 -105.9351 279.6047)" class="st14 st28 st29">Bahamas</text>
	<text transform="matrix(0.9877 0.1564 -0.1564 0.9877 -88.4519 217.5885)" class="st14 st28 st29">Iran</text>
	<text transform="matrix(0.891 0.454 -0.454 0.891 -84.2007 154.7686)" class="st14 st28 st29">Croacia</text>
	<text transform="matrix(0.5878 0.809 -0.809 0.5878 -25.9708 80.109)" class="st19 st28 st29">E.E.U.U</text>
	<text transform="matrix(0.1564 0.9877 -0.9877 0.1564 62.2145 51.4444)" class="st14 st28 st29">Chile</text>
	<text transform="matrix(0.1564 -0.9877 0.9877 0.1564 143.1044 3.031650e-02)" class="st14 st30 st31">Buenos Aires</text>
	<text transform="matrix(0.454 -0.891 0.891 0.454 225.9334 4.7718)" class="st14 st30 st31">Nariño</text>
	<text transform="matrix(0.7071 -0.7071 0.7071 0.7071 289.5536 58.7709)" class="st14 st30 st31">Keflavik</text>
	<text transform="matrix(0.891 -0.454 0.454 0.891 323.7191 133.1912)" class="st14 st30 st31">Tungurahua</text>
	<text transform="matrix(0.9511 0.309 -0.309 0.9511 357.9054 331.7136)" class="st19 st30 st31">Pará</text>
	<text transform="matrix(0.454 0.891 -0.891 0.454 208.3534 470.1346)" class="st19 st30 st31">Amazonas</text>
	<text transform="matrix(0.1564 0.9877 -0.9877 0.1564 132.8729 497.5829)" class="st14 st30 st31">Acapulco</text>
	<text transform="matrix(0.1564 -0.9877 0.9877 0.1564 55.8776 550.7651)" class="st14 st30 st31">Lagos</text>
	<text transform="matrix(0.454 -0.891 0.891 0.454 -38.7917 524.3326)" class="st19 st30 st31">Drôme</text>
	<text transform="matrix(0.7071 -0.7071 0.7071 0.7071 -141.3457 489.6703)" class="st19 st30 st31">Seine-et-Marne</text>
	<text transform="matrix(0.891 -0.454 0.454 0.891 -188.56 394.2127)" class="st14 st30 st31">Mandalay</text>
	<text transform="matrix(0.9877 -0.1564 0.1564 0.9877 -233.5658 299.8194)" class="st14 st30 st31">Berry Islands</text>
	<text transform="matrix(0.9877 0.1564 -0.1564 0.9877 -226.9048 195.6597)" class="st14 st30 st31">Khuzestan</text>
	<text transform="matrix(0.891 0.454 -0.454 0.891 -186.0922 102.8523)" class="st14 st30 st31">Zagreb</text>
	<text transform="matrix(0.7071 0.7071 -0.7071 0.7071 -132.6063 18.5466)" class="st19 st30 st31">Missouri</text>
	<text transform="matrix(0.454 0.891 -0.891 0.454 -54.5257 -45.7904)" class="st19 st30 st31">New York</text>
	<text transform="matrix(0.1564 0.9877 -0.9877 0.1564 43.981 -63.6585)" class="st14 st30 st31">Chile</text>
	<text transform="matrix(0.9877 0.1564 -0.1564 0.9877 149.5688 -151.5097)" class="st14 st28 st32">5</text>
	<text transform="matrix(0.9317 0.3633 -0.3633 0.9317 259.4558 -127.5362)" class="st14 st28 st32">26</text>
	<text transform="matrix(5.206960e-02 -0.9986 0.9986 5.206960e-02 519.7319 252.7105)" class="st19 st28 st32">3</text>
	<text transform="matrix(0.4608 -0.8875 0.8875 0.4608 466.1145 444.8065)" class="st19 st28 st32">22</text>
	<text transform="matrix(0.6928 -0.7211 0.7211 0.6928 382.352 545.2793)" class="st19 st28 st32">38</text>
	<text transform="matrix(0.8693 -0.4943 0.4943 0.8693 271.8762 621.7524)" class="st19 st28 st32">44</text>
	<text transform="matrix(0.8984 0.4392 -0.4392 0.8984 -110.2308 602.6398)" class="st19 st28 st32">22</text>
	<text transform="matrix(0.7058 0.7085 -0.7085 0.7058 -212.1383 524.332)" class="st19 st28 st32">24</text>
	<text transform="matrix(0.4495 0.8933 -0.8933 0.4495 -276.9346 405.7163)" class="st14 st28 st32">43</text>
	<text transform="matrix(0.7542 -0.6566 0.6566 0.7542 -193.3941 -24.8384)" class="st19 st28 st32">38</text>
	<text transform="matrix(0.891 -0.454 0.454 0.891 -90.6668 -101.8864)" class="st19 st28 st32">17</text>
	<text transform="matrix(0.9877 -0.1564 0.1564 0.9877 22.5517 -140.9136)" class="st14 st28 st32">29</text>
</g>
<rect x="804" y="989.9" class="st9" width="40.4" height="17.5"/>
<rect x="804" y="1018.8" class="st23" width="40.4" height="17.5"/>
<rect x="804" y="1047.6" class="st22" width="40.4" height="17.5"/>
<g>
	<text transform="matrix(1 0 0 1 856.2871 1005.4)" class="st14 st33 st29">&gt; 1 ubicación por país</text>
</g>
<g>
	<text transform="matrix(1 0 0 1 856.2871 1032.2417)" class="st14 st33 st29">Sólo en 1 ubicación</text>
</g>
<g>
	<text transform="matrix(1 0 0 1 856.2871 1062.0278)" class="st14 st33 st29">Sin muertes</text>
</g>
<g>
	<text transform="matrix(1 0 0 1 807.207 972.5845)" class="st19 st33 st29">Muertes por ubicación</text>
</g>
<g>
	<path d="M535.9,507.5C535.9,507.5,535.8,507.4,535.9,507.5c-0.1-0.1-0.1-0.1-0.1-0.2c0,0,0-0.1,0-0.1c0,0,0,0,0-0.1l-3-18.4
		l-5.3,3.4l0.6,13.2c0,0,0,0.1,0,0.1c0,0,0,0.1,0,0.1c0,0,0,0.1-0.1,0.1c0,0,0,0.1-0.1,0.1c0,0-0.1,0.1-0.1,0.1c0,0,0,0-0.1,0.1
		l-8.2,4.3c-0.1,0.1-0.2,0.1-0.3,0.1l-41.5,4.1c-2.8,0.3-4.8,2.7-4.5,5.5c0.1,1.3,0.8,2.5,1.8,3.4c1,0.9,2.3,1.2,3.7,1.1l37.8-3.7
		l1.9-2.9l-2-1.7c0,0-0.1-0.1-0.1-0.1c0,0,0,0,0,0c0,0,0,0,0,0c0,0,0-0.1,0-0.1c0,0,0-0.1,0-0.1c0,0,0-0.1,0-0.1c0,0,0-0.1,0-0.1
		c0,0,0-0.1,0-0.1c0,0,0-0.1,0.1-0.1c0,0,0,0,0,0c0,0,0.1,0,0.1-0.1c0,0,0.1-0.1,0.1-0.1l4.1-2.2c0,0,0,0,0,0c0,0,0,0,0,0
		c0,0,0.1,0,0.1,0c0,0,0.1,0,0.1,0c0,0,0.1,0,0.1,0c0,0,0.1,0,0.1,0c0,0,0.1,0,0.1,0.1c0,0,0.1,0,0.1,0.1s0.1,0.1,0.1,0.1
		c0,0,0,0,0.1,0.1c0,0,0,0,0,0c0,0,0,0,0,0l1.1,2.6l5.5,1.4l4.3-2.2c0,0,0.1,0,0.1,0c0,0,0.1,0,0.1,0c0,0,0.1,0,0.1,0
		c0,0,0.1,0,0.1,0c0,0,0.1,0,0.1,0.1c0,0,0.1,0,0.1,0l10.5,8l5.8-2.4L535.9,507.5z M497.2,518.1l-18.5,1.8c0,0,0,0-0.1,0
		c-0.3,0-0.6-0.2-0.6-0.5c0-0.3,0.2-0.6,0.5-0.7l18.5-1.8c0.3,0,0.6,0.2,0.7,0.5C497.8,517.8,497.5,518.1,497.2,518.1L497.2,518.1z"
		/>
	<path d="M494.6,524l17.2,21.7l5.2-0.5l-6.6-22.8L494.6,524z"/>
	<path d="M511.2,486.4l-5.2,0.5l-12.6,24.7l15.8-1.6L511.2,486.4z"/>
	<path d="M477.3,528.9c-0.3,0-0.6,0.3-0.6,0.6v27.8c0,0.3,0.3,0.6,0.6,0.6c0.3,0,0.6-0.3,0.6-0.6v-27.8
		C477.9,529.1,477.7,528.9,477.3,528.9L477.3,528.9z"/>
	<path d="M484.9,528.9c-0.3,0-0.6,0.3-0.6,0.6v17.3c0,0.3,0.3,0.6,0.6,0.6c0.3,0,0.6-0.3,0.6-0.6v-17.3
		C485.5,529.1,485.2,528.9,484.9,528.9z"/>
	<path d="M492.4,528.9c-0.3,0-0.6,0.3-0.6,0.6v13.4c0,0.3,0.3,0.6,0.6,0.6c0.3,0,0.6-0.3,0.6-0.6v-13.4
		C493,529.1,492.7,528.9,492.4,528.9z"/>
	<path d="M526.8,530.5c-0.3,0-0.6,0.3-0.6,0.6v20.7c0,0.3,0.3,0.6,0.6,0.6c0.3,0,0.6-0.3,0.6-0.6v-20.7
		C527.4,530.8,527.1,530.5,526.8,530.5L526.8,530.5z"/>
	<path d="M534.3,530.5c-0.3,0-0.6,0.3-0.6,0.6v16.5c0,0.3,0.3,0.6,0.6,0.6c0.3,0,0.6-0.3,0.6-0.6l0-16.5
		C534.9,530.8,534.6,530.5,534.3,530.5L534.3,530.5z"/>
	<path d="M541.8,530.5c-0.3,0-0.6,0.3-0.6,0.6v11.8c0,0.3,0.3,0.6,0.6,0.6c0.3,0,0.6-0.3,0.6-0.6v-11.8
		C542.4,530.8,542.2,530.5,541.8,530.5z"/>
</g>
<path id="SVGID_x5F_1_x5F_" class="st34" d="M446.5,478.4c36.4-35.7,95-35.1,130.7,1.3c35.7,36.4,35.1,95-1.3,130.7
	c-36.4,35.7-95,35.1-130.7-1.3C409.4,572.6,410,514.1,446.5,478.4z"/>
<text><textPath  xlink:href="#SVGID_x5F_1_x5F_" startOffset="83.3462%">
<tspan  class="st33" style="font-size:18.1779px;">1920 - 2003</tspan></textPath>
</text>
<path class="st35" d="M556,460.8c29.9,15.9,50,47.6,49.4,83.8c-0.8,51.5-43.2,92.7-94.7,91.9c-51.5-0.8-92.7-43.2-91.9-94.7
	c0.5-35.4,20.7-65.9,49.9-81.2"/>
<rect x="457.4" y="565.5" class="st14" width="105.6" height="21.9"/>
<rect x="476.4" y="589.3" class="st14" width="66.9" height="21.9"/>
<text transform="matrix(1 0 0 1 460.8633 584.0972)"><tspan x="0" y="0" class="st19 st33 st36">Accidentes</tspan><tspan x="19.4" y="22.9" class="st19 st33 st36">FH-227</tspan></text>
</svg>
